ISO-10303-21;
HEADER;
FILE_DESCRIPTION (( 'STEP AP214' ),
    '1' );
FILE_NAME ('0926-1-15-20-75-14-11-0.STEP',
    '2019-03-16T00:30:42',
    ( '' ),
    ( '' ),
    'SwSTEP 2.0',
    'SolidWorks 2017',
    '' );
FILE_SCHEMA (( 'AUTOMOTIVE_DESIGN' ));
ENDSEC;

DATA;
#1 = DIMENSIONAL_EXPONENTS ( 1.000000000000000000, 0.0000000000000000000, 0.0000000000000000000, 0.0000000000000000000, 0.0000000000000000000, 0.0000000000000000000, 0.0000000000000000000 ) ;
#2 = CARTESIAN_POINT ( 'NONE',  ( 0.0000000000000000000, 0.09000000000000002400, 0.0000000000000000000 ) ) ;
#3 = AXIS2_PLACEMENT_3D ( 'NONE', #516, #27, #30 ) ;
#4 = VECTOR ( 'NONE', #60, 39.37007874015748100 ) ;
#5 = CIRCLE ( 'NONE', #430, 0.02949999999999999800 ) ;
#6 = ORIENTED_EDGE ( 'NONE', *, *, #405, .T. ) ;
#7 = VERTEX_POINT ( 'NONE', #693 ) ;
#8 = DIRECTION ( 'NONE',  ( -0.0000000000000000000, -1.000000000000000000, -0.0000000000000000000 ) ) ;
#9 = CARTESIAN_POINT ( 'NONE',  ( 0.0000000000000000000, 0.1499999999999999900, 0.0000000000000000000 ) ) ;
#10 = CARTESIAN_POINT ( 'NONE',  ( 4.286263797015739800E-018, 0.004862696402752228800, -0.03500000000000003100 ) ) ;
#11 = CARTESIAN_POINT ( 'NONE',  ( 0.0000000000000000000, 0.004862696402752228800, 0.0000000000000000000 ) ) ;
#12 = VECTOR ( 'NONE', #547, 39.37007874015748100 ) ;
#13 = CARTESIAN_POINT ( 'NONE',  ( 3.918869757271530800E-018, 0.1100000000000000300, 0.03200000000000000100 ) ) ;
#14 = AXIS2_PLACEMENT_3D ( 'NONE', #667, #609, #551 ) ;
#15 =( LENGTH_UNIT ( ) NAMED_UNIT ( * ) SI_UNIT ( $, .METRE. ) );
#16 = EDGE_LOOP ( 'NONE', ( #156, #627, #267, #599, #685 ) ) ;
#17 = ORIENTED_EDGE ( 'NONE', *, *, #597, .F. ) ;
#18 =( CONVERSION_BASED_UNIT ( 'INCH', #176 ) LENGTH_UNIT ( ) NAMED_UNIT ( #1 ) );
#19 = EDGE_CURVE ( 'NONE', #81, #555, #673, .T. ) ;
#20 = DIRECTION ( 'NONE',  ( -0.0000000000000000000, -1.000000000000000000, -0.0000000000000000000 ) ) ;
#21 = CONICAL_SURFACE ( 'NONE', #84, 0.02949999999999999800, 0.2617993877991421400 ) ;
#22 = ORIENTED_EDGE ( 'NONE', *, *, #705, .F. ) ;
#23 = AXIS2_PLACEMENT_3D ( 'NONE', #2, #50, #592 ) ;
#24 = APPLICATION_CONTEXT ( 'automotive_design' ) ;
#25 = ORIENTED_EDGE ( 'NONE', *, *, #268, .T. ) ;
#26 = EDGE_CURVE ( 'NONE', #40, #312, #625, .T. ) ;
#27 = DIRECTION ( 'NONE',  ( -0.0000000000000000000, -1.000000000000000000, -0.0000000000000000000 ) ) ;
#28 = ORIENTED_EDGE ( 'NONE', *, *, #29, .F. ) ;
#29 = EDGE_CURVE ( 'NONE', #254, #535, #659, .T. ) ;
#30 = DIRECTION ( 'NONE',  ( 0.0000000000000000000, 0.0000000000000000000, -1.000000000000000000 ) ) ;
#31 = PRODUCT_DEFINITION_FORMATION_WITH_SPECIFIED_SOURCE ( 'ANY', '', #575, .NOT_KNOWN. ) ;
#32 = DIRECTION ( 'NONE',  ( -0.0000000000000000000, -1.000000000000000000, -0.0000000000000000000 ) ) ;
#33 = AXIS2_PLACEMENT_3D ( 'NONE', #395, #459, #131 ) ;
#34 = DIRECTION ( 'NONE',  ( 0.0000000000000000000, 0.0000000000000000000, -1.000000000000000000 ) ) ;
#35 = DIRECTION ( 'NONE',  ( -0.0000000000000000000, -1.000000000000000000, -0.0000000000000000000 ) ) ;
#36 = VECTOR ( 'NONE', #448, 39.37007874015748100 ) ;
#37 = PLANE ( 'NONE',  #123 ) ;
#38 = CIRCLE ( 'NONE', #318, 0.03500000000000003100 ) ;
#39 = ORIENTED_EDGE ( 'NONE', *, *, #41, .F. ) ;
#40 = VERTEX_POINT ( 'NONE', #299 ) ;
#41 = EDGE_CURVE ( 'NONE', #242, #226, #211, .T. ) ;
#42 = DIRECTION ( 'NONE',  ( 0.0000000000000000000, 0.0000000000000000000, -1.000000000000000000 ) ) ;
#43 = CARTESIAN_POINT ( 'NONE',  ( 0.0000000000000000000, -0.07172462996186861100, 0.0000000000000000000 ) ) ;
#44 = CARTESIAN_POINT ( 'NONE',  ( 0.0000000000000000000, 0.1840000000000000800, 0.0000000000000000000 ) ) ;
#45 = DIRECTION ( 'NONE',  ( 0.0000000000000000000, 0.0000000000000000000, -1.000000000000000000 ) ) ;
#46 = VECTOR ( 'NONE', #111, 39.37007874015748100 ) ;
#47 = CARTESIAN_POINT ( 'NONE',  ( 0.0000000000000000000, 0.1840000000000000800, 0.0000000000000000000 ) ) ;
#48 = ORIENTED_EDGE ( 'NONE', *, *, #190, .T. ) ;
#49 = VERTEX_POINT ( 'NONE', #309 ) ;
#50 = DIRECTION ( 'NONE',  ( -0.0000000000000000000, -1.000000000000000000, -0.0000000000000000000 ) ) ;
#51 = AXIS2_PLACEMENT_3D ( 'NONE', #660, #600, #76 ) ;
#52 = EDGE_CURVE ( 'NONE', #88, #70, #433, .T. ) ;
#53 = CARTESIAN_POINT ( 'NONE',  ( 3.918869757271530800E-018, -0.07172462996186861100, 0.03200000000000000100 ) ) ;
#54 = ADVANCED_FACE ( 'NONE', ( #345, #473 ), #37, .F. ) ;
#55 = COLOUR_RGB ( '',0.7921568627450980000, 0.8196078431372548800, 0.9333333333333333500 ) ;
#56 = LINE ( 'NONE', #278, #4 ) ;
#57 = SPHERICAL_SURFACE ( 'NONE', #248, 0.02099999999999998000 ) ;
#58 = CARTESIAN_POINT ( 'NONE',  ( 0.0000000000000000000, 0.09000000000000002400, -0.04250000000000001000 ) ) ;
#59 = ORIENTED_EDGE ( 'NONE', *, *, #190, .F. ) ;
#60 = DIRECTION ( 'NONE',  ( -0.0000000000000000000, -1.000000000000000000, -0.0000000000000000000 ) ) ;
#61 = AXIS2_PLACEMENT_3D ( 'NONE', #275, #446, #544 ) ;
#62 = CARTESIAN_POINT ( 'NONE',  ( 0.0000000000000000000, 0.08000000000000002900, -0.04249999999999999600 ) ) ;
#63 = DIRECTION ( 'NONE',  ( 8.659560562354913100E-017, -0.7071067811865491300, 0.7071067811865459100 ) ) ;
#64 = DIRECTION ( 'NONE',  ( 0.0000000000000000000, 0.0000000000000000000, -1.000000000000000000 ) ) ;
#65 = EDGE_CURVE ( 'NONE', #570, #226, #196, .T. ) ;
#66 = CONICAL_SURFACE ( 'NONE', #611, 0.03500000000000003100, 0.7853981633974536100 ) ;
#67 = FACE_OUTER_BOUND ( 'NONE', #503, .T. ) ;
#68 = ORIENTED_EDGE ( 'NONE', *, *, #396, .T. ) ;
#69 = CARTESIAN_POINT ( 'NONE',  ( 0.0000000000000000000, 0.1500000000000000500, -0.02759266358974379500 ) ) ;
#70 = VERTEX_POINT ( 'NONE', #569 ) ;
#71 = ADVANCED_FACE ( 'NONE', ( #202, #607 ), #689, .F. ) ;
#72 = DIRECTION ( 'NONE',  ( 0.0000000000000000000, 1.000000000000000000, 0.0000000000000000000 ) ) ;
#73 = EDGE_CURVE ( 'NONE', #535, #254, #565, .T. ) ;
#74 = CARTESIAN_POINT ( 'NONE',  ( 0.0000000000000000000, 0.004862696402752228800, 0.03500000000000003100 ) ) ;
#75 = DIRECTION ( 'NONE',  ( -0.0000000000000000000, -1.000000000000000000, -0.0000000000000000000 ) ) ;
#76 = DIRECTION ( 'NONE',  ( 0.0000000000000000000, 0.0000000000000000000, -1.000000000000000000 ) ) ;
#77 = CIRCLE ( 'NONE', #33, 0.02949999999999999800 ) ;
#78 = FACE_OUTER_BOUND ( 'NONE', #146, .T. ) ;
#79 = PRODUCT_DEFINITION_CONTEXT ( 'detailed design', #631, 'design' ) ;
#80 = AXIS2_PLACEMENT_3D ( 'NONE', #617, #507, #290 ) ;
#81 = VERTEX_POINT ( 'NONE', #695 ) ;
#82 = EDGE_LOOP ( 'NONE', ( #170, #230 ) ) ;
#83 = DIRECTION ( 'NONE',  ( -0.0000000000000000000, -1.000000000000000000, -0.0000000000000000000 ) ) ;
#84 = AXIS2_PLACEMENT_3D ( 'NONE', #86, #512, #45 ) ;
#85 = CIRCLE ( 'NONE', #273, 0.02949999999999999800 ) ;
#86 = CARTESIAN_POINT ( 'NONE',  ( 0.0000000000000000000, 0.1218301270189225000, 0.0000000000000000000 ) ) ;
#87 = ORIENTED_EDGE ( 'NONE', *, *, #94, .F. ) ;
#88 = VERTEX_POINT ( 'NONE', #366 ) ;
#89 = AXIS2_PLACEMENT_3D ( 'NONE', #497, #397, #548 ) ;
#90 = DIRECTION ( 'NONE',  ( 0.0000000000000000000, -1.000000000000000000, -0.0000000000000000000 ) ) ;
#91 = LINE ( 'NONE', #349, #669 ) ;
#92 = CIRCLE ( 'NONE', #14, 0.03013730359724774800 ) ;
#93 = ORIENTED_EDGE ( 'NONE', *, *, #616, .F. ) ;
#94 = EDGE_CURVE ( 'NONE', #444, #443, #388, .T. ) ;
#95 = DIRECTION ( 'NONE',  ( 0.0000000000000000000, 0.0000000000000000000, -1.000000000000000000 ) ) ;
#96 = ORIENTED_EDGE ( 'NONE', *, *, #546, .F. ) ;
#97 = CARTESIAN_POINT ( 'NONE',  ( 2.571758278209441800E-018, 0.1499999999999999900, 0.02100000000000000500 ) ) ;
#98 = CARTESIAN_POINT ( 'NONE',  ( 0.0000000000000000000, 0.004862696402752228800, 0.0000000000000000000 ) ) ;
#99 = AXIS2_PLACEMENT_3D ( 'NONE', #197, #149, #144 ) ;
#100 = CARTESIAN_POINT ( 'NONE',  ( 0.0000000000000000000, 0.004862696402752228800, 0.0000000000000000000 ) ) ;
#101 = CARTESIAN_POINT ( 'NONE',  ( 0.0000000000000000000, 0.1218301270189225000, -0.02949999999999999800 ) ) ;
#102 = DIMENSIONAL_EXPONENTS ( 1.000000000000000000, 0.0000000000000000000, 0.0000000000000000000, 0.0000000000000000000, 0.0000000000000000000, 0.0000000000000000000, 0.0000000000000000000 ) ;
#103 = VECTOR ( 'NONE', #271, 39.37007874015748100 ) ;
#104 = CARTESIAN_POINT ( 'NONE',  ( 0.0000000000000000000, 0.0000000000000000000, 0.0000000000000000000 ) ) ;
#105 = UNCERTAINTY_MEASURE_WITH_UNIT (LENGTH_MEASURE( 1.000000000000000100E-005 ), #274, 'distance_accuracy_value', 'NONE');
#106 = FACE_OUTER_BOUND ( 'NONE', #466, .T. ) ;
#107 = VERTEX_POINT ( 'NONE', #630 ) ;
#108 = ORIENTED_EDGE ( 'NONE', *, *, #52, .F. ) ;
#109 = AXIS2_PLACEMENT_3D ( 'NONE', #323, #114, #380 ) ;
#110 = CARTESIAN_POINT ( 'NONE',  ( -0.04250000000000001000, 0.09000000000000002400, 0.0000000000000000000 ) ) ;
#111 = DIRECTION ( 'NONE',  ( 0.0000000000000000000, 0.7071067811865438000, 0.7071067811865512400 ) ) ;
#112 = EDGE_CURVE ( 'NONE', #555, #621, #270, .T. ) ;
#113 = CARTESIAN_POINT ( 'NONE',  ( 0.0000000000000000000, 0.1100000000000000300, 0.0000000000000000000 ) ) ;
#114 = DIRECTION ( 'NONE',  ( -0.0000000000000000000, -1.000000000000000000, -0.0000000000000000000 ) ) ;
#115 = LINE ( 'NONE', #393, #624 ) ;
#116 = ORIENTED_EDGE ( 'NONE', *, *, #65, .T. ) ;
#117 = ORIENTED_EDGE ( 'NONE', *, *, #661, .F. ) ;
#118 = DIMENSIONAL_EXPONENTS ( 1.000000000000000000, 0.0000000000000000000, 0.0000000000000000000, 0.0000000000000000000, 0.0000000000000000000, 0.0000000000000000000, 0.0000000000000000000 ) ;
#119 = EDGE_LOOP ( 'NONE', ( #590, #642 ) ) ;
#120 =( GEOMETRIC_REPRESENTATION_CONTEXT ( 3 ) GLOBAL_UNCERTAINTY_ASSIGNED_CONTEXT ( ( #684 ) ) GLOBAL_UNIT_ASSIGNED_CONTEXT ( ( #18, #680, #558 ) ) REPRESENTATION_CONTEXT ( 'NONE', 'WORKASPACE' ) );
#121 = DIRECTION ( 'NONE',  ( 0.0000000000000000000, 0.0000000000000000000, 1.000000000000000000 ) ) ;
#122 = DIRECTION ( 'NONE',  ( 0.0000000000000000000, 1.000000000000000000, 0.0000000000000000000 ) ) ;
#123 = AXIS2_PLACEMENT_3D ( 'NONE', #419, #90, #472 ) ;
#124 = LINE ( 'NONE', #53, #311 ) ;
#125 = CARTESIAN_POINT ( 'NONE',  ( 0.0000000000000000000, -0.07172462996186861100, 0.0000000000000000000 ) ) ;
#126 = ORIENTED_EDGE ( 'NONE', *, *, #41, .T. ) ;
#127 = ORIENTED_EDGE ( 'NONE', *, *, #150, .T. ) ;
#128 = ADVANCED_FACE ( 'NONE', ( #620 ), #21, .T. ) ;
#129 = DIRECTION ( 'NONE',  ( -0.0000000000000000000, -1.000000000000000000, -0.0000000000000000000 ) ) ;
#130 = STYLED_ITEM ( 'NONE', ( #619 ), #427 ) ;
#131 = DIRECTION ( 'NONE',  ( 0.0000000000000000000, 0.0000000000000000000, -1.000000000000000000 ) ) ;
#132 = FACE_OUTER_BOUND ( 'NONE', #326, .T. ) ;
#133 = ORIENTED_EDGE ( 'NONE', *, *, #637, .F. ) ;
#134 = ORIENTED_EDGE ( 'NONE', *, *, #637, .T. ) ;
#135 = CARTESIAN_POINT ( 'NONE',  ( 0.0000000000000000000, 0.1500000000000000500, 0.0000000000000000000 ) ) ;
#136 = ORIENTED_EDGE ( 'NONE', *, *, #29, .T. ) ;
#137 = ADVANCED_FACE ( 'NONE', ( #159 ), #480, .T. ) ;
#138 = EDGE_CURVE ( 'NONE', #153, #312, #372, .T. ) ;
#139 = DIRECTION ( 'NONE',  ( 0.0000000000000000000, -0.9659258262890699800, -0.2588190451025137500 ) ) ;
#140 = DIRECTION ( 'NONE',  ( -0.0000000000000000000, -1.000000000000000000, -0.0000000000000000000 ) ) ;
#141 = VECTOR ( 'NONE', #457, 39.37007874015748100 ) ;
#142 = CIRCLE ( 'NONE', #515, 0.02100000000000000500 ) ;
#143 = PRODUCT_DEFINITION ( 'UNKNOWN', '', #31, #79 ) ;
#144 = DIRECTION ( 'NONE',  ( 1.000000000000000000, 0.0000000000000000000, 0.0000000000000000000 ) ) ;
#145 = CIRCLE ( 'NONE', #179, 0.03500000000000000300 ) ;
#146 = EDGE_LOOP ( 'NONE', ( #474, #68, #198, #354 ) ) ;
#147 = ORIENTED_EDGE ( 'NONE', *, *, #160, .T. ) ;
#148 = AXIS2_PLACEMENT_3D ( 'NONE', #183, #332, #390 ) ;
#149 = DIRECTION ( 'NONE',  ( 0.0000000000000000000, 0.0000000000000000000, 1.000000000000000000 ) ) ;
#150 = EDGE_CURVE ( 'NONE', #608, #314, #424, .T. ) ;
#151 = VECTOR ( 'NONE', #162, 39.37007874015748100 ) ;
#152 = CARTESIAN_POINT ( 'NONE',  ( 0.0000000000000000000, 0.1125000000000000300, 0.0000000000000000000 ) ) ;
#153 = VERTEX_POINT ( 'NONE', #370 ) ;
#154 =( NAMED_UNIT ( * ) PLANE_ANGLE_UNIT ( ) SI_UNIT ( $, .RADIAN. ) );
#155 = EDGE_LOOP ( 'NONE', ( #400, #353, #48, #373 ) ) ;
#156 = ORIENTED_EDGE ( 'NONE', *, *, #623, .T. ) ;
#157 = AXIS2_PLACEMENT_3D ( 'NONE', #484, #173, #533 ) ;
#158 = CARTESIAN_POINT ( 'NONE',  ( 0.0000000000000000000, 0.09000000000000002400, 0.0000000000000000000 ) ) ;
#159 = FACE_OUTER_BOUND ( 'NONE', #391, .T. ) ;
#160 = EDGE_CURVE ( 'NONE', #242, #511, #700, .T. ) ;
#161 = EDGE_LOOP ( 'NONE', ( #712, #136, #504, #454 ) ) ;
#162 = DIRECTION ( 'NONE',  ( -0.0000000000000000000, -1.000000000000000000, -0.0000000000000000000 ) ) ;
#163 = EDGE_LOOP ( 'NONE', ( #292, #662 ) ) ;
#164 = DIRECTION ( 'NONE',  ( 0.0000000000000000000, 0.0000000000000000000, -1.000000000000000000 ) ) ;
#165 = DIRECTION ( 'NONE',  ( -0.0000000000000000000, -1.000000000000000000, -0.0000000000000000000 ) ) ;
#166 = CARTESIAN_POINT ( 'NONE',  ( -1.285879139104719800E-018, 0.2050000000000000700, 0.0000000000000000000 ) ) ;
#167 = CARTESIAN_POINT ( 'NONE',  ( 0.0000000000000000000, 0.004862696402752228800, 0.0000000000000000000 ) ) ;
#168 = FACE_OUTER_BOUND ( 'NONE', #320, .T. ) ;
#169 = VECTOR ( 'NONE', #357, 39.37007874015748100 ) ;
#170 = ORIENTED_EDGE ( 'NONE', *, *, #587, .T. ) ;
#171 = PRESENTATION_LAYER_ASSIGNMENT (  '', '', ( #130 ) ) ;
#172 = DIRECTION ( 'NONE',  ( -0.0000000000000000000, -1.000000000000000000, -0.0000000000000000000 ) ) ;
#173 = DIRECTION ( 'NONE',  ( -0.0000000000000000000, -1.000000000000000000, -0.0000000000000000000 ) ) ;
#174 = EDGE_CURVE ( 'NONE', #81, #107, #510, .T. ) ;
#175 = DIRECTION ( 'NONE',  ( -0.0000000000000000000, -0.0000000000000000000, -1.000000000000000000 ) ) ;
#176 = LENGTH_MEASURE_WITH_UNIT ( LENGTH_MEASURE( 0.02539999999999999900 ), #676 );
#177 = FILL_AREA_STYLE_COLOUR ( '', #502 ) ;
#178 = ORIENTED_EDGE ( 'NONE', *, *, #52, .T. ) ;
#179 = AXIS2_PLACEMENT_3D ( 'NONE', #208, #32, #701 ) ;
#180 =( NAMED_UNIT ( * ) PLANE_ANGLE_UNIT ( ) SI_UNIT ( $, .RADIAN. ) );
#181 = ADVANCED_FACE ( 'NONE', ( #281 ), #710, .T. ) ;
#182 = DIRECTION ( 'NONE',  ( 0.0000000000000000000, 0.0000000000000000000, 1.000000000000000000 ) ) ;
#183 = CARTESIAN_POINT ( 'NONE',  ( -0.02949999999999999800, 0.1100000000000000300, 0.0000000000000000000 ) ) ;
#184 = AXIS2_PLACEMENT_3D ( 'NONE', #531, #585, #593 ) ;
#185 = FILL_AREA_STYLE ('',( #177 ) ) ;
#186 = FACE_OUTER_BOUND ( 'NONE', #163, .T. ) ;
#187 = DIRECTION ( 'NONE',  ( 0.0000000000000000000, -0.0000000000000000000, 1.000000000000000000 ) ) ;
#188 = VERTEX_POINT ( 'NONE', #97 ) ;
#189 = ORIENTED_EDGE ( 'NONE', *, *, #294, .T. ) ;
#190 = EDGE_CURVE ( 'NONE', #107, #621, #461, .T. ) ;
#191 = DIRECTION ( 'NONE',  ( -0.0000000000000000000, -1.000000000000000000, -0.0000000000000000000 ) ) ;
#192 = CARTESIAN_POINT ( 'NONE',  ( 0.0000000000000000000, 0.1840000000000000800, -0.02100000000000000500 ) ) ;
#193 = ADVANCED_FACE ( 'NONE', ( #524 ), #246, .T. ) ;
#194 = AXIS2_PLACEMENT_3D ( 'NONE', #374, #646, #652 ) ;
#195 = FACE_OUTER_BOUND ( 'NONE', #568, .T. ) ;
#196 = LINE ( 'NONE', #574, #331 ) ;
#197 = CARTESIAN_POINT ( 'NONE',  ( 0.0000000000000000000, 0.0000000000000000000, 0.0000000000000000000 ) ) ;
#198 = ORIENTED_EDGE ( 'NONE', *, *, #112, .F. ) ;
#199 = AXIS2_PLACEMENT_3D ( 'NONE', #201, #249, #686 ) ;
#200 = CIRCLE ( 'NONE', #302, 0.02949999999999999800 ) ;
#201 = CARTESIAN_POINT ( 'NONE',  ( 0.0000000000000000000, 0.1840000000000000800, 0.0000000000000000000 ) ) ;
#202 = FACE_BOUND ( 'NONE', #702, .T. ) ;
#203 = ORIENTED_EDGE ( 'NONE', *, *, #469, .F. ) ;
#204 = ORIENTED_EDGE ( 'NONE', *, *, #623, .F. ) ;
#205 = AXIS2_PLACEMENT_3D ( 'NONE', #382, #442, #528 ) ;
#206 = DIRECTION ( 'NONE',  ( 0.0000000000000000000, 0.0000000000000000000, -1.000000000000000000 ) ) ;
#207 = EDGE_CURVE ( 'NONE', #312, #40, #5, .T. ) ;
#208 = CARTESIAN_POINT ( 'NONE',  ( 0.0000000000000000000, 0.08000000000000002900, 0.0000000000000000000 ) ) ;
#209 = FACE_OUTER_BOUND ( 'NONE', #161, .T. ) ;
#210 = DIRECTION ( 'NONE',  ( -0.0000000000000000000, -1.000000000000000000, -0.0000000000000000000 ) ) ;
#211 = CIRCLE ( 'NONE', #3, 0.02949999999999999800 ) ;
#212 = EDGE_LOOP ( 'NONE', ( #334, #704, #272, #213, #495 ) ) ;
#213 = ORIENTED_EDGE ( 'NONE', *, *, #437, .T. ) ;
#214 = DIRECTION ( 'NONE',  ( -0.0000000000000000000, -1.000000000000000000, -0.0000000000000000000 ) ) ;
#215 = AXIS2_PLACEMENT_3D ( 'NONE', #104, #165, #640 ) ;
#216 = LINE ( 'NONE', #387, #319 ) ;
#217 = AXIS2_PLACEMENT_3D ( 'NONE', #125, #234, #276 ) ;
#218 = CARTESIAN_POINT ( 'NONE',  ( 3.612708057484691700E-018, 0.09000000000000002400, 0.02949999999999999800 ) ) ;
#219 = EDGE_LOOP ( 'NONE', ( #493, #714 ) ) ;
#220 = EDGE_LOOP ( 'NONE', ( #203, #189, #204, #282 ) ) ;
#221 = EDGE_CURVE ( 'NONE', #70, #88, #145, .T. ) ;
#222 = CIRCLE ( 'NONE', #61, 0.02100000000000000500 ) ;
#223 = ORIENTED_EDGE ( 'NONE', *, *, #73, .T. ) ;
#224 = EDGE_LOOP ( 'NONE', ( #526, #241 ) ) ;
#225 = AXIS2_PLACEMENT_3D ( 'NONE', #305, #520, #573 ) ;
#226 = VERTEX_POINT ( 'NONE', #413 ) ;
#227 = CARTESIAN_POINT ( 'NONE',  ( 0.0000000000000000000, 0.1125000000000000300, -0.03200000000000000100 ) ) ;
#228 = ADVANCED_FACE ( 'NONE', ( #464 ), #229, .T. ) ;
#229 = SPHERICAL_SURFACE ( 'NONE', #365, 0.02099999999999998000 ) ;
#230 = ORIENTED_EDGE ( 'NONE', *, *, #174, .T. ) ;
#231 = CARTESIAN_POINT ( 'NONE',  ( 0.0000000000000000000, -0.07172462996186861100, -0.04250000000000001000 ) ) ;
#232 = ORIENTED_EDGE ( 'NONE', *, *, #479, .T. ) ;
#233 = CARTESIAN_POINT ( 'NONE',  ( 3.612708057484691700E-018, 0.1218301270189225000, 0.02949999999999999800 ) ) ;
#234 = DIRECTION ( 'NONE',  ( -0.0000000000000000000, -1.000000000000000000, -0.0000000000000000000 ) ) ;
#235 = CARTESIAN_POINT ( 'NONE',  ( 0.0000000000000000000, 0.1218301270189225000, 0.0000000000000000000 ) ) ;
#236 = ADVANCED_FACE ( 'NONE', ( #641 ), #404, .T. ) ;
#237 = AXIS2_PLACEMENT_3D ( 'NONE', #44, #678, #552 ) ;
#238 = CYLINDRICAL_SURFACE ( 'NONE', #485, 0.03200000000000000100 ) ;
#239 = VECTOR ( 'NONE', #63, 39.37007874015748100 ) ;
#240 = DIRECTION ( 'NONE',  ( -0.0000000000000000000, -1.000000000000000000, -0.0000000000000000000 ) ) ;
#241 = ORIENTED_EDGE ( 'NONE', *, *, #369, .T. ) ;
#242 = VERTEX_POINT ( 'NONE', #422 ) ;
#243 = DIRECTION ( 'NONE',  ( 0.0000000000000000000, 0.0000000000000000000, -1.000000000000000000 ) ) ;
#244 = AXIS2_PLACEMENT_3D ( 'NONE', #482, #706, #438 ) ;
#245 = LINE ( 'NONE', #384, #239 ) ;
#246 = CYLINDRICAL_SURFACE ( 'NONE', #341, 0.03200000000000000100 ) ;
#247 = EDGE_LOOP ( 'NONE', ( #363, #389, #22, #635 ) ) ;
#248 = AXIS2_PLACEMENT_3D ( 'NONE', #47, #175, #316 ) ;
#249 = DIRECTION ( 'NONE',  ( -0.0000000000000000000, -1.000000000000000000, -0.0000000000000000000 ) ) ;
#250 = EDGE_CURVE ( 'NONE', #621, #555, #38, .T. ) ;
#251 = DIRECTION ( 'NONE',  ( 0.0000000000000000000, 0.0000000000000000000, -1.000000000000000000 ) ) ;
#252 = ORIENTED_EDGE ( 'NONE', *, *, #328, .T. ) ;
#253 = DIRECTION ( 'NONE',  ( 0.0000000000000000000, 0.0000000000000000000, -1.000000000000000000 ) ) ;
#254 = VERTEX_POINT ( 'NONE', #426 ) ;
#255 = AXIS2_PLACEMENT_3D ( 'NONE', #43, #315, #703 ) ;
#256 = ADVANCED_BREP_SHAPE_REPRESENTATION ( '0926-1-15-20-75-14-11-0', ( #427, #99 ), #120 ) ;
#257 = EDGE_CURVE ( 'NONE', #535, #314, #561, .T. ) ;
#258 = CIRCLE ( 'NONE', #244, 0.02099999999999998000 ) ;
#259 = ORIENTED_EDGE ( 'NONE', *, *, #160, .F. ) ;
#260 = ORIENTED_EDGE ( 'NONE', *, *, #257, .F. ) ;
#261 = DIRECTION ( 'NONE',  ( -0.0000000000000000000, -1.000000000000000000, -0.0000000000000000000 ) ) ;
#262 = DIRECTION ( 'NONE',  ( -0.0000000000000000000, -1.000000000000000000, -0.0000000000000000000 ) ) ;
#263 = CIRCLE ( 'NONE', #237, 0.02100000000000000500 ) ;
#264 = FACE_OUTER_BOUND ( 'NONE', #155, .T. ) ;
#265 = AXIS2_PLACEMENT_3D ( 'NONE', #337, #122, #187 ) ;
#266 = VERTEX_POINT ( 'NONE', #101 ) ;
#267 = ORIENTED_EDGE ( 'NONE', *, *, #679, .T. ) ;
#268 = EDGE_CURVE ( 'NONE', #348, #378, #550, .T. ) ;
#269 = VECTOR ( 'NONE', #191, 39.37007874015748100 ) ;
#270 = CIRCLE ( 'NONE', #346, 0.03500000000000003100 ) ;
#271 = DIRECTION ( 'NONE',  ( -0.0000000000000000000, -1.000000000000000000, -0.0000000000000000000 ) ) ;
#272 = ORIENTED_EDGE ( 'NONE', *, *, #628, .T. ) ;
#273 = AXIS2_PLACEMENT_3D ( 'NONE', #113, #172, #376 ) ;
#274 =( CONVERSION_BASED_UNIT ( 'INCH', #440 ) LENGTH_UNIT ( ) NAMED_UNIT ( #118 ) );
#275 = CARTESIAN_POINT ( 'NONE',  ( 0.0000000000000000000, 0.1840000000000000800, 0.0000000000000000000 ) ) ;
#276 = DIRECTION ( 'NONE',  ( 0.0000000000000000000, 0.0000000000000000000, -1.000000000000000000 ) ) ;
#277 = MECHANICAL_DESIGN_GEOMETRIC_PRESENTATION_REPRESENTATION (  '', ( #130 ), #458 ) ;
#278 = CARTESIAN_POINT ( 'NONE',  ( 0.0000000000000000000, -0.07172462996186861100, -0.02949999999999999800 ) ) ;
#279 = ADVANCED_FACE ( 'NONE', ( #106 ), #411, .T. ) ;
#280 = FILL_AREA_STYLE ('',( #612 ) ) ;
#281 = FACE_OUTER_BOUND ( 'NONE', #212, .T. ) ;
#282 = ORIENTED_EDGE ( 'NONE', *, *, #628, .F. ) ;
#283 = EDGE_CURVE ( 'NONE', #417, #519, #596, .T. ) ;
#284 = ORIENTED_EDGE ( 'NONE', *, *, #584, .F. ) ;
#285 = ADVANCED_FACE ( 'NONE', ( #542 ), #325, .T. ) ;
#286 = EDGE_LOOP ( 'NONE', ( #408, #127 ) ) ;
#287 = AXIS2_PLACEMENT_3D ( 'NONE', #699, #262, #523 ) ;
#288 = CARTESIAN_POINT ( 'NONE',  ( 3.765788907378110500E-018, 0.1218301270189225000, 0.02949999999999999800 ) ) ;
#289 = CYLINDRICAL_SURFACE ( 'NONE', #217, 0.03500000000000001700 ) ;
#290 = DIRECTION ( 'NONE',  ( 0.0000000000000000000, 0.0000000000000000000, -1.000000000000000000 ) ) ;
#291 = LINE ( 'NONE', #233, #588 ) ;
#292 = ORIENTED_EDGE ( 'NONE', *, *, #479, .F. ) ;
#293 = VERTEX_POINT ( 'NONE', #166 ) ;
#294 = EDGE_CURVE ( 'NONE', #293, #444, #258, .T. ) ;
#295 = APPLICATION_PROTOCOL_DEFINITION ( 'draft international standard', 'automotive_design', 1998, #631 ) ;
#296 = DIRECTION ( 'NONE',  ( 0.0000000000000000000, 1.000000000000000000, 0.0000000000000000000 ) ) ;
#297 = PRESENTATION_STYLE_ASSIGNMENT (( #338 ) ) ;
#298 = CONICAL_SURFACE ( 'NONE', #654, 0.03500000000000003100, 0.7853981633974536100 ) ;
#299 = CARTESIAN_POINT ( 'NONE',  ( 0.0000000000000000000, 0.09000000000000002400, -0.02949999999999999800 ) ) ;
#300 = EDGE_LOOP ( 'NONE', ( #527, #25 ) ) ;
#301 = CARTESIAN_POINT ( 'NONE',  ( 0.0000000000000000000, 0.09000000000000002400, 0.0000000000000000000 ) ) ;
#302 = AXIS2_PLACEMENT_3D ( 'NONE', #451, #75, #560 ) ;
#303 = CARTESIAN_POINT ( 'NONE',  ( 0.0000000000000000000, 0.08000000000000002900, 0.0000000000000000000 ) ) ;
#304 =( NAMED_UNIT ( * ) SI_UNIT ( $, .STERADIAN. ) SOLID_ANGLE_UNIT ( ) );
#305 = CARTESIAN_POINT ( 'NONE',  ( 0.0000000000000000000, -0.07172462996186861100, 0.0000000000000000000 ) ) ;
#306 = EDGE_CURVE ( 'NONE', #153, #412, #85, .T. ) ;
#307 = CARTESIAN_POINT ( 'NONE',  ( 0.0000000000000000000, -0.07172462996186861100, 0.0000000000000000000 ) ) ;
#308 = LINE ( 'NONE', #398, #141 ) ;
#309 = CARTESIAN_POINT ( 'NONE',  ( 0.0000000000000000000, 0.1499999999999999900, -0.02100000000000000500 ) ) ;
#310 = CYLINDRICAL_SURFACE ( 'NONE', #109, 0.04250000000000001000 ) ;
#311 = VECTOR ( 'NONE', #261, 39.37007874015748100 ) ;
#312 = VERTEX_POINT ( 'NONE', #218 ) ;
#313 = CARTESIAN_POINT ( 'NONE',  ( 3.612708057484691700E-018, -0.07172462996186861100, 0.02949999999999999800 ) ) ;
#314 = VERTEX_POINT ( 'NONE', #644 ) ;
#315 = DIRECTION ( 'NONE',  ( -0.0000000000000000000, -1.000000000000000000, -0.0000000000000000000 ) ) ;
#316 = DIRECTION ( 'NONE',  ( -1.000000000000000000, 0.0000000000000000000, 0.0000000000000000000 ) ) ;
#317 = DIRECTION ( 'NONE',  ( 0.0000000000000000000, 0.0000000000000000000, -1.000000000000000000 ) ) ;
#318 = AXIS2_PLACEMENT_3D ( 'NONE', #98, #367, #42 ) ;
#319 = VECTOR ( 'NONE', #129, 39.37007874015748100 ) ;
#320 = EDGE_LOOP ( 'NONE', ( #362, #532, #462, #59 ) ) ;
#321 = ORIENTED_EDGE ( 'NONE', *, *, #666, .T. ) ;
#322 = EDGE_CURVE ( 'NONE', #412, #153, #682, .T. ) ;
#323 = CARTESIAN_POINT ( 'NONE',  ( 0.0000000000000000000, -0.07172462996186861100, 0.0000000000000000000 ) ) ;
#324 = CIRCLE ( 'NONE', #194, 0.02099999999999998000 ) ;
#325 = CYLINDRICAL_SURFACE ( 'NONE', #557, 0.04250000000000001000 ) ;
#326 = EDGE_LOOP ( 'NONE', ( #643, #178, #650, #399 ) ) ;
#327 = CARTESIAN_POINT ( 'NONE',  ( -0.02099999999999999400, 0.1840000000000000800, 0.0000000000000000000 ) ) ;
#328 = EDGE_CURVE ( 'NONE', #254, #608, #124, .T. ) ;
#329 = CARTESIAN_POINT ( 'NONE',  ( 0.02099999999999999400, 0.1840000000000000800, -2.571758278209440700E-018 ) ) ;
#330 = ADVANCED_FACE ( 'NONE', ( #67 ), #57, .T. ) ;
#331 = VECTOR ( 'NONE', #629, 39.37007874015748100 ) ;
#332 = DIRECTION ( 'NONE',  ( 0.0000000000000000000, 1.000000000000000000, 0.0000000000000000000 ) ) ;
#333 = ADVANCED_FACE ( 'NONE', ( #186, #352 ), #428, .F. ) ;
#334 = ORIENTED_EDGE ( 'NONE', *, *, #679, .F. ) ;
#335 = SURFACE_SIDE_STYLE ('',( #371 ) ) ;
#336 = ORIENTED_EDGE ( 'NONE', *, *, #708, .F. ) ;
#337 = CARTESIAN_POINT ( 'NONE',  ( 0.0000000000000000000, -1.845377619265071900E-018, 0.0000000000000000000 ) ) ;
#338 = SURFACE_STYLE_USAGE ( .BOTH. , #668 ) ;
#339 = ADVANCED_FACE ( 'NONE', ( #168 ), #298, .T. ) ;
#340 = CARTESIAN_POINT ( 'NONE',  ( 5.204748896376251900E-018, -0.07172462996186861100, 0.04250000000000001000 ) ) ;
#341 = AXIS2_PLACEMENT_3D ( 'NONE', #476, #578, #253 ) ;
#342 = DIRECTION ( 'NONE',  ( 0.0000000000000000000, 0.0000000000000000000, -1.000000000000000000 ) ) ;
#343 = FACE_OUTER_BOUND ( 'NONE', #481, .T. ) ;
#344 = FACE_OUTER_BOUND ( 'NONE', #16, .T. ) ;
#345 = FACE_OUTER_BOUND ( 'NONE', #663, .T. ) ;
#346 = AXIS2_PLACEMENT_3D ( 'NONE', #100, #214, #317 ) ;
#347 = PRODUCT_DEFINITION_SHAPE ( 'NONE', 'NONE',  #143 ) ;
#348 = VERTEX_POINT ( 'NONE', #595 ) ;
#349 = CARTESIAN_POINT ( 'NONE',  ( 0.0000000000000000000, 0.1218301270189225000, -0.02949999999999999800 ) ) ;
#350 = ORIENTED_EDGE ( 'NONE', *, *, #571, .F. ) ;
#351 = CIRCLE ( 'NONE', #205, 0.02100000000000000500 ) ;
#352 = FACE_BOUND ( 'NONE', #219, .T. ) ;
#353 = ORIENTED_EDGE ( 'NONE', *, *, #587, .F. ) ;
#354 = ORIENTED_EDGE ( 'NONE', *, *, #358, .F. ) ;
#355 = AXIS2_PLACEMENT_3D ( 'NONE', #9, #541, #494 ) ;
#356 = PRODUCT_CONTEXT ( 'NONE', #24, 'mechanical' ) ;
#357 = DIRECTION ( 'NONE',  ( 8.659560562354978500E-017, 0.7071067811865438000, -0.7071067811865512400 ) ) ;
#358 = EDGE_CURVE ( 'NONE', #70, #555, #216, .T. ) ;
#359 = CONICAL_SURFACE ( 'NONE', #675, 0.02759266358974379500, 0.7853981633974460600 ) ;
#360 = FACE_OUTER_BOUND ( 'NONE', #82, .T. ) ;
#361 = DIRECTION ( 'NONE',  ( -0.0000000000000000000, -1.000000000000000000, -0.0000000000000000000 ) ) ;
#362 = ORIENTED_EDGE ( 'NONE', *, *, #174, .F. ) ;
#363 = ORIENTED_EDGE ( 'NONE', *, *, #597, .T. ) ;
#364 = CARTESIAN_POINT ( 'NONE',  ( 0.0000000000000000000, -0.07172462996186861100, 0.0000000000000000000 ) ) ;
#365 = AXIS2_PLACEMENT_3D ( 'NONE', #477, #696, #633 ) ;
#366 = CARTESIAN_POINT ( 'NONE',  ( 4.286263797015736700E-018, 0.08000000000000002900, 0.03500000000000000300 ) ) ;
#367 = DIRECTION ( 'NONE',  ( -0.0000000000000000000, -1.000000000000000000, -0.0000000000000000000 ) ) ;
#368 = DIRECTION ( 'NONE',  ( -0.0000000000000000000, -1.000000000000000000, -0.0000000000000000000 ) ) ;
#369 = EDGE_CURVE ( 'NONE', #188, #49, #441, .T. ) ;
#370 = CARTESIAN_POINT ( 'NONE',  ( 3.612708057484691700E-018, 0.1100000000000000300, 0.02949999999999999800 ) ) ;
#371 = SURFACE_STYLE_FILL_AREA ( #185 ) ;
#372 = LINE ( 'NONE', #313, #579 ) ;
#373 = ORIENTED_EDGE ( 'NONE', *, *, #250, .T. ) ;
#374 = CARTESIAN_POINT ( 'NONE',  ( 0.0000000000000000000, 0.1840000000000000800, 0.0000000000000000000 ) ) ;
#375 = AXIS2_PLACEMENT_3D ( 'NONE', #525, #576, #164 ) ;
#376 = DIRECTION ( 'NONE',  ( 0.0000000000000000000, 0.0000000000000000000, -1.000000000000000000 ) ) ;
#377 = LINE ( 'NONE', #392, #36 ) ;
#378 = VERTEX_POINT ( 'NONE', #62 ) ;
#379 = ORIENTED_EDGE ( 'NONE', *, *, #268, .F. ) ;
#380 = DIRECTION ( 'NONE',  ( 0.0000000000000000000, 0.0000000000000000000, -1.000000000000000000 ) ) ;
#381 = AXIS2_PLACEMENT_3D ( 'NONE', #409, #296, #513 ) ;
#382 = CARTESIAN_POINT ( 'NONE',  ( 0.0000000000000000000, 0.1499999999999999900, 0.0000000000000000000 ) ) ;
#383 = CARTESIAN_POINT ( 'NONE',  ( 0.0000000000000000000, -0.07172462996186861100, 0.0000000000000000000 ) ) ;
#384 = CARTESIAN_POINT ( 'NONE',  ( 3.379126714512945100E-018, 0.1500000000000000500, 0.02759266358974379500 ) ) ;
#385 = CYLINDRICAL_SURFACE ( 'NONE', #89, 0.02949999999999999800 ) ;
#386 = PRODUCT_RELATED_PRODUCT_CATEGORY ( 'part', '', ( #575 ) ) ;
#387 = CARTESIAN_POINT ( 'NONE',  ( 0.0000000000000000000, -0.07172462996186861100, -0.03500000000000001700 ) ) ;
#388 = CIRCLE ( 'NONE', #199, 0.02100000000000000500 ) ;
#389 = ORIENTED_EDGE ( 'NONE', *, *, #546, .T. ) ;
#390 = DIRECTION ( 'NONE',  ( 0.0000000000000000000, -0.0000000000000000000, 1.000000000000000000 ) ) ;
#391 = EDGE_LOOP ( 'NONE', ( #517, #651, #488, #467 ) ) ;
#392 = CARTESIAN_POINT ( 'NONE',  ( 0.0000000000000000000, -0.07172462996186861100, -0.02949999999999999800 ) ) ;
#393 = CARTESIAN_POINT ( 'NONE',  ( 0.0000000000000000000, -0.07172462996186861100, -0.02100000000000000500 ) ) ;
#394 = DIRECTION ( 'NONE',  ( -0.0000000000000000000, -1.000000000000000000, -0.0000000000000000000 ) ) ;
#395 = CARTESIAN_POINT ( 'NONE',  ( 0.0000000000000000000, 0.1480926635897438200, 0.0000000000000000000 ) ) ;
#396 = EDGE_CURVE ( 'NONE', #88, #621, #452, .T. ) ;
#397 = DIRECTION ( 'NONE',  ( -0.0000000000000000000, -1.000000000000000000, -0.0000000000000000000 ) ) ;
#398 = CARTESIAN_POINT ( 'NONE',  ( 2.571758278209441800E-018, -0.07172462996186861100, 0.02100000000000000500 ) ) ;
#399 = ORIENTED_EDGE ( 'NONE', *, *, #250, .F. ) ;
#400 = ORIENTED_EDGE ( 'NONE', *, *, #19, .F. ) ;
#401 = ORIENTED_EDGE ( 'NONE', *, *, #294, .F. ) ;
#402 = DIRECTION ( 'NONE',  ( 0.0000000000000000000, 0.0000000000000000000, -1.000000000000000000 ) ) ;
#403 = LINE ( 'NONE', #231, #103 ) ;
#404 = CYLINDRICAL_SURFACE ( 'NONE', #225, 0.02949999999999999800 ) ;
#405 = EDGE_CURVE ( 'NONE', #511, #254, #291, .T. ) ;
#406 = DIRECTION ( 'NONE',  ( 0.0000000000000000000, 0.0000000000000000000, -1.000000000000000000 ) ) ;
#407 = ORIENTED_EDGE ( 'NONE', *, *, #559, .T. ) ;
#408 = ORIENTED_EDGE ( 'NONE', *, *, #708, .T. ) ;
#409 = CARTESIAN_POINT ( 'NONE',  ( -0.03500000000000000300, 0.08000000000000002900, 0.0000000000000000000 ) ) ;
#410 = CARTESIAN_POINT ( 'NONE',  ( 0.0000000000000000000, 0.1125000000000000300, 0.0000000000000000000 ) ) ;
#411 = CYLINDRICAL_SURFACE ( 'NONE', #645, 0.02949999999999999800 ) ;
#412 = VERTEX_POINT ( 'NONE', #653 ) ;
#413 = CARTESIAN_POINT ( 'NONE',  ( 0.0000000000000000000, 0.1480926635897438200, -0.02949999999999999800 ) ) ;
#414 = EDGE_LOOP ( 'NONE', ( #223, #252, #336, #260 ) ) ;
#415 = AXIS2_PLACEMENT_3D ( 'NONE', #235, #20, #402 ) ;
#416 = DIRECTION ( 'NONE',  ( -0.0000000000000000000, -1.000000000000000000, -0.0000000000000000000 ) ) ;
#417 = VERTEX_POINT ( 'NONE', #537 ) ;
#418 = DIRECTION ( 'NONE',  ( -0.0000000000000000000, -1.000000000000000000, -0.0000000000000000000 ) ) ;
#419 = CARTESIAN_POINT ( 'NONE',  ( -0.02759266358974379500, 0.1500000000000000200, 0.0000000000000000000 ) ) ;
#420 = EDGE_CURVE ( 'NONE', #412, #40, #56, .T. ) ;
#421 = DIRECTION ( 'NONE',  ( 0.0000000000000000000, 0.0000000000000000000, -1.000000000000000000 ) ) ;
#422 = CARTESIAN_POINT ( 'NONE',  ( 3.612708057484691700E-018, 0.1480926635897438200, 0.02949999999999999800 ) ) ;
#423 = LINE ( 'NONE', #340, #269 ) ;
#424 = CIRCLE ( 'NONE', #287, 0.03200000000000000100 ) ;
#425 = ORIENTED_EDGE ( 'NONE', *, *, #460, .F. ) ;
#426 = CARTESIAN_POINT ( 'NONE',  ( 3.918869757271530800E-018, 0.1125000000000000300, 0.03200000000000000100 ) ) ;
#427 = MANIFOLD_SOLID_BREP ( 'Revolve1', #591 ) ;
#428 = PLANE ( 'NONE',  #439 ) ;
#429 = CARTESIAN_POINT ( 'NONE',  ( 0.0000000000000000000, -0.07172462996186861100, 0.0000000000000000000 ) ) ;
#430 = AXIS2_PLACEMENT_3D ( 'NONE', #301, #418, #95 ) ;
#431 = CONICAL_SURFACE ( 'NONE', #715, 0.02759266358974379500, 0.7853981633974460600 ) ;
#432 = DIRECTION ( 'NONE',  ( -0.0000000000000000000, -1.000000000000000000, -0.0000000000000000000 ) ) ;
#433 = CIRCLE ( 'NONE', #647, 0.03500000000000000300 ) ;
#434 = ORIENTED_EDGE ( 'NONE', *, *, #420, .T. ) ;
#435 = ORIENTED_EDGE ( 'NONE', *, *, #73, .F. ) ;
#436 = ORIENTED_EDGE ( 'NONE', *, *, #221, .F. ) ;
#437 = EDGE_CURVE ( 'NONE', #711, #49, #115, .T. ) ;
#438 = DIRECTION ( 'NONE',  ( -1.000000000000000000, 0.0000000000000000000, 1.224646799147353200E-016 ) ) ;
#439 = AXIS2_PLACEMENT_3D ( 'NONE', #110, #530, #589 ) ;
#440 = LENGTH_MEASURE_WITH_UNIT ( LENGTH_MEASURE( 0.02539999999999999900 ), #598 );
#441 = CIRCLE ( 'NONE', #355, 0.02100000000000000500 ) ;
#442 = DIRECTION ( 'NONE',  ( -0.0000000000000000000, -1.000000000000000000, -0.0000000000000000000 ) ) ;
#443 = VERTEX_POINT ( 'NONE', #655 ) ;
#444 = VERTEX_POINT ( 'NONE', #329 ) ;
#445 = ADVANCED_FACE ( 'NONE', ( #264 ), #66, .T. ) ;
#446 = DIRECTION ( 'NONE',  ( -0.0000000000000000000, -1.000000000000000000, -0.0000000000000000000 ) ) ;
#447 = AXIS2_PLACEMENT_3D ( 'NONE', #410, #468, #206 ) ;
#448 = DIRECTION ( 'NONE',  ( -0.0000000000000000000, -1.000000000000000000, -0.0000000000000000000 ) ) ;
#449 = ADVANCED_FACE ( 'NONE', ( #78 ), #540, .T. ) ;
#450 = DIRECTION ( 'NONE',  ( -0.0000000000000000000, -1.000000000000000000, -0.0000000000000000000 ) ) ;
#451 = CARTESIAN_POINT ( 'NONE',  ( 0.0000000000000000000, 0.1218301270189225000, 0.0000000000000000000 ) ) ;
#452 = LINE ( 'NONE', #490, #12 ) ;
#453 = ADVANCED_FACE ( 'NONE', ( #509 ), #491, .T. ) ;
#454 = ORIENTED_EDGE ( 'NONE', *, *, #150, .F. ) ;
#455 = PLANE ( 'NONE',  #265 ) ;
#456 = ORIENTED_EDGE ( 'NONE', *, *, #571, .T. ) ;
#457 = DIRECTION ( 'NONE',  ( -0.0000000000000000000, -1.000000000000000000, -0.0000000000000000000 ) ) ;
#458 =( GEOMETRIC_REPRESENTATION_CONTEXT ( 3 ) GLOBAL_UNCERTAINTY_ASSIGNED_CONTEXT ( ( #105 ) ) GLOBAL_UNIT_ASSIGNED_CONTEXT ( ( #274, #180, #658 ) ) REPRESENTATION_CONTEXT ( 'NONE', 'WORKASPACE' ) );
#459 = DIRECTION ( 'NONE',  ( -0.0000000000000000000, -1.000000000000000000, -0.0000000000000000000 ) ) ;
#460 = EDGE_CURVE ( 'NONE', #7, #570, #681, .T. ) ;
#461 = LINE ( 'NONE', #707, #46 ) ;
#462 = ORIENTED_EDGE ( 'NONE', *, *, #112, .T. ) ;
#463 = EDGE_LOOP ( 'NONE', ( #580, #147, #117, #691 ) ) ;
#464 = FACE_OUTER_BOUND ( 'NONE', #220, .T. ) ;
#465 = AXIS2_PLACEMENT_3D ( 'NONE', #582, #649, #713 ) ;
#466 = EDGE_LOOP ( 'NONE', ( #259, #126, #407, #133 ) ) ;
#467 = ORIENTED_EDGE ( 'NONE', *, *, #420, .F. ) ;
#468 = DIRECTION ( 'NONE',  ( -0.0000000000000000000, -1.000000000000000000, -0.0000000000000000000 ) ) ;
#469 = EDGE_CURVE ( 'NONE', #293, #554, #324, .T. ) ;
#470 = DIRECTION ( 'NONE',  ( 0.0000000000000000000, 0.0000000000000000000, -1.000000000000000000 ) ) ;
#471 = SHAPE_DEFINITION_REPRESENTATION ( #347, #256 ) ;
#472 = DIRECTION ( 'NONE',  ( 0.0000000000000000000, 0.0000000000000000000, -1.000000000000000000 ) ) ;
#473 = FACE_BOUND ( 'NONE', #224, .T. ) ;
#474 = ORIENTED_EDGE ( 'NONE', *, *, #221, .T. ) ;
#475 = PRESENTATION_LAYER_ASSIGNMENT (  '', '', ( #536 ) ) ;
#476 = CARTESIAN_POINT ( 'NONE',  ( 0.0000000000000000000, -0.07172462996186861100, 0.0000000000000000000 ) ) ;
#477 = CARTESIAN_POINT ( 'NONE',  ( 0.0000000000000000000, 0.1840000000000000800, 0.0000000000000000000 ) ) ;
#478 = CARTESIAN_POINT ( 'NONE',  ( 3.612708057484691700E-018, -0.07172462996186861100, 0.02949999999999999800 ) ) ;
#479 = EDGE_CURVE ( 'NONE', #519, #417, #639, .T. ) ;
#480 = CYLINDRICAL_SURFACE ( 'NONE', #529, 0.02949999999999999800 ) ;
#481 = EDGE_LOOP ( 'NONE', ( #96, #543, #116, #39 ) ) ;
#482 = CARTESIAN_POINT ( 'NONE',  ( 0.0000000000000000000, 0.1840000000000000800, 0.0000000000000000000 ) ) ;
#483 = CARTESIAN_POINT ( 'NONE',  ( 0.0000000000000000000, -0.07172462996186861100, 0.0000000000000000000 ) ) ;
#484 = CARTESIAN_POINT ( 'NONE',  ( 0.0000000000000000000, 0.08000000000000002900, 0.0000000000000000000 ) ) ;
#485 = AXIS2_PLACEMENT_3D ( 'NONE', #613, #394, #64 ) ;
#486 = SURFACE_STYLE_FILL_AREA ( #280 ) ;
#487 = FACE_OUTER_BOUND ( 'NONE', #581, .T. ) ;
#488 = ORIENTED_EDGE ( 'NONE', *, *, #26, .F. ) ;
#489 = ORIENTED_EDGE ( 'NONE', *, *, #666, .F. ) ;
#490 = CARTESIAN_POINT ( 'NONE',  ( 4.286263797015738300E-018, -0.07172462996186861100, 0.03500000000000001700 ) ) ;
#491 = CONICAL_SURFACE ( 'NONE', #496, 0.02949999999999999800, 0.2617993877991421400 ) ;
#492 = VECTOR ( 'NONE', #690, 39.37007874015748100 ) ;
#493 = ORIENTED_EDGE ( 'NONE', *, *, #26, .T. ) ;
#494 = DIRECTION ( 'NONE',  ( 0.0000000000000000000, 0.0000000000000000000, -1.000000000000000000 ) ) ;
#495 = ORIENTED_EDGE ( 'NONE', *, *, #369, .F. ) ;
#496 = AXIS2_PLACEMENT_3D ( 'NONE', #501, #615, #670 ) ;
#497 = CARTESIAN_POINT ( 'NONE',  ( 0.0000000000000000000, -0.07172462996186861100, 0.0000000000000000000 ) ) ;
#498 = ADVANCED_FACE ( 'NONE', ( #195 ), #310, .T. ) ;
#499 = AXIS2_PLACEMENT_3D ( 'NONE', #158, #416, #563 ) ;
#500 = LENGTH_MEASURE_WITH_UNIT ( LENGTH_MEASURE( 0.02539999999999999900 ), #15 );
#501 = CARTESIAN_POINT ( 'NONE',  ( 0.0000000000000000000, 0.1218301270189225000, 0.0000000000000000000 ) ) ;
#502 = COLOUR_RGB ( '',0.9686274509803921600, 0.8784313725490196000, 0.5999999999999999800 ) ;
#503 = EDGE_LOOP ( 'NONE', ( #401, #674, #284, #87 ) ) ;
#504 = ORIENTED_EDGE ( 'NONE', *, *, #257, .T. ) ;
#505 = CARTESIAN_POINT ( 'NONE',  ( 0.0000000000000000000, 0.1500000000000000500, 0.0000000000000000000 ) ) ;
#506 = MECHANICAL_DESIGN_GEOMETRIC_PRESENTATION_REPRESENTATION (  '', ( #536 ), #697 ) ;
#507 = DIRECTION ( 'NONE',  ( -0.0000000000000000000, -1.000000000000000000, -0.0000000000000000000 ) ) ;
#508 = EDGE_CURVE ( 'NONE', #49, #188, #351, .T. ) ;
#509 = FACE_OUTER_BOUND ( 'NONE', #562, .T. ) ;
#510 = CIRCLE ( 'NONE', #215, 0.03013730359724774800 ) ;
#511 = VERTEX_POINT ( 'NONE', #288 ) ;
#512 = DIRECTION ( 'NONE',  ( -0.0000000000000000000, -1.000000000000000000, -0.0000000000000000000 ) ) ;
#513 = DIRECTION ( 'NONE',  ( 0.0000000000000000000, -0.0000000000000000000, 1.000000000000000000 ) ) ;
#514 = FACE_OUTER_BOUND ( 'NONE', #286, .T. ) ;
#515 = AXIS2_PLACEMENT_3D ( 'NONE', #603, #539, #406 ) ;
#516 = CARTESIAN_POINT ( 'NONE',  ( 0.0000000000000000000, 0.1480926635897438200, 0.0000000000000000000 ) ) ;
#517 = ORIENTED_EDGE ( 'NONE', *, *, #322, .T. ) ;
#518 = ORIENTED_EDGE ( 'NONE', *, *, #616, .T. ) ;
#519 = VERTEX_POINT ( 'NONE', #58 ) ;
#520 = DIRECTION ( 'NONE',  ( -0.0000000000000000000, -1.000000000000000000, -0.0000000000000000000 ) ) ;
#521 = EDGE_CURVE ( 'NONE', #378, #348, #577, .T. ) ;
#522 = ADVANCED_FACE ( 'NONE', ( #344 ), #648, .T. ) ;
#523 = DIRECTION ( 'NONE',  ( 0.0000000000000000000, 0.0000000000000000000, -1.000000000000000000 ) ) ;
#524 = FACE_OUTER_BOUND ( 'NONE', #414, .T. ) ;
#525 = CARTESIAN_POINT ( 'NONE',  ( 0.0000000000000000000, 0.08000000000000002900, 0.0000000000000000000 ) ) ;
#526 = ORIENTED_EDGE ( 'NONE', *, *, #508, .T. ) ;
#527 = ORIENTED_EDGE ( 'NONE', *, *, #521, .T. ) ;
#528 = DIRECTION ( 'NONE',  ( 0.0000000000000000000, 0.0000000000000000000, -1.000000000000000000 ) ) ;
#529 = AXIS2_PLACEMENT_3D ( 'NONE', #429, #583, #421 ) ;
#530 = DIRECTION ( 'NONE',  ( 0.0000000000000000000, -1.000000000000000000, -0.0000000000000000000 ) ) ;
#531 = CARTESIAN_POINT ( 'NONE',  ( 0.0000000000000000000, 0.1100000000000000300, 0.0000000000000000000 ) ) ;
#532 = ORIENTED_EDGE ( 'NONE', *, *, #19, .T. ) ;
#533 = DIRECTION ( 'NONE',  ( 0.0000000000000000000, 0.0000000000000000000, -1.000000000000000000 ) ) ;
#534 = AXIS2_PLACEMENT_3D ( 'NONE', #152, #210, #470 ) ;
#535 = VERTEX_POINT ( 'NONE', #227 ) ;
#536 = STYLED_ITEM ( 'NONE', ( #297 ), #256 ) ;
#537 = CARTESIAN_POINT ( 'NONE',  ( 5.204748896376251900E-018, 0.09000000000000002400, 0.04250000000000001000 ) ) ;
#538 = ADVANCED_FACE ( 'NONE', ( #132 ), #289, .T. ) ;
#539 = DIRECTION ( 'NONE',  ( -0.0000000000000000000, -1.000000000000000000, -0.0000000000000000000 ) ) ;
#540 = CYLINDRICAL_SURFACE ( 'NONE', #564, 0.03500000000000001700 ) ;
#541 = DIRECTION ( 'NONE',  ( -0.0000000000000000000, -1.000000000000000000, -0.0000000000000000000 ) ) ;
#542 = FACE_OUTER_BOUND ( 'NONE', #622, .T. ) ;
#543 = ORIENTED_EDGE ( 'NONE', *, *, #460, .T. ) ;
#544 = DIRECTION ( 'NONE',  ( 0.0000000000000000000, 0.0000000000000000000, -1.000000000000000000 ) ) ;
#545 = ORIENTED_EDGE ( 'NONE', *, *, #138, .F. ) ;
#546 = EDGE_CURVE ( 'NONE', #7, #242, #245, .T. ) ;
#547 = DIRECTION ( 'NONE',  ( -0.0000000000000000000, -1.000000000000000000, -0.0000000000000000000 ) ) ;
#548 = DIRECTION ( 'NONE',  ( 0.0000000000000000000, 0.0000000000000000000, -1.000000000000000000 ) ) ;
#549 = APPLICATION_PROTOCOL_DEFINITION ( 'draft international standard', 'automotive_design', 1998, #24 ) ;
#550 = CIRCLE ( 'NONE', #375, 0.04249999999999999600 ) ;
#551 = DIRECTION ( 'NONE',  ( 0.0000000000000000000, 0.0000000000000000000, -1.000000000000000000 ) ) ;
#552 = DIRECTION ( 'NONE',  ( 0.0000000000000000000, 0.0000000000000000000, -1.000000000000000000 ) ) ;
#553 = ADVANCED_FACE ( 'NONE', ( #671, #514 ), #664, .F. ) ;
#554 = VERTEX_POINT ( 'NONE', #327 ) ;
#555 = VERTEX_POINT ( 'NONE', #10 ) ;
#556 = ORIENTED_EDGE ( 'NONE', *, *, #306, .T. ) ;
#557 = AXIS2_PLACEMENT_3D ( 'NONE', #364, #35, #638 ) ;
#558 =( NAMED_UNIT ( * ) SI_UNIT ( $, .STERADIAN. ) SOLID_ANGLE_UNIT ( ) );
#559 = EDGE_CURVE ( 'NONE', #226, #266, #377, .T. ) ;
#560 = DIRECTION ( 'NONE',  ( 0.0000000000000000000, 0.0000000000000000000, -1.000000000000000000 ) ) ;
#561 = LINE ( 'NONE', #694, #492 ) ;
#562 = EDGE_LOOP ( 'NONE', ( #692, #134, #321, #28 ) ) ;
#563 = DIRECTION ( 'NONE',  ( 0.0000000000000000000, 0.0000000000000000000, -1.000000000000000000 ) ) ;
#564 = AXIS2_PLACEMENT_3D ( 'NONE', #383, #450, #601 ) ;
#565 = CIRCLE ( 'NONE', #447, 0.03200000000000000100 ) ;
#566 = EDGE_LOOP ( 'NONE', ( #683, #6, #435, #489 ) ) ;
#567 = DIRECTION ( 'NONE',  ( -0.0000000000000000000, -1.000000000000000000, -0.0000000000000000000 ) ) ;
#568 = EDGE_LOOP ( 'NONE', ( #232, #456, #636, #93 ) ) ;
#569 = CARTESIAN_POINT ( 'NONE',  ( 0.0000000000000000000, 0.08000000000000002900, -0.03500000000000000300 ) ) ;
#570 = VERTEX_POINT ( 'NONE', #69 ) ;
#571 = EDGE_CURVE ( 'NONE', #417, #348, #423, .T. ) ;
#572 = CARTESIAN_POINT ( 'NONE',  ( 4.286263797015739800E-018, 0.004862696402752228800, -0.03500000000000003100 ) ) ;
#573 = DIRECTION ( 'NONE',  ( 0.0000000000000000000, 0.0000000000000000000, -1.000000000000000000 ) ) ;
#574 = CARTESIAN_POINT ( 'NONE',  ( 0.0000000000000000000, 0.1500000000000000500, -0.02759266358974379500 ) ) ;
#575 = PRODUCT ( '0926-1-15-20-75-14-11-0', '0926-1-15-20-75-14-11-0', '', ( #356 ) ) ;
#576 = DIRECTION ( 'NONE',  ( -0.0000000000000000000, -1.000000000000000000, -0.0000000000000000000 ) ) ;
#577 = CIRCLE ( 'NONE', #157, 0.04249999999999999600 ) ;
#578 = DIRECTION ( 'NONE',  ( -0.0000000000000000000, -1.000000000000000000, -0.0000000000000000000 ) ) ;
#579 = VECTOR ( 'NONE', #368, 39.37007874015748100 ) ;
#580 = ORIENTED_EDGE ( 'NONE', *, *, #705, .T. ) ;
#581 = EDGE_LOOP ( 'NONE', ( #545, #556, #434, #626 ) ) ;
#582 = CARTESIAN_POINT ( 'NONE',  ( 0.0000000000000000000, 0.09000000000000002400, 0.0000000000000000000 ) ) ;
#583 = DIRECTION ( 'NONE',  ( -0.0000000000000000000, -1.000000000000000000, -0.0000000000000000000 ) ) ;
#584 = EDGE_CURVE ( 'NONE', #443, #554, #222, .T. ) ;
#585 = DIRECTION ( 'NONE',  ( -0.0000000000000000000, -1.000000000000000000, -0.0000000000000000000 ) ) ;
#586 = CIRCLE ( 'NONE', #415, 0.02949999999999999800 ) ;
#587 = EDGE_CURVE ( 'NONE', #107, #81, #92, .T. ) ;
#588 = VECTOR ( 'NONE', #606, 39.37007874015748900 ) ;
#589 = DIRECTION ( 'NONE',  ( 0.0000000000000000000, 0.0000000000000000000, -1.000000000000000000 ) ) ;
#590 = ORIENTED_EDGE ( 'NONE', *, *, #322, .F. ) ;
#591 = CLOSED_SHELL ( 'NONE', ( #228, #522, #677, #236, #128, #193, #137, #498, #449, #339, #605, #445, #538, #71, #285, #333, #602, #553, #618, #453, #279, #672, #54, #181, #330 ) ) ;
#592 = DIRECTION ( 'NONE',  ( 0.0000000000000000000, 0.0000000000000000000, -1.000000000000000000 ) ) ;
#593 = DIRECTION ( 'NONE',  ( 0.0000000000000000000, 0.0000000000000000000, -1.000000000000000000 ) ) ;
#594 = AXIS2_PLACEMENT_3D ( 'NONE', #483, #432, #657 ) ;
#595 = CARTESIAN_POINT ( 'NONE',  ( 5.204748896376251200E-018, 0.08000000000000002900, 0.04249999999999999600 ) ) ;
#596 = CIRCLE ( 'NONE', #465, 0.04250000000000001000 ) ;
#597 = EDGE_CURVE ( 'NONE', #570, #7, #634, .T. ) ;
#598 =( LENGTH_UNIT ( ) NAMED_UNIT ( * ) SI_UNIT ( $, .METRE. ) );
#599 = ORIENTED_EDGE ( 'NONE', *, *, #508, .F. ) ;
#600 = DIRECTION ( 'NONE',  ( -0.0000000000000000000, -1.000000000000000000, -0.0000000000000000000 ) ) ;
#601 = DIRECTION ( 'NONE',  ( 0.0000000000000000000, 0.0000000000000000000, -1.000000000000000000 ) ) ;
#602 = ADVANCED_FACE ( 'NONE', ( #487 ), #385, .T. ) ;
#603 = CARTESIAN_POINT ( 'NONE',  ( 0.0000000000000000000, 0.1840000000000000800, 0.0000000000000000000 ) ) ;
#604 = FACE_OUTER_BOUND ( 'NONE', #247, .T. ) ;
#605 = ADVANCED_FACE ( 'NONE', ( #360 ), #455, .F. ) ;
#606 = DIRECTION ( 'NONE',  ( 3.169619151431679300E-017, -0.9659258262890699800, 0.2588190451025137500 ) ) ;
#607 = FACE_OUTER_BOUND ( 'NONE', #300, .T. ) ;
#608 = VERTEX_POINT ( 'NONE', #13 ) ;
#609 = DIRECTION ( 'NONE',  ( -0.0000000000000000000, -1.000000000000000000, -0.0000000000000000000 ) ) ;
#610 = ORIENTED_EDGE ( 'NONE', *, *, #283, .T. ) ;
#611 = AXIS2_PLACEMENT_3D ( 'NONE', #11, #72, #121 ) ;
#612 = FILL_AREA_STYLE_COLOUR ( '', #55 ) ;
#613 = CARTESIAN_POINT ( 'NONE',  ( 0.0000000000000000000, -0.07172462996186861100, 0.0000000000000000000 ) ) ;
#614 = CARTESIAN_POINT ( 'NONE',  ( 0.0000000000000000000, 0.1500000000000000500, 0.0000000000000000000 ) ) ;
#615 = DIRECTION ( 'NONE',  ( -0.0000000000000000000, -1.000000000000000000, -0.0000000000000000000 ) ) ;
#616 = EDGE_CURVE ( 'NONE', #519, #378, #403, .T. ) ;
#617 = CARTESIAN_POINT ( 'NONE',  ( 0.0000000000000000000, 0.1100000000000000300, 0.0000000000000000000 ) ) ;
#618 = ADVANCED_FACE ( 'NONE', ( #209 ), #238, .T. ) ;
#619 = PRESENTATION_STYLE_ASSIGNMENT (( #665 ) ) ;
#620 = FACE_OUTER_BOUND ( 'NONE', #566, .T. ) ;
#621 = VERTEX_POINT ( 'NONE', #74 ) ;
#622 = EDGE_LOOP ( 'NONE', ( #350, #610, #518, #379 ) ) ;
#623 = EDGE_CURVE ( 'NONE', #711, #444, #142, .T. ) ;
#624 = VECTOR ( 'NONE', #8, 39.37007874015748100 ) ;
#625 = CIRCLE ( 'NONE', #499, 0.02949999999999999800 ) ;
#626 = ORIENTED_EDGE ( 'NONE', *, *, #207, .F. ) ;
#627 = ORIENTED_EDGE ( 'NONE', *, *, #94, .T. ) ;
#628 = EDGE_CURVE ( 'NONE', #554, #711, #263, .T. ) ;
#629 = DIRECTION ( 'NONE',  ( 0.0000000000000000000, -0.7071067811865491300, -0.7071067811865459100 ) ) ;
#630 = CARTESIAN_POINT ( 'NONE',  ( 0.0000000000000000000, 0.0000000000000000000, 0.03013730359724774800 ) ) ;
#631 = APPLICATION_CONTEXT ( 'automotive_design' ) ;
#632 = DIRECTION ( 'NONE',  ( 0.0000000000000000000, 0.0000000000000000000, -1.000000000000000000 ) ) ;
#633 = DIRECTION ( 'NONE',  ( -1.000000000000000000, 0.0000000000000000000, 0.0000000000000000000 ) ) ;
#634 = CIRCLE ( 'NONE', #51, 0.02759266358974379500 ) ;
#635 = ORIENTED_EDGE ( 'NONE', *, *, #65, .F. ) ;
#636 = ORIENTED_EDGE ( 'NONE', *, *, #521, .F. ) ;
#637 = EDGE_CURVE ( 'NONE', #511, #266, #200, .T. ) ;
#638 = DIRECTION ( 'NONE',  ( 0.0000000000000000000, 0.0000000000000000000, -1.000000000000000000 ) ) ;
#639 = CIRCLE ( 'NONE', #23, 0.04250000000000001000 ) ;
#640 = DIRECTION ( 'NONE',  ( 0.0000000000000000000, 0.0000000000000000000, -1.000000000000000000 ) ) ;
#641 = FACE_OUTER_BOUND ( 'NONE', #463, .T. ) ;
#642 = ORIENTED_EDGE ( 'NONE', *, *, #306, .F. ) ;
#643 = ORIENTED_EDGE ( 'NONE', *, *, #396, .F. ) ;
#644 = CARTESIAN_POINT ( 'NONE',  ( 0.0000000000000000000, 0.1100000000000000300, -0.03200000000000000100 ) ) ;
#645 = AXIS2_PLACEMENT_3D ( 'NONE', #307, #567, #251 ) ;
#646 = DIRECTION ( 'NONE',  ( -0.0000000000000000000, 0.0000000000000000000, 1.000000000000000000 ) ) ;
#647 = AXIS2_PLACEMENT_3D ( 'NONE', #303, #361, #34 ) ;
#648 = CYLINDRICAL_SURFACE ( 'NONE', #594, 0.02100000000000000500 ) ;
#649 = DIRECTION ( 'NONE',  ( -0.0000000000000000000, -1.000000000000000000, -0.0000000000000000000 ) ) ;
#650 = ORIENTED_EDGE ( 'NONE', *, *, #358, .T. ) ;
#651 = ORIENTED_EDGE ( 'NONE', *, *, #138, .T. ) ;
#652 = DIRECTION ( 'NONE',  ( 1.000000000000000000, 0.0000000000000000000, 0.0000000000000000000 ) ) ;
#653 = CARTESIAN_POINT ( 'NONE',  ( 0.0000000000000000000, 0.1100000000000000300, -0.02949999999999999800 ) ) ;
#654 = AXIS2_PLACEMENT_3D ( 'NONE', #167, #709, #182 ) ;
#655 = CARTESIAN_POINT ( 'NONE',  ( 2.571758278209441800E-018, 0.1840000000000000800, 0.02100000000000000500 ) ) ;
#656 = UNCERTAINTY_MEASURE_WITH_UNIT (LENGTH_MEASURE( 1.000000000000000100E-005 ), #687, 'distance_accuracy_value', 'NONE');
#657 = DIRECTION ( 'NONE',  ( 0.0000000000000000000, 0.0000000000000000000, -1.000000000000000000 ) ) ;
#658 =( NAMED_UNIT ( * ) SI_UNIT ( $, .STERADIAN. ) SOLID_ANGLE_UNIT ( ) );
#659 = CIRCLE ( 'NONE', #534, 0.03200000000000000100 ) ;
#660 = CARTESIAN_POINT ( 'NONE',  ( 0.0000000000000000000, 0.1500000000000000500, 0.0000000000000000000 ) ) ;
#661 = EDGE_CURVE ( 'NONE', #266, #511, #586, .T. ) ;
#662 = ORIENTED_EDGE ( 'NONE', *, *, #283, .F. ) ;
#663 = EDGE_LOOP ( 'NONE', ( #17, #425 ) ) ;
#664 = PLANE ( 'NONE',  #148 ) ;
#665 = SURFACE_STYLE_USAGE ( .BOTH. , #335 ) ;
#666 = EDGE_CURVE ( 'NONE', #266, #535, #91, .T. ) ;
#667 = CARTESIAN_POINT ( 'NONE',  ( 0.0000000000000000000, 0.0000000000000000000, 0.0000000000000000000 ) ) ;
#668 = SURFACE_SIDE_STYLE ('',( #486 ) ) ;
#669 = VECTOR ( 'NONE', #139, 39.37007874015748900 ) ;
#670 = DIRECTION ( 'NONE',  ( 0.0000000000000000000, 0.0000000000000000000, -1.000000000000000000 ) ) ;
#671 = FACE_BOUND ( 'NONE', #119, .T. ) ;
#672 = ADVANCED_FACE ( 'NONE', ( #343 ), #431, .T. ) ;
#673 = LINE ( 'NONE', #572, #169 ) ;
#674 = ORIENTED_EDGE ( 'NONE', *, *, #469, .T. ) ;
#675 = AXIS2_PLACEMENT_3D ( 'NONE', #135, #240, #342 ) ;
#676 =( LENGTH_UNIT ( ) NAMED_UNIT ( * ) SI_UNIT ( $, .METRE. ) );
#677 = ADVANCED_FACE ( 'NONE', ( #604 ), #359, .T. ) ;
#678 = DIRECTION ( 'NONE',  ( -0.0000000000000000000, -1.000000000000000000, -0.0000000000000000000 ) ) ;
#679 = EDGE_CURVE ( 'NONE', #443, #188, #308, .T. ) ;
#680 =( NAMED_UNIT ( * ) PLANE_ANGLE_UNIT ( ) SI_UNIT ( $, .RADIAN. ) );
#681 = CIRCLE ( 'NONE', #688, 0.02759266358974379500 ) ;
#682 = CIRCLE ( 'NONE', #184, 0.02949999999999999800 ) ;
#683 = ORIENTED_EDGE ( 'NONE', *, *, #661, .T. ) ;
#684 = UNCERTAINTY_MEASURE_WITH_UNIT (LENGTH_MEASURE( 1.000000000000000100E-005 ), #18, 'distance_accuracy_value', 'NONE');
#685 = ORIENTED_EDGE ( 'NONE', *, *, #437, .F. ) ;
#686 = DIRECTION ( 'NONE',  ( 0.0000000000000000000, 0.0000000000000000000, -1.000000000000000000 ) ) ;
#687 =( CONVERSION_BASED_UNIT ( 'INCH', #500 ) LENGTH_UNIT ( ) NAMED_UNIT ( #102 ) );
#688 = AXIS2_PLACEMENT_3D ( 'NONE', #505, #140, #632 ) ;
#689 = PLANE ( 'NONE',  #381 ) ;
#690 = DIRECTION ( 'NONE',  ( -0.0000000000000000000, -1.000000000000000000, -0.0000000000000000000 ) ) ;
#691 = ORIENTED_EDGE ( 'NONE', *, *, #559, .F. ) ;
#692 = ORIENTED_EDGE ( 'NONE', *, *, #405, .F. ) ;
#693 = CARTESIAN_POINT ( 'NONE',  ( 3.495917385998818600E-018, 0.1500000000000000500, 0.02759266358974379500 ) ) ;
#694 = CARTESIAN_POINT ( 'NONE',  ( 0.0000000000000000000, -0.07172462996186861100, -0.03200000000000000100 ) ) ;
#695 = CARTESIAN_POINT ( 'NONE',  ( 3.988509517772943000E-018, 0.0000000000000000000, -0.03013730359724774800 ) ) ;
#696 = DIRECTION ( 'NONE',  ( -0.0000000000000000000, -0.0000000000000000000, -1.000000000000000000 ) ) ;
#697 =( GEOMETRIC_REPRESENTATION_CONTEXT ( 3 ) GLOBAL_UNCERTAINTY_ASSIGNED_CONTEXT ( ( #656 ) ) GLOBAL_UNIT_ASSIGNED_CONTEXT ( ( #687, #154, #304 ) ) REPRESENTATION_CONTEXT ( 'NONE', 'WORKASPACE' ) );
#698 = CIRCLE ( 'NONE', #80, 0.03200000000000000100 ) ;
#699 = CARTESIAN_POINT ( 'NONE',  ( 0.0000000000000000000, 0.1100000000000000300, 0.0000000000000000000 ) ) ;
#700 = LINE ( 'NONE', #478, #151 ) ;
#701 = DIRECTION ( 'NONE',  ( 0.0000000000000000000, 0.0000000000000000000, -1.000000000000000000 ) ) ;
#702 = EDGE_LOOP ( 'NONE', ( #436, #108 ) ) ;
#703 = DIRECTION ( 'NONE',  ( 0.0000000000000000000, 0.0000000000000000000, -1.000000000000000000 ) ) ;
#704 = ORIENTED_EDGE ( 'NONE', *, *, #584, .T. ) ;
#705 = EDGE_CURVE ( 'NONE', #226, #242, #77, .T. ) ;
#706 = DIRECTION ( 'NONE',  ( -1.224646799147353200E-016, 0.0000000000000000000, -1.000000000000000000 ) ) ;
#707 = CARTESIAN_POINT ( 'NONE',  ( 0.0000000000000000000, 0.004862696402752228800, 0.03500000000000003100 ) ) ;
#708 = EDGE_CURVE ( 'NONE', #314, #608, #698, .T. ) ;
#709 = DIRECTION ( 'NONE',  ( 0.0000000000000000000, 1.000000000000000000, 0.0000000000000000000 ) ) ;
#710 = CYLINDRICAL_SURFACE ( 'NONE', #255, 0.02100000000000000500 ) ;
#711 = VERTEX_POINT ( 'NONE', #192 ) ;
#712 = ORIENTED_EDGE ( 'NONE', *, *, #328, .F. ) ;
#713 = DIRECTION ( 'NONE',  ( 0.0000000000000000000, 0.0000000000000000000, -1.000000000000000000 ) ) ;
#714 = ORIENTED_EDGE ( 'NONE', *, *, #207, .T. ) ;
#715 = AXIS2_PLACEMENT_3D ( 'NONE', #614, #83, #243 ) ;
ENDSEC;
END-ISO-10303-21;
