<?xml version="1.0" encoding="UTF-8" standalone="no"?>
<!-- Generator: Fusion 360, Shaper Origin Export Add-In, Version 1.8.0  -->

<svg
   shaper:fusionaddin="version:1.8.0"
   width="11.876366cm"
   height="9.9708256cm"
   version="1.1"
   x="0cm"
   y="0cm"
   viewBox="0 0 11.876366 9.9708256"
   enable-background="new 0 0 11.876366 9.9708256"
   xml:space="preserve"
   id="svg76"
   sodipodi:docname="Bottom Right.svg"
   inkscape:version="1.3.2 (091e20e, 2023-11-25)"
   xmlns:inkscape="http://www.inkscape.org/namespaces/inkscape"
   xmlns:sodipodi="http://sodipodi.sourceforge.net/DTD/sodipodi-0.dtd"
   xmlns="http://www.w3.org/2000/svg"
   xmlns:svg="http://www.w3.org/2000/svg"
   xmlns:shaper="http://www.shapertools.com/namespaces/shaper"><defs
     id="defs76" /><sodipodi:namedview
     id="namedview76"
     pagecolor="#ffffff"
     bordercolor="#000000"
     borderopacity="0.25"
     inkscape:showpageshadow="2"
     inkscape:pageopacity="0.0"
     inkscape:pagecheckerboard="0"
     inkscape:deskcolor="#d1d1d1"
     inkscape:document-units="cm"
     inkscape:zoom="0.6371548"
     inkscape:cx="224.43526"
     inkscape:cy="189.12202"
     inkscape:window-width="1392"
     inkscape:window-height="1212"
     inkscape:window-x="2240"
     inkscape:window-y="25"
     inkscape:window-maximized="0"
     inkscape:current-layer="svg76" /><path
     d="M5.8984899,-2.9292803 A0.05,0.05 270 0,1 5.9484899,-2.8792803 L5.9484899,4.9457197 A0.05,0.05 0 0,1 5.8984899,4.9957197 L-4.0015101,4.9957197 A0.05,0.05 90 0,1 -4.0515101,4.9457197 L-4.0515101,-1.8905921 A0.05,0.05 0 0,0 -4.0680536,-1.9277493 L-5.9113326,-3.5874452 A0.05,0.05 132 0,1 -5.9150333,-3.658059 L-5.1555701,-4.5015284 -5.0329512,-4.3911218 -5.0514015,-4.3706306 A0.055,0.055 222 0,0 -5.0654532,-4.33095 L-5.0604627,-4.2357253 A0.055,0.055 177 0,0 -5.0423402,-4.1977308 L-5.0381983,-4.1940014 -5.1118026,-4.1122555 A0.11,0.11 222 0,0 -4.9483108,-3.9650467 L-4.8747064,-4.0467926 -4.837866,-4.0136214 A0.055,0.055 132 0,0 -4.7981854,-3.9995698 L-4.7029607,-4.0045603 A0.055,0.055 87 0,0 -4.6649662,-4.0226827 L-4.6539769,-4.0348877 A0.0954545,0.0954545 227.5937168 0,1 -4.5257323,-4.0353424 L-4.3102203,-3.8412945 A0.105,0.105 132 0,0 -4.1619314,-3.849066 L-4.1351662,-3.8787918 -4.0125473,-3.7683852 -3.8653386,-3.9318771 -3.9879575,-4.0422836 -3.9611922,-4.0720094 A0.105,0.105 42 0,0 -3.9689637,-4.2202983 L-4.2142015,-4.4411114 A0.1251812,0.1251812 312 0,0 -4.361435,-4.4559808 A0.1859393,0.1859393 59.5336796 0,1 -4.5564449,-4.4599577 L-4.6943923,-4.5841662 A0.055,0.055 312 0,0 -4.734073,-4.5982178 L-4.8292976,-4.5932273 A0.055,0.055 267 0,0 -4.8672921,-4.5751049 L-4.8857425,-4.5546137 -5.0083614,-4.6650202 -4.7440548,-4.9585624 A0.05,0.05 222 0,1 -4.673441,-4.9622632 L-3.4185381,-3.8323435 A0.35,0.35 132 0,0 -3.3097712,-3.765691 L-1.7905773,-3.1825272 A0.35,0.35 111 0,0 -1.6651486,-3.1592803 L0.0614125,-3.1592803 A0.05,0.05 270 0,1 0.1066722,-3.1305303 A0.35,0.35 154.8493365 0,0 0.4234899,-2.9292803 L5.8984899,-2.9292803z"
     transform="matrix(1,0,0,-1,5.9278761,4.9957197)"
     fill="rgb(0,0,0)"
     stroke-linecap="round"
     stroke-linejoin="round"
     id="path1"
     style="fill:none;stroke:#000000;stroke-opacity:1;vector-effect:non-scaling-stroke;-inkscape-stroke:hairline;stroke-width:0.02645833;stroke-dasharray:none" /><path
     d="M0.5364899,0.5707197 L0.5364899,0.4607197 0.5860635,0.4607197 A0.055,0.055 90 0,0 0.6249543,0.4446106 L0.6923807,0.3771841 A0.055,0.055 45 0,0 0.7084899,0.3382933 L0.7084899,0.3218699 A0.0954545,0.0954545 185.5937168 0,1 0.8034899,0.2357197 L1.0934899,0.2357197 A0.105,0.105 90 0,0 1.1984899,0.1307197 L1.1984899,0.0907197 1.3634899,0.0907197 1.3634899,-0.1292803 1.1984899,-0.1292803 1.1984899,-0.1692803 A0.105,0.105 0 0,0 1.0934899,-0.2742803 L0.7634899,-0.2742803 A0.1251812,0.1251812 270 0,0 0.6441245,-0.186812 A0.1859393,0.1859393 17.5336796 0,1 0.4965428,-0.0592803 L0.3109163,-0.0592803 A0.055,0.055 270 0,0 0.2720254,-0.0431712 L0.204599,0.0242552 A0.055,0.055 225 0,0 0.1884899,0.0631461 L0.1884899,0.0907197 0.0234899,0.0907197 0.0234899,0.3107197 0.1884899,0.3107197 0.1884899,0.3382933 A0.055,0.055 180 0,0 0.204599,0.3771841 L0.2720254,0.4446106 A0.055,0.055 135 0,0 0.3109163,0.4607197 L0.3164899,0.4607197 0.3164899,0.5707197 A0.11,0.11 180 0,0 0.5364899,0.5707197z"
     transform="matrix(1,0,0,-1,5.9278761,4.9957197)"
     fill="rgb(255,255,255)"
     stroke="rgb(0,0,0)"
     stroke-width="0.0010cm"
     stroke-linecap="round"
     stroke-linejoin="round"
     id="path2"
     style="fill:none;stroke:#000000;stroke-opacity:1;vector-effect:non-scaling-stroke;-inkscape-stroke:hairline;stroke-width:0.02645833;stroke-dasharray:none" /><path
     d="M0.5364899,2.2707197 L0.5364899,2.1607197 0.5860635,2.1607197 A0.055,0.055 90 0,0 0.6249543,2.1446106 L0.6923807,2.0771841 A0.055,0.055 45 0,0 0.7084899,2.0382933 L0.7084899,2.0218699 A0.0954545,0.0954545 185.5937168 0,1 0.8034899,1.9357197 L1.0934899,1.9357197 A0.105,0.105 90 0,0 1.1984899,1.8307197 L1.1984899,1.7907197 1.3634899,1.7907197 1.3634899,1.5707197 1.1984899,1.5707197 1.1984899,1.5307197 A0.105,0.105 0 0,0 1.0934899,1.4257197 L0.7634899,1.4257197 A0.1251812,0.1251812 270 0,0 0.6441245,1.513188 A0.1859393,0.1859393 17.5336796 0,1 0.4965428,1.6407197 L0.3109163,1.6407197 A0.055,0.055 270 0,0 0.2720254,1.6568288 L0.204599,1.7242552 A0.055,0.055 225 0,0 0.1884899,1.7631461 L0.1884899,1.7907197 0.0234899,1.7907197 0.0234899,2.0107197 0.1884899,2.0107197 0.1884899,2.0382933 A0.055,0.055 180 0,0 0.204599,2.0771841 L0.2720254,2.1446106 A0.055,0.055 135 0,0 0.3109163,2.1607197 L0.3164899,2.1607197 0.3164899,2.2707197 A0.11,0.11 180 0,0 0.5364899,2.2707197z"
     transform="matrix(1,0,0,-1,5.9278761,4.9957197)"
     fill="rgb(255,255,255)"
     stroke="rgb(0,0,0)"
     stroke-width="0.0010cm"
     stroke-linecap="round"
     stroke-linejoin="round"
     id="path3"
     style="fill:none;stroke:#000000;stroke-opacity:1;vector-effect:non-scaling-stroke;-inkscape-stroke:hairline;stroke-width:0.02645833;stroke-dasharray:none" /><path
     d="M2.3364899,3.5457197 L2.3364899,3.4357197 2.3860635,3.4357197 A0.055,0.055 90 0,0 2.4249543,3.4196106 L2.4923807,3.3521841 A0.055,0.055 45 0,0 2.5084899,3.3132933 L2.5084899,3.2968699 A0.0954545,0.0954545 185.5937168 0,1 2.6034899,3.2107197 L2.8934899,3.2107197 A0.105,0.105 90 0,0 2.9984899,3.1057197 L2.9984899,3.0657197 3.1634899,3.0657197 3.1634899,2.8457197 2.9984899,2.8457197 2.9984899,2.8057197 A0.105,0.105 0 0,0 2.8934899,2.7007197 L2.5634899,2.7007197 A0.1251812,0.1251812 270 0,0 2.4441245,2.788188 A0.1859393,0.1859393 17.5336796 0,1 2.2965428,2.9157197 L2.1109163,2.9157197 A0.055,0.055 270 0,0 2.0720254,2.9318288 L2.004599,2.9992552 A0.055,0.055 225 0,0 1.9884899,3.0381461 L1.9884899,3.0657197 1.8234899,3.0657197 1.8234899,3.2857197 1.9884899,3.2857197 1.9884899,3.3132933 A0.055,0.055 180 0,0 2.004599,3.3521841 L2.0720254,3.4196106 A0.055,0.055 135 0,0 2.1109163,3.4357197 L2.1164899,3.4357197 2.1164899,3.5457197 A0.11,0.11 180 0,0 2.3364899,3.5457197z"
     transform="matrix(1,0,0,-1,5.9278761,4.9957197)"
     fill="rgb(255,255,255)"
     stroke="rgb(0,0,0)"
     stroke-width="0.0010cm"
     stroke-linecap="round"
     stroke-linejoin="round"
     id="path4"
     style="fill:none;stroke:#000000;stroke-opacity:1;vector-effect:non-scaling-stroke;-inkscape-stroke:hairline;stroke-width:0.02645833;stroke-dasharray:none" /><path
     d="M-1.2635101,3.5457197 L-1.2635101,3.4357197 -1.2139365,3.4357197 A0.055,0.055 90 0,0 -1.1750457,3.4196106 L-1.1076193,3.3521841 A0.055,0.055 45 0,0 -1.0915101,3.3132933 L-1.0915101,3.2968699 A0.0954545,0.0954545 185.5937168 0,1 -0.9965101,3.2107197 L-0.7065101,3.2107197 A0.105,0.105 90 0,0 -0.6015101,3.1057197 L-0.6015101,3.0657197 -0.4365101,3.0657197 -0.4365101,2.8457197 -0.6015101,2.8457197 -0.6015101,2.8057197 A0.105,0.105 0 0,0 -0.7065101,2.7007197 L-1.0365101,2.7007197 A0.1251812,0.1251812 270 0,0 -1.1558755,2.788188 A0.1859393,0.1859393 17.5336796 0,1 -1.3034572,2.9157197 L-1.4890837,2.9157197 A0.055,0.055 270 0,0 -1.5279746,2.9318288 L-1.595401,2.9992552 A0.055,0.055 225 0,0 -1.6115101,3.0381461 L-1.6115101,3.0657197 -1.7765101,3.0657197 -1.7765101,3.2857197 -1.6115101,3.2857197 -1.6115101,3.3132933 A0.055,0.055 180 0,0 -1.595401,3.3521841 L-1.5279746,3.4196106 A0.055,0.055 135 0,0 -1.4890837,3.4357197 L-1.4835101,3.4357197 -1.4835101,3.5457197 A0.11,0.11 180 0,0 -1.2635101,3.5457197z"
     transform="matrix(1,0,0,-1,5.9278761,4.9957197)"
     fill="rgb(255,255,255)"
     stroke="rgb(0,0,0)"
     stroke-width="0.0010cm"
     stroke-linecap="round"
     stroke-linejoin="round"
     id="path5"
     style="fill:none;stroke:#000000;stroke-opacity:1;vector-effect:non-scaling-stroke;-inkscape-stroke:hairline;stroke-width:0.02645833;stroke-dasharray:none" /><path
     d="M-3.0635101,3.2907197 L-3.0635101,3.1807197 -3.0139365,3.1807197 A0.055,0.055 90 0,0 -2.9750457,3.1646106 L-2.9076193,3.0971841 A0.055,0.055 45 0,0 -2.8915101,3.0582933 L-2.8915101,3.0418699 A0.0954545,0.0954545 185.5937168 0,1 -2.7965101,2.9557197 L-2.5065101,2.9557197 A0.105,0.105 90 0,0 -2.4015101,2.8507197 L-2.4015101,2.8107197 -2.2365101,2.8107197 -2.2365101,2.5907197 -2.4015101,2.5907197 -2.4015101,2.5507197 A0.105,0.105 0 0,0 -2.5065101,2.4457197 L-2.8365101,2.4457197 A0.1251812,0.1251812 270 0,0 -2.9558755,2.533188 A0.1859393,0.1859393 17.5336796 0,1 -3.1034572,2.6607197 L-3.2890837,2.6607197 A0.055,0.055 270 0,0 -3.3279746,2.6768288 L-3.395401,2.7442552 A0.055,0.055 225 0,0 -3.4115101,2.7831461 L-3.4115101,2.8107197 -3.5765101,2.8107197 -3.5765101,3.0307197 -3.4115101,3.0307197 -3.4115101,3.0582933 A0.055,0.055 180 0,0 -3.395401,3.0971841 L-3.3279746,3.1646106 A0.055,0.055 135 0,0 -3.2890837,3.1807197 L-3.2835101,3.1807197 -3.2835101,3.2907197 A0.11,0.11 180 0,0 -3.0635101,3.2907197z"
     transform="matrix(1,0,0,-1,5.9278761,4.9957197)"
     fill="rgb(255,255,255)"
     stroke="rgb(0,0,0)"
     stroke-width="0.0010cm"
     stroke-linecap="round"
     stroke-linejoin="round"
     id="path6"
     style="fill:none;stroke:#000000;stroke-opacity:1;vector-effect:non-scaling-stroke;-inkscape-stroke:hairline;stroke-width:0.02645833;stroke-dasharray:none" /><path
     d="M-3.0635101,1.5907197 L-3.0635101,1.4807197 -3.0139365,1.4807197 A0.055,0.055 90 0,0 -2.9750457,1.4646106 L-2.9076193,1.3971841 A0.055,0.055 45 0,0 -2.8915101,1.3582933 L-2.8915101,1.3418699 A0.0954545,0.0954545 185.5937168 0,1 -2.7965101,1.2557197 L-2.5065101,1.2557197 A0.105,0.105 90 0,0 -2.4015101,1.1507197 L-2.4015101,1.1107197 -2.2365101,1.1107197 -2.2365101,0.8907197 -2.4015101,0.8907197 -2.4015101,0.8507197 A0.105,0.105 0 0,0 -2.5065101,0.7457197 L-2.8365101,0.7457197 A0.1251812,0.1251812 270 0,0 -2.9558755,0.833188 A0.1859393,0.1859393 17.5336796 0,1 -3.1034572,0.9607197 L-3.2890837,0.9607197 A0.055,0.055 270 0,0 -3.3279746,0.9768288 L-3.395401,1.0442552 A0.055,0.055 225 0,0 -3.4115101,1.0831461 L-3.4115101,1.1107197 -3.5765101,1.1107197 -3.5765101,1.3307197 -3.4115101,1.3307197 -3.4115101,1.3582933 A0.055,0.055 180 0,0 -3.395401,1.3971841 L-3.3279746,1.4646106 A0.055,0.055 135 0,0 -3.2890837,1.4807197 L-3.2835101,1.4807197 -3.2835101,1.5907197 A0.11,0.11 180 0,0 -3.0635101,1.5907197z"
     transform="matrix(1,0,0,-1,5.9278761,4.9957197)"
     fill="rgb(255,255,255)"
     stroke="rgb(0,0,0)"
     stroke-width="0.0010cm"
     stroke-linecap="round"
     stroke-linejoin="round"
     id="path7"
     style="fill:none;stroke:#000000;stroke-opacity:1;vector-effect:non-scaling-stroke;-inkscape-stroke:hairline;stroke-width:0.02645833;stroke-dasharray:none" /><path
     d="M-1.2635101,1.8457197 L-1.2635101,1.7357197 -1.2139365,1.7357197 A0.055,0.055 90 0,0 -1.1750457,1.7196106 L-1.1076193,1.6521841 A0.055,0.055 45 0,0 -1.0915101,1.6132933 L-1.0915101,1.5968699 A0.0954545,0.0954545 185.5937168 0,1 -0.9965101,1.5107197 L-0.7065101,1.5107197 A0.105,0.105 90 0,0 -0.6015101,1.4057197 L-0.6015101,1.3657197 -0.4365101,1.3657197 -0.4365101,1.1457197 -0.6015101,1.1457197 -0.6015101,1.1057197 A0.105,0.105 0 0,0 -0.7065101,1.0007197 L-1.0365101,1.0007197 A0.1251812,0.1251812 270 0,0 -1.1558755,1.088188 A0.1859393,0.1859393 17.5336796 0,1 -1.3034572,1.2157197 L-1.4890837,1.2157197 A0.055,0.055 270 0,0 -1.5279746,1.2318288 L-1.595401,1.2992552 A0.055,0.055 225 0,0 -1.6115101,1.3381461 L-1.6115101,1.3657197 -1.7765101,1.3657197 -1.7765101,1.5857197 -1.6115101,1.5857197 -1.6115101,1.6132933 A0.055,0.055 180 0,0 -1.595401,1.6521841 L-1.5279746,1.7196106 A0.055,0.055 135 0,0 -1.4890837,1.7357197 L-1.4835101,1.7357197 -1.4835101,1.8457197 A0.11,0.11 180 0,0 -1.2635101,1.8457197z"
     transform="matrix(1,0,0,-1,5.9278761,4.9957197)"
     fill="rgb(255,255,255)"
     stroke="rgb(0,0,0)"
     stroke-width="0.0010cm"
     stroke-linecap="round"
     stroke-linejoin="round"
     id="path8"
     style="fill:none;stroke:#000000;stroke-opacity:1;vector-effect:non-scaling-stroke;-inkscape-stroke:hairline;stroke-width:0.02645833;stroke-dasharray:none" /><path
     d="M2.3364899,0.1457197 L2.3364899,0.0357197 2.3860635,0.0357197 A0.055,0.055 90 0,0 2.4249543,0.0196106 L2.4923807,-0.0478159 A0.055,0.055 45 0,0 2.5084899,-0.0867067 L2.5084899,-0.1031301 A0.0954545,0.0954545 185.5937168 0,1 2.6034899,-0.1892803 L2.8934899,-0.1892803 A0.105,0.105 90 0,0 2.9984899,-0.2942803 L2.9984899,-0.3342803 3.1634899,-0.3342803 3.1634899,-0.5542803 2.9984899,-0.5542803 2.9984899,-0.5942803 A0.105,0.105 0 0,0 2.8934899,-0.6992803 L2.5634899,-0.6992803 A0.1251812,0.1251812 270 0,0 2.4441245,-0.611812 A0.1859393,0.1859393 17.5336796 0,1 2.2965428,-0.4842803 L2.1109163,-0.4842803 A0.055,0.055 270 0,0 2.0720254,-0.4681712 L2.004599,-0.4007448 A0.055,0.055 225 0,0 1.9884899,-0.3618539 L1.9884899,-0.3342803 1.8234899,-0.3342803 1.8234899,-0.1142803 1.9884899,-0.1142803 1.9884899,-0.0867067 A0.055,0.055 180 0,0 2.004599,-0.0478159 L2.0720254,0.0196106 A0.055,0.055 135 0,0 2.1109163,0.0357197 L2.1164899,0.0357197 2.1164899,0.1457197 A0.11,0.11 180 0,0 2.3364899,0.1457197z"
     transform="matrix(1,0,0,-1,5.9278761,4.9957197)"
     fill="rgb(255,255,255)"
     stroke="rgb(0,0,0)"
     stroke-width="0.0010cm"
     stroke-linecap="round"
     stroke-linejoin="round"
     id="path9"
     style="fill:none;stroke:#000000;stroke-opacity:1;vector-effect:non-scaling-stroke;-inkscape-stroke:hairline;stroke-width:0.02645833;stroke-dasharray:none" /><path
     d="M-3.0635101,-0.1092803 L-3.0635101,-0.2192803 -3.0139365,-0.2192803 A0.055,0.055 90 0,0 -2.9750457,-0.2353894 L-2.9076193,-0.3028159 A0.055,0.055 45 0,0 -2.8915101,-0.3417067 L-2.8915101,-0.3581301 A0.0954545,0.0954545 185.5937168 0,1 -2.7965101,-0.4442803 L-2.5065101,-0.4442803 A0.105,0.105 90 0,0 -2.4015101,-0.5492803 L-2.4015101,-0.5892803 -2.2365101,-0.5892803 -2.2365101,-0.8092803 -2.4015101,-0.8092803 -2.4015101,-0.8492803 A0.105,0.105 0 0,0 -2.5065101,-0.9542803 L-2.8365101,-0.9542803 A0.1251812,0.1251812 270 0,0 -2.9558755,-0.866812 A0.1859393,0.1859393 17.5336796 0,1 -3.1034572,-0.7392803 L-3.2890837,-0.7392803 A0.055,0.055 270 0,0 -3.3279746,-0.7231712 L-3.395401,-0.6557448 A0.055,0.055 225 0,0 -3.4115101,-0.6168539 L-3.4115101,-0.5892803 -3.5765101,-0.5892803 -3.5765101,-0.3692803 -3.4115101,-0.3692803 -3.4115101,-0.3417067 A0.055,0.055 180 0,0 -3.395401,-0.3028159 L-3.3279746,-0.2353894 A0.055,0.055 135 0,0 -3.2890837,-0.2192803 L-3.2835101,-0.2192803 -3.2835101,-0.1092803 A0.11,0.11 180 0,0 -3.0635101,-0.1092803z"
     transform="matrix(1,0,0,-1,5.9278761,4.9957197)"
     fill="rgb(255,255,255)"
     stroke="rgb(0,0,0)"
     stroke-width="0.0010cm"
     stroke-linecap="round"
     stroke-linejoin="round"
     id="path10"
     style="fill:none;stroke:#000000;stroke-opacity:1;vector-effect:non-scaling-stroke;-inkscape-stroke:hairline;stroke-width:0.02645833;stroke-dasharray:none" /><path
     d="M-1.2635101,-2.2342803 L-1.2635101,-2.3442803 -1.2139365,-2.3442803 A0.055,0.055 90 0,0 -1.1750457,-2.3603894 L-1.1076193,-2.4278159 A0.055,0.055 45 0,0 -1.0915101,-2.4667067 L-1.0915101,-2.4831301 A0.0954545,0.0954545 185.5937168 0,1 -0.9965101,-2.5692803 L-0.7065101,-2.5692803 A0.105,0.105 90 0,0 -0.6015101,-2.6742803 L-0.6015101,-2.7142803 -0.4365101,-2.7142803 -0.4365101,-2.9342803 -0.6015101,-2.9342803 -0.6015101,-2.9742803 A0.105,0.105 0 0,0 -0.7065101,-3.0792803 L-1.0365101,-3.0792803 A0.1251812,0.1251812 270 0,0 -1.1558755,-2.991812 A0.1859393,0.1859393 17.5336796 0,1 -1.3034572,-2.8642803 L-1.4890837,-2.8642803 A0.055,0.055 270 0,0 -1.5279746,-2.8481712 L-1.595401,-2.7807448 A0.055,0.055 225 0,0 -1.6115101,-2.7418539 L-1.6115101,-2.7142803 -1.7765101,-2.7142803 -1.7765101,-2.4942803 -1.6115101,-2.4942803 -1.6115101,-2.4667067 A0.055,0.055 180 0,0 -1.595401,-2.4278159 L-1.5279746,-2.3603894 A0.055,0.055 135 0,0 -1.4890837,-2.3442803 L-1.4835101,-2.3442803 -1.4835101,-2.2342803 A0.11,0.11 180 0,0 -1.2635101,-2.2342803z"
     transform="matrix(1,0,0,-1,5.9278761,4.9957197)"
     fill="rgb(255,255,255)"
     stroke="rgb(0,0,0)"
     stroke-width="0.0010cm"
     stroke-linecap="round"
     stroke-linejoin="round"
     id="path11"
     style="fill:none;stroke:#000000;stroke-opacity:1;vector-effect:non-scaling-stroke;-inkscape-stroke:hairline;stroke-width:0.02645833;stroke-dasharray:none" /><path
     d="M4.1364899,-1.2992803 L4.1364899,-1.4092803 4.1860635,-1.4092803 A0.055,0.055 90 0,0 4.2249543,-1.4253894 L4.2923807,-1.4928159 A0.055,0.055 45 0,0 4.3084899,-1.5317067 L4.3084899,-1.5481301 A0.0954545,0.0954545 185.5937168 0,1 4.4034899,-1.6342803 L4.6934899,-1.6342803 A0.105,0.105 90 0,0 4.7984899,-1.7392803 L4.7984899,-1.7792803 4.9634899,-1.7792803 4.9634899,-1.9992803 4.7984899,-1.9992803 4.7984899,-2.0392803 A0.105,0.105 0 0,0 4.6934899,-2.1442803 L4.3634899,-2.1442803 A0.1251812,0.1251812 270 0,0 4.2441245,-2.056812 A0.1859393,0.1859393 17.5336796 0,1 4.0965428,-1.9292803 L3.9109163,-1.9292803 A0.055,0.055 270 0,0 3.8720254,-1.9131712 L3.804599,-1.8457448 A0.055,0.055 225 0,0 3.7884899,-1.8068539 L3.7884899,-1.7792803 3.6234899,-1.7792803 3.6234899,-1.5592803 3.7884899,-1.5592803 3.7884899,-1.5317067 A0.055,0.055 180 0,0 3.804599,-1.4928159 L3.8720254,-1.4253894 A0.055,0.055 135 0,0 3.9109163,-1.4092803 L3.9164899,-1.4092803 3.9164899,-1.2992803 A0.11,0.11 180 0,0 4.1364899,-1.2992803z"
     transform="matrix(1,0,0,-1,5.9278761,4.9957197)"
     fill="rgb(255,255,255)"
     stroke="rgb(0,0,0)"
     stroke-width="0.0010cm"
     stroke-linecap="round"
     stroke-linejoin="round"
     id="path12"
     style="fill:none;stroke:#000000;stroke-opacity:1;vector-effect:non-scaling-stroke;-inkscape-stroke:hairline;stroke-width:0.02645833;stroke-dasharray:none" /><path
     d="M-3.2662997,-2.7581948 L-3.2268793,-2.8608887 -3.1805983,-2.8431231 A0.055,0.055 111 0,0 -3.1385176,-2.844225 L-3.0514061,-2.8830095 A0.055,0.055 66 0,0 -3.0224297,-2.9135443 L-3.0165441,-2.9288768 A0.0954545,0.0954545 206.5937168 0,1 -2.8969805,-2.97526 L-2.6262422,-2.8713333 A0.105,0.105 111 0,0 -2.4905876,-2.9317306 L-2.4762529,-2.9690738 -2.3222121,-2.9099431 -2.2433712,-3.1153308 -2.3974119,-3.1744615 -2.3830772,-3.2118047 A0.105,0.105 21 0,0 -2.4434745,-3.3474593 L-2.7515561,-3.4657207 A0.1251812,0.1251812 291 0,0 -2.894339,-3.4268387 A0.1859393,0.1859393 38.5336796 0,1 -3.0778217,-3.3606662 L-3.251119,-3.4271888 A0.055,0.055 291 0,0 -3.2931998,-3.4260869 L-3.3803112,-3.3873024 A0.055,0.055 246 0,0 -3.4092876,-3.3567676 L-3.4191691,-3.3310255 -3.5732099,-3.3901562 -3.6520508,-3.1847685 -3.4980101,-3.1256378 -3.5078916,-3.0998956 A0.055,0.055 201 0,0 -3.5067896,-3.0578148 L-3.4680051,-2.9707034 A0.055,0.055 156 0,0 -3.4374704,-2.941727 L-3.432267,-2.9397296 -3.4716874,-2.8370358 A0.11,0.11 201 0,0 -3.2662997,-2.7581948z"
     transform="matrix(1,0,0,-1,5.9278761,4.9957197)"
     fill="rgb(255,255,255)"
     stroke="rgb(0,0,0)"
     stroke-width="0.0010cm"
     stroke-linecap="round"
     stroke-linejoin="round"
     id="path13"
     style="fill:none;stroke:#000000;stroke-opacity:1;vector-effect:non-scaling-stroke;-inkscape-stroke:hairline;stroke-width:0.02645833;stroke-dasharray:none" /><path
     d="M-1.2635101,0.1457197 L-1.2635101,0.0357197 -1.2139365,0.0357197 A0.055,0.055 90 0,0 -1.1750457,0.0196106 L-1.1076193,-0.0478159 A0.055,0.055 45 0,0 -1.0915101,-0.0867067 L-1.0915101,-0.1031301 A0.0954545,0.0954545 185.5937168 0,1 -0.9965101,-0.1892803 L-0.7065101,-0.1892803 A0.105,0.105 90 0,0 -0.6015101,-0.2942803 L-0.6015101,-0.3342803 -0.4365101,-0.3342803 -0.4365101,-0.5542803 -0.6015101,-0.5542803 -0.6015101,-0.5942803 A0.105,0.105 0 0,0 -0.7065101,-0.6992803 L-1.0365101,-0.6992803 A0.1251812,0.1251812 270 0,0 -1.1558755,-0.611812 A0.1859393,0.1859393 17.5336796 0,1 -1.3034572,-0.4842803 L-1.4890837,-0.4842803 A0.055,0.055 270 0,0 -1.5279746,-0.4681712 L-1.595401,-0.4007448 A0.055,0.055 225 0,0 -1.6115101,-0.3618539 L-1.6115101,-0.3342803 -1.7765101,-0.3342803 -1.7765101,-0.1142803 -1.6115101,-0.1142803 -1.6115101,-0.0867067 A0.055,0.055 180 0,0 -1.595401,-0.0478159 L-1.5279746,0.0196106 A0.055,0.055 135 0,0 -1.4890837,0.0357197 L-1.4835101,0.0357197 -1.4835101,0.1457197 A0.11,0.11 180 0,0 -1.2635101,0.1457197z"
     transform="matrix(1,0,0,-1,5.9278761,4.9957197)"
     fill="rgb(255,255,255)"
     stroke="rgb(0,0,0)"
     stroke-width="0.0010cm"
     stroke-linecap="round"
     stroke-linejoin="round"
     id="path14"
     style="fill:none;stroke:#000000;stroke-opacity:1;vector-effect:non-scaling-stroke;-inkscape-stroke:hairline;stroke-width:0.02645833;stroke-dasharray:none" /><path
     d="M2.3364899,1.8457197 L2.3364899,1.7357197 2.3860635,1.7357197 A0.055,0.055 90 0,0 2.4249543,1.7196106 L2.4923807,1.6521841 A0.055,0.055 45 0,0 2.5084899,1.6132933 L2.5084899,1.5968699 A0.0954545,0.0954545 185.5937168 0,1 2.6034899,1.5107197 L2.8934899,1.5107197 A0.105,0.105 90 0,0 2.9984899,1.4057197 L2.9984899,1.3657197 3.1634899,1.3657197 3.1634899,1.1457197 2.9984899,1.1457197 2.9984899,1.1057197 A0.105,0.105 0 0,0 2.8934899,1.0007197 L2.5634899,1.0007197 A0.1251812,0.1251812 270 0,0 2.4441245,1.088188 A0.1859393,0.1859393 17.5336796 0,1 2.2965428,1.2157197 L2.1109163,1.2157197 A0.055,0.055 270 0,0 2.0720254,1.2318288 L2.004599,1.2992552 A0.055,0.055 225 0,0 1.9884899,1.3381461 L1.9884899,1.3657197 1.8234899,1.3657197 1.8234899,1.5857197 1.9884899,1.5857197 1.9884899,1.6132933 A0.055,0.055 180 0,0 2.004599,1.6521841 L2.0720254,1.7196106 A0.055,0.055 135 0,0 2.1109163,1.7357197 L2.1164899,1.7357197 2.1164899,1.8457197 A0.11,0.11 180 0,0 2.3364899,1.8457197z"
     transform="matrix(1,0,0,-1,5.9278761,4.9957197)"
     fill="rgb(255,255,255)"
     stroke="rgb(0,0,0)"
     stroke-width="0.0010cm"
     stroke-linecap="round"
     stroke-linejoin="round"
     id="path15"
     style="fill:none;stroke:#000000;stroke-opacity:1;vector-effect:non-scaling-stroke;-inkscape-stroke:hairline;stroke-width:0.02645833;stroke-dasharray:none" /><path
     d="M0.5364899,3.9707197 L0.5364899,3.8607197 0.5860635,3.8607197 A0.055,0.055 90 0,0 0.6249543,3.8446106 L0.6923807,3.7771841 A0.055,0.055 45 0,0 0.7084899,3.7382933 L0.7084899,3.7218699 A0.0954545,0.0954545 185.5937168 0,1 0.8034899,3.6357197 L1.0934899,3.6357197 A0.105,0.105 90 0,0 1.1984899,3.5307197 L1.1984899,3.4907197 1.3634899,3.4907197 1.3634899,3.2707197 1.1984899,3.2707197 1.1984899,3.2307197 A0.105,0.105 0 0,0 1.0934899,3.1257197 L0.7634899,3.1257197 A0.1251812,0.1251812 270 0,0 0.6441245,3.213188 A0.1859393,0.1859393 17.5336796 0,1 0.4965428,3.3407197 L0.3109163,3.3407197 A0.055,0.055 270 0,0 0.2720254,3.3568288 L0.204599,3.4242552 A0.055,0.055 225 0,0 0.1884899,3.4631461 L0.1884899,3.4907197 0.0234899,3.4907197 0.0234899,3.7107197 0.1884899,3.7107197 0.1884899,3.7382933 A0.055,0.055 180 0,0 0.204599,3.7771841 L0.2720254,3.8446106 A0.055,0.055 135 0,0 0.3109163,3.8607197 L0.3164899,3.8607197 0.3164899,3.9707197 A0.11,0.11 180 0,0 0.5364899,3.9707197z"
     transform="matrix(1,0,0,-1,5.9278761,4.9957197)"
     fill="rgb(255,255,255)"
     stroke="rgb(0,0,0)"
     stroke-width="0.0010cm"
     stroke-linecap="round"
     stroke-linejoin="round"
     id="path16"
     style="fill:none;stroke:#000000;stroke-opacity:1;vector-effect:non-scaling-stroke;-inkscape-stroke:hairline;stroke-width:0.02645833;stroke-dasharray:none" /><path
     d="M4.1364899,2.1007197 L4.1364899,1.9907197 4.1860635,1.9907197 A0.055,0.055 90 0,0 4.2249543,1.9746106 L4.2923807,1.9071841 A0.055,0.055 45 0,0 4.3084899,1.8682933 L4.3084899,1.8518699 A0.0954545,0.0954545 185.5937168 0,1 4.4034899,1.7657197 L4.6934899,1.7657197 A0.105,0.105 90 0,0 4.7984899,1.6607197 L4.7984899,1.6207197 4.9634899,1.6207197 4.9634899,1.4007197 4.7984899,1.4007197 4.7984899,1.3607197 A0.105,0.105 0 0,0 4.6934899,1.2557197 L4.3634899,1.2557197 A0.1251812,0.1251812 270 0,0 4.2441245,1.343188 A0.1859393,0.1859393 17.5336796 0,1 4.0965428,1.4707197 L3.9109163,1.4707197 A0.055,0.055 270 0,0 3.8720254,1.4868288 L3.804599,1.5542552 A0.055,0.055 225 0,0 3.7884899,1.5931461 L3.7884899,1.6207197 3.6234899,1.6207197 3.6234899,1.8407197 3.7884899,1.8407197 3.7884899,1.8682933 A0.055,0.055 180 0,0 3.804599,1.9071841 L3.8720254,1.9746106 A0.055,0.055 135 0,0 3.9109163,1.9907197 L3.9164899,1.9907197 3.9164899,2.1007197 A0.11,0.11 180 0,0 4.1364899,2.1007197z"
     transform="matrix(1,0,0,-1,5.9278761,4.9957197)"
     fill="rgb(255,255,255)"
     stroke="rgb(0,0,0)"
     stroke-width="0.0010cm"
     stroke-linecap="round"
     stroke-linejoin="round"
     id="path17"
     style="fill:none;stroke:#000000;stroke-opacity:1;vector-effect:non-scaling-stroke;-inkscape-stroke:hairline;stroke-width:0.02645833;stroke-dasharray:none" /><path
     d="M4.1364899,0.4007197 L4.1364899,0.2907197 4.1860635,0.2907197 A0.055,0.055 90 0,0 4.2249543,0.2746106 L4.2923807,0.2071841 A0.055,0.055 45 0,0 4.3084899,0.1682933 L4.3084899,0.1518699 A0.0954545,0.0954545 185.5937168 0,1 4.4034899,0.0657197 L4.6934899,0.0657197 A0.105,0.105 90 0,0 4.7984899,-0.0392803 L4.7984899,-0.0792803 4.9634899,-0.0792803 4.9634899,-0.2992803 4.7984899,-0.2992803 4.7984899,-0.3392803 A0.105,0.105 0 0,0 4.6934899,-0.4442803 L4.3634899,-0.4442803 A0.1251812,0.1251812 270 0,0 4.2441245,-0.356812 A0.1859393,0.1859393 17.5336796 0,1 4.0965428,-0.2292803 L3.9109163,-0.2292803 A0.055,0.055 270 0,0 3.8720254,-0.2131712 L3.804599,-0.1457448 A0.055,0.055 225 0,0 3.7884899,-0.1068539 L3.7884899,-0.0792803 3.6234899,-0.0792803 3.6234899,0.1407197 3.7884899,0.1407197 3.7884899,0.1682933 A0.055,0.055 180 0,0 3.804599,0.2071841 L3.8720254,0.2746106 A0.055,0.055 135 0,0 3.9109163,0.2907197 L3.9164899,0.2907197 3.9164899,0.4007197 A0.11,0.11 180 0,0 4.1364899,0.4007197z"
     transform="matrix(1,0,0,-1,5.9278761,4.9957197)"
     fill="rgb(255,255,255)"
     stroke="rgb(0,0,0)"
     stroke-width="0.0010cm"
     stroke-linecap="round"
     stroke-linejoin="round"
     id="path18"
     style="fill:none;stroke:#000000;stroke-opacity:1;vector-effect:non-scaling-stroke;-inkscape-stroke:hairline;stroke-width:0.02645833;stroke-dasharray:none" /><path
     d="M4.9604899,-1.2992803 a0.11,0.11 0 1,1 0.22,0 a0.11,0.11 0 1,1 -0.22,0z"
     transform="matrix(1,0,0,-1,5.9278761,4.9957197)"
     fill="rgb(255,255,255)"
     stroke="rgb(0,0,0)"
     stroke-width="0.0010cm"
     stroke-linecap="round"
     stroke-linejoin="round"
     id="path19"
     style="fill:none;stroke:#000000;stroke-opacity:1;vector-effect:non-scaling-stroke;-inkscape-stroke:hairline;stroke-width:0.02645833;stroke-dasharray:none" /><path
     d="M-2.5043356,-2.4234791 a0.11,0.11 0 1,1 0.22,0 a0.11,0.11 0 1,1 -0.22,0z"
     transform="matrix(1,0,0,-1,5.9278761,4.9957197)"
     fill="rgb(255,255,255)"
     stroke="rgb(0,0,0)"
     stroke-width="0.0010cm"
     stroke-linecap="round"
     stroke-linejoin="round"
     id="path20"
     style="fill:none;stroke:#000000;stroke-opacity:1;vector-effect:non-scaling-stroke;-inkscape-stroke:hairline;stroke-width:0.02645833;stroke-dasharray:none" /><path
     d="M-2.8265101,-0.1092803 a0.175,0.175 0 1,1 0.35,0 a0.175,0.175 0 1,1 -0.35,0z"
     transform="matrix(1,0,0,-1,5.9278761,4.9957197)"
     fill="rgb(255,255,255)"
     stroke="rgb(0,0,0)"
     stroke-width="0.0010cm"
     stroke-linecap="round"
     stroke-linejoin="round"
     id="path21"
     style="fill:none;stroke:#000000;stroke-opacity:1;vector-effect:non-scaling-stroke;-inkscape-stroke:hairline;stroke-width:0.02645833;stroke-dasharray:none" /><path
     d="M2.5734899,0.1457197 a0.175,0.175 0 1,1 0.35,0 a0.175,0.175 0 1,1 -0.35,0z"
     transform="matrix(1,0,0,-1,5.9278761,4.9957197)"
     fill="rgb(255,255,255)"
     stroke="rgb(0,0,0)"
     stroke-width="0.0010cm"
     stroke-linecap="round"
     stroke-linejoin="round"
     id="path22"
     style="fill:none;stroke:#000000;stroke-opacity:1;vector-effect:non-scaling-stroke;-inkscape-stroke:hairline;stroke-width:0.02645833;stroke-dasharray:none" /><path
     d="M4.9604899,0.4007197 a0.11,0.11 0 1,1 0.22,0 a0.11,0.11 0 1,1 -0.22,0z"
     transform="matrix(1,0,0,-1,5.9278761,4.9957197)"
     fill="rgb(255,255,255)"
     stroke="rgb(0,0,0)"
     stroke-width="0.0010cm"
     stroke-linecap="round"
     stroke-linejoin="round"
     id="path23"
     style="fill:none;stroke:#000000;stroke-opacity:1;vector-effect:non-scaling-stroke;-inkscape-stroke:hairline;stroke-width:0.02645833;stroke-dasharray:none" /><path
     d="M4.3734899,2.1007197 a0.175,0.175 0 1,1 0.35,0 a0.175,0.175 0 1,1 -0.35,0z"
     transform="matrix(1,0,0,-1,5.9278761,4.9957197)"
     fill="rgb(255,255,255)"
     stroke="rgb(0,0,0)"
     stroke-width="0.0010cm"
     stroke-linecap="round"
     stroke-linejoin="round"
     id="path24"
     style="fill:none;stroke:#000000;stroke-opacity:1;vector-effect:non-scaling-stroke;-inkscape-stroke:hairline;stroke-width:0.02645833;stroke-dasharray:none" /><path
     d="M-2.2395101,1.5907197 a0.11,0.11 0 1,1 0.22,0 a0.11,0.11 0 1,1 -0.22,0z"
     transform="matrix(1,0,0,-1,5.9278761,4.9957197)"
     fill="rgb(255,255,255)"
     stroke="rgb(0,0,0)"
     stroke-width="0.0010cm"
     stroke-linecap="round"
     stroke-linejoin="round"
     id="path25"
     style="fill:none;stroke:#000000;stroke-opacity:1;vector-effect:non-scaling-stroke;-inkscape-stroke:hairline;stroke-width:0.02645833;stroke-dasharray:none" /><path
     d="M0.7734899,3.9707197 a0.175,0.175 0 1,1 0.35,0 a0.175,0.175 0 1,1 -0.35,0z"
     transform="matrix(1,0,0,-1,5.9278761,4.9957197)"
     fill="rgb(255,255,255)"
     stroke="rgb(0,0,0)"
     stroke-width="0.0010cm"
     stroke-linecap="round"
     stroke-linejoin="round"
     id="path26"
     style="fill:none;stroke:#000000;stroke-opacity:1;vector-effect:non-scaling-stroke;-inkscape-stroke:hairline;stroke-width:0.02645833;stroke-dasharray:none" /><path
     d="M3.7784899,-0.6092803 A0.12,0.12 180 0,0 4.0184899,-0.6092803 L4.0184899,-0.9492803 A0.12,0.12 0 0,0 3.7784899,-0.9492803 L3.7784899,-0.6092803z"
     transform="matrix(1,0,0,-1,5.9278761,4.9957197)"
     fill="rgb(255,255,255)"
     stroke="rgb(0,0,0)"
     stroke-width="0.0010cm"
     stroke-linecap="round"
     stroke-linejoin="round"
     id="path27"
     style="fill:none;stroke:#000000;stroke-opacity:1;vector-effect:non-scaling-stroke;-inkscape-stroke:hairline;stroke-width:0.02645833;stroke-dasharray:none" /><path
     d="M1.9784899,2.5357197 A0.12,0.12 180 0,0 2.2184899,2.5357197 L2.2184899,2.1957197 A0.12,0.12 0 0,0 1.9784899,2.1957197 L1.9784899,2.5357197z"
     transform="matrix(1,0,0,-1,5.9278761,4.9957197)"
     fill="rgb(255,255,255)"
     stroke="rgb(0,0,0)"
     stroke-width="0.0010cm"
     stroke-linecap="round"
     stroke-linejoin="round"
     id="path28"
     style="fill:none;stroke:#000000;stroke-opacity:1;vector-effect:non-scaling-stroke;-inkscape-stroke:hairline;stroke-width:0.02645833;stroke-dasharray:none" /><path
     d="M0.1784899,4.6607197 A0.12,0.12 180 0,0 0.4184899,4.6607197 L0.4184899,4.3207197 A0.12,0.12 0 0,0 0.1784899,4.3207197 L0.1784899,4.6607197z"
     transform="matrix(1,0,0,-1,5.9278761,4.9957197)"
     fill="rgb(255,255,255)"
     stroke="rgb(0,0,0)"
     stroke-width="0.0010cm"
     stroke-linecap="round"
     stroke-linejoin="round"
     id="path29"
     style="fill:none;stroke:#000000;stroke-opacity:1;vector-effect:non-scaling-stroke;-inkscape-stroke:hairline;stroke-width:0.02645833;stroke-dasharray:none" /><path
     d="M-1.6215101,-1.5442803 A0.12,0.12 180 0,0 -1.3815101,-1.5442803 L-1.3815101,-1.8842803 A0.12,0.12 0 0,0 -1.6215101,-1.8842803 L-1.6215101,-1.5442803z"
     transform="matrix(1,0,0,-1,5.9278761,4.9957197)"
     fill="rgb(255,255,255)"
     stroke="rgb(0,0,0)"
     stroke-width="0.0010cm"
     stroke-linecap="round"
     stroke-linejoin="round"
     id="path30"
     style="fill:none;stroke:#000000;stroke-opacity:1;vector-effect:non-scaling-stroke;-inkscape-stroke:hairline;stroke-width:0.02645833;stroke-dasharray:none" /><path
     d="M-3.1815101,1.9407197 A0.12,0.12 0 0,0 -3.4215101,1.9407197 L-3.4215101,2.2807197 A0.12,0.12 180 0,0 -3.1815101,2.2807197 L-3.1815101,1.9407197z"
     transform="matrix(1,0,0,-1,5.9278761,4.9957197)"
     fill="rgb(255,255,255)"
     stroke="rgb(0,0,0)"
     stroke-width="0.0010cm"
     stroke-linecap="round"
     stroke-linejoin="round"
     id="path31"
     style="fill:none;stroke:#000000;stroke-opacity:1;vector-effect:non-scaling-stroke;-inkscape-stroke:hairline;stroke-width:0.02645833;stroke-dasharray:none" /><path
     d="M-3.1815101,0.5807197 L-3.1815101,0.2407197 A0.12,0.12 0 0,0 -3.4215101,0.2407197 L-3.4215101,0.5807197 A0.12,0.12 180 0,0 -3.1815101,0.5807197z"
     transform="matrix(1,0,0,-1,5.9278761,4.9957197)"
     fill="rgb(255,255,255)"
     stroke="rgb(0,0,0)"
     stroke-width="0.0010cm"
     stroke-linecap="round"
     stroke-linejoin="round"
     id="path32"
     style="fill:none;stroke:#000000;stroke-opacity:1;vector-effect:non-scaling-stroke;-inkscape-stroke:hairline;stroke-width:0.02645833;stroke-dasharray:none" /><path
     d="M-1.6215101,0.8357197 A0.12,0.12 180 0,0 -1.3815101,0.8357197 L-1.3815101,0.4957197 A0.12,0.12 0 0,0 -1.6215101,0.4957197 L-1.6215101,0.8357197z"
     transform="matrix(1,0,0,-1,5.9278761,4.9957197)"
     fill="rgb(255,255,255)"
     stroke="rgb(0,0,0)"
     stroke-width="0.0010cm"
     stroke-linecap="round"
     stroke-linejoin="round"
     id="path33"
     style="fill:none;stroke:#000000;stroke-opacity:1;vector-effect:non-scaling-stroke;-inkscape-stroke:hairline;stroke-width:0.02645833;stroke-dasharray:none" /><path
     d="M0.1784899,2.9607197 A0.12,0.12 180 0,0 0.4184899,2.9607197 L0.4184899,2.6207197 A0.12,0.12 0 0,0 0.1784899,2.6207197 L0.1784899,2.9607197z"
     transform="matrix(1,0,0,-1,5.9278761,4.9957197)"
     fill="rgb(255,255,255)"
     stroke="rgb(0,0,0)"
     stroke-width="0.0010cm"
     stroke-linecap="round"
     stroke-linejoin="round"
     id="path34"
     style="fill:none;stroke:#000000;stroke-opacity:1;vector-effect:non-scaling-stroke;-inkscape-stroke:hairline;stroke-width:0.02645833;stroke-dasharray:none" /><path
     d="M1.9784899,0.8357197 A0.12,0.12 180 0,0 2.2184899,0.8357197 L2.2184899,0.4957197 A0.12,0.12 0 0,0 1.9784899,0.4957197 L1.9784899,0.8357197z"
     transform="matrix(1,0,0,-1,5.9278761,4.9957197)"
     fill="rgb(255,255,255)"
     stroke="rgb(0,0,0)"
     stroke-width="0.0010cm"
     stroke-linecap="round"
     stroke-linejoin="round"
     id="path35"
     style="fill:none;stroke:#000000;stroke-opacity:1;vector-effect:non-scaling-stroke;-inkscape-stroke:hairline;stroke-width:0.02645833;stroke-dasharray:none" /><path
     d="M-1.0265101,3.5457197 a0.175,0.175 0 1,1 0.35,0 a0.175,0.175 0 1,1 -0.35,0z"
     transform="matrix(1,0,0,-1,5.9278761,4.9957197)"
     fill="rgb(255,255,255)"
     stroke="rgb(0,0,0)"
     stroke-width="0.0010cm"
     stroke-linecap="round"
     stroke-linejoin="round"
     id="path36"
     style="fill:none;stroke:#000000;stroke-opacity:1;vector-effect:non-scaling-stroke;-inkscape-stroke:hairline;stroke-width:0.02645833;stroke-dasharray:none" /><path
     d="M1.3604899,3.9707197 a0.11,0.11 0 1,1 0.22,0 a0.11,0.11 0 1,1 -0.22,0z"
     transform="matrix(1,0,0,-1,5.9278761,4.9957197)"
     fill="rgb(255,255,255)"
     stroke="rgb(0,0,0)"
     stroke-width="0.0010cm"
     stroke-linecap="round"
     stroke-linejoin="round"
     id="path37"
     style="fill:none;stroke:#000000;stroke-opacity:1;vector-effect:non-scaling-stroke;-inkscape-stroke:hairline;stroke-width:0.02645833;stroke-dasharray:none" /><path
     d="M1.3604899,2.2707197 a0.11,0.11 0 1,1 0.22,0 a0.11,0.11 0 1,1 -0.22,0z"
     transform="matrix(1,0,0,-1,5.9278761,4.9957197)"
     fill="rgb(255,255,255)"
     stroke="rgb(0,0,0)"
     stroke-width="0.0010cm"
     stroke-linecap="round"
     stroke-linejoin="round"
     id="path38"
     style="fill:none;stroke:#000000;stroke-opacity:1;vector-effect:non-scaling-stroke;-inkscape-stroke:hairline;stroke-width:0.02645833;stroke-dasharray:none" /><path
     d="M3.1604899,1.8457197 a0.11,0.11 0 1,1 0.22,0 a0.11,0.11 0 1,1 -0.22,0z"
     transform="matrix(1,0,0,-1,5.9278761,4.9957197)"
     fill="rgb(255,255,255)"
     stroke="rgb(0,0,0)"
     stroke-width="0.0010cm"
     stroke-linecap="round"
     stroke-linejoin="round"
     id="path39"
     style="fill:none;stroke:#000000;stroke-opacity:1;vector-effect:non-scaling-stroke;-inkscape-stroke:hairline;stroke-width:0.02645833;stroke-dasharray:none" /><path
     d="M4.3734899,0.4007197 a0.175,0.175 0 1,1 0.35,0 a0.175,0.175 0 1,1 -0.35,0z"
     transform="matrix(1,0,0,-1,5.9278761,4.9957197)"
     fill="rgb(255,255,255)"
     stroke="rgb(0,0,0)"
     stroke-width="0.0010cm"
     stroke-linecap="round"
     stroke-linejoin="round"
     id="path40"
     style="fill:none;stroke:#000000;stroke-opacity:1;vector-effect:non-scaling-stroke;-inkscape-stroke:hairline;stroke-width:0.02645833;stroke-dasharray:none" /><path
     d="M-1.0265101,0.1457197 a0.175,0.175 0 1,1 0.35,0 a0.175,0.175 0 1,1 -0.35,0z"
     transform="matrix(1,0,0,-1,5.9278761,4.9957197)"
     fill="rgb(255,255,255)"
     stroke="rgb(0,0,0)"
     stroke-width="0.0010cm"
     stroke-linecap="round"
     stroke-linejoin="round"
     id="path41"
     style="fill:none;stroke:#000000;stroke-opacity:1;vector-effect:non-scaling-stroke;-inkscape-stroke:hairline;stroke-width:0.02645833;stroke-dasharray:none" /><path
     d="M-4.3642135,-3.3400787 a0.11,0.11 0 1,1 0.22,0 a0.11,0.11 0 1,1 -0.22,0z"
     transform="matrix(1,0,0,-1,5.9278761,4.9957197)"
     fill="rgb(255,255,255)"
     stroke="rgb(0,0,0)"
     stroke-width="0.0010cm"
     stroke-linecap="round"
     stroke-linejoin="round"
     id="path42"
     style="fill:none;stroke:#000000;stroke-opacity:1;vector-effect:non-scaling-stroke;-inkscape-stroke:hairline;stroke-width:0.02645833;stroke-dasharray:none" /><path
     d="M4.3734899,-1.2992803 a0.175,0.175 0 1,1 0.35,0 a0.175,0.175 0 1,1 -0.35,0z"
     transform="matrix(1,0,0,-1,5.9278761,4.9957197)"
     fill="rgb(255,255,255)"
     stroke="rgb(0,0,0)"
     stroke-width="0.0010cm"
     stroke-linecap="round"
     stroke-linejoin="round"
     id="path43"
     style="fill:none;stroke:#000000;stroke-opacity:1;vector-effect:non-scaling-stroke;-inkscape-stroke:hairline;stroke-width:0.02645833;stroke-dasharray:none" /><path
     d="M-4.8171351,-3.6893649 a0.175,0.175 0 1,1 0.35,0 a0.175,0.175 0 1,1 -0.35,0z"
     transform="matrix(1,0,0,-1,5.9278761,4.9957197)"
     fill="rgb(255,255,255)"
     stroke="rgb(0,0,0)"
     stroke-width="0.0010cm"
     stroke-linecap="round"
     stroke-linejoin="round"
     id="path44"
     style="fill:none;stroke:#000000;stroke-opacity:1;vector-effect:non-scaling-stroke;-inkscape-stroke:hairline;stroke-width:0.02645833;stroke-dasharray:none" /><path
     d="M0.7734899,0.5707197 a0.175,0.175 0 1,1 0.35,0 a0.175,0.175 0 1,1 -0.35,0z"
     transform="matrix(1,0,0,-1,5.9278761,4.9957197)"
     fill="rgb(255,255,255)"
     stroke="rgb(0,0,0)"
     stroke-width="0.0010cm"
     stroke-linecap="round"
     stroke-linejoin="round"
     id="path45"
     style="fill:none;stroke:#000000;stroke-opacity:1;vector-effect:non-scaling-stroke;-inkscape-stroke:hairline;stroke-width:0.02645833;stroke-dasharray:none" /><path
     d="M3.1604899,0.1457197 a0.11,0.11 0 1,1 0.22,0 a0.11,0.11 0 1,1 -0.22,0z"
     transform="matrix(1,0,0,-1,5.9278761,4.9957197)"
     fill="rgb(255,255,255)"
     stroke="rgb(0,0,0)"
     stroke-width="0.0010cm"
     stroke-linecap="round"
     stroke-linejoin="round"
     id="path46"
     style="fill:none;stroke:#000000;stroke-opacity:1;vector-effect:non-scaling-stroke;-inkscape-stroke:hairline;stroke-width:0.02645833;stroke-dasharray:none" /><path
     d="M4.9604899,2.1007197 a0.11,0.11 0 1,1 0.22,0 a0.11,0.11 0 1,1 -0.22,0z"
     transform="matrix(1,0,0,-1,5.9278761,4.9957197)"
     fill="rgb(255,255,255)"
     stroke="rgb(0,0,0)"
     stroke-width="0.0010cm"
     stroke-linecap="round"
     stroke-linejoin="round"
     id="path47"
     style="fill:none;stroke:#000000;stroke-opacity:1;vector-effect:non-scaling-stroke;-inkscape-stroke:hairline;stroke-width:0.02645833;stroke-dasharray:none" /><path
     d="M-0.4395101,1.8457197 a0.11,0.11 0 1,1 0.22,0 a0.11,0.11 0 1,1 -0.22,0z"
     transform="matrix(1,0,0,-1,5.9278761,4.9957197)"
     fill="rgb(255,255,255)"
     stroke="rgb(0,0,0)"
     stroke-width="0.0010cm"
     stroke-linecap="round"
     stroke-linejoin="round"
     id="path48"
     style="fill:none;stroke:#000000;stroke-opacity:1;vector-effect:non-scaling-stroke;-inkscape-stroke:hairline;stroke-width:0.02645833;stroke-dasharray:none" /><path
     d="M-1.0265101,1.8457197 a0.175,0.175 0 1,1 0.35,0 a0.175,0.175 0 1,1 -0.35,0z"
     transform="matrix(1,0,0,-1,5.9278761,4.9957197)"
     fill="rgb(255,255,255)"
     stroke="rgb(0,0,0)"
     stroke-width="0.0010cm"
     stroke-linecap="round"
     stroke-linejoin="round"
     id="path49"
     style="fill:none;stroke:#000000;stroke-opacity:1;vector-effect:non-scaling-stroke;-inkscape-stroke:hairline;stroke-width:0.02645833;stroke-dasharray:none" /><path
     d="M3.1604899,3.5457197 a0.11,0.11 0 1,1 0.22,0 a0.11,0.11 0 1,1 -0.22,0z"
     transform="matrix(1,0,0,-1,5.9278761,4.9957197)"
     fill="rgb(255,255,255)"
     stroke="rgb(0,0,0)"
     stroke-width="0.0010cm"
     stroke-linecap="round"
     stroke-linejoin="round"
     id="path50"
     style="fill:none;stroke:#000000;stroke-opacity:1;vector-effect:non-scaling-stroke;-inkscape-stroke:hairline;stroke-width:0.02645833;stroke-dasharray:none" /><path
     d="M-2.2395101,3.2907197 a0.11,0.11 0 1,1 0.22,0 a0.11,0.11 0 1,1 -0.22,0z"
     transform="matrix(1,0,0,-1,5.9278761,4.9957197)"
     fill="rgb(255,255,255)"
     stroke="rgb(0,0,0)"
     stroke-width="0.0010cm"
     stroke-linecap="round"
     stroke-linejoin="round"
     id="path51"
     style="fill:none;stroke:#000000;stroke-opacity:1;vector-effect:non-scaling-stroke;-inkscape-stroke:hairline;stroke-width:0.02645833;stroke-dasharray:none" /><path
     d="M3.7784899,1.0907197 A0.12,0.12 180 0,0 4.0184899,1.0907197 L4.0184899,0.7507197 A0.12,0.12 0 0,0 3.7784899,0.7507197 L3.7784899,1.0907197z"
     transform="matrix(1,0,0,-1,5.9278761,4.9957197)"
     fill="rgb(255,255,255)"
     stroke="rgb(0,0,0)"
     stroke-width="0.0010cm"
     stroke-linecap="round"
     stroke-linejoin="round"
     id="path52"
     style="fill:none;stroke:#000000;stroke-opacity:1;vector-effect:non-scaling-stroke;-inkscape-stroke:hairline;stroke-width:0.02645833;stroke-dasharray:none" /><path
     d="M1.9784899,4.2357197 A0.12,0.12 180 0,0 2.2184899,4.2357197 L2.2184899,3.8957197 A0.12,0.12 0 0,0 1.9784899,3.8957197 L1.9784899,4.2357197z"
     transform="matrix(1,0,0,-1,5.9278761,4.9957197)"
     fill="rgb(255,255,255)"
     stroke="rgb(0,0,0)"
     stroke-width="0.0010cm"
     stroke-linecap="round"
     stroke-linejoin="round"
     id="path53"
     style="fill:none;stroke:#000000;stroke-opacity:1;vector-effect:non-scaling-stroke;-inkscape-stroke:hairline;stroke-width:0.02645833;stroke-dasharray:none" /><path
     d="M-1.6215101,4.2357197 A0.12,0.12 180 0,0 -1.3815101,4.2357197 L-1.3815101,3.8957197 A0.12,0.12 0 0,0 -1.6215101,3.8957197 L-1.6215101,4.2357197z"
     transform="matrix(1,0,0,-1,5.9278761,4.9957197)"
     fill="rgb(255,255,255)"
     stroke="rgb(0,0,0)"
     stroke-width="0.0010cm"
     stroke-linecap="round"
     stroke-linejoin="round"
     id="path54"
     style="fill:none;stroke:#000000;stroke-opacity:1;vector-effect:non-scaling-stroke;-inkscape-stroke:hairline;stroke-width:0.02645833;stroke-dasharray:none" /><path
     d="M-3.8477954,-2.24232 A0.12,0.12 201 0,0 -3.6237361,-2.1563117 L-3.501891,-2.4737291 A0.12,0.12 21 0,0 -3.7259503,-2.5597374 L-3.8477954,-2.24232z"
     transform="matrix(1,0,0,-1,5.9278761,4.9957197)"
     fill="rgb(255,255,255)"
     stroke="rgb(0,0,0)"
     stroke-width="0.0010cm"
     stroke-linecap="round"
     stroke-linejoin="round"
     id="path55"
     style="fill:none;stroke:#000000;stroke-opacity:1;vector-effect:non-scaling-stroke;-inkscape-stroke:hairline;stroke-width:0.02645833;stroke-dasharray:none" /><path
     d="M-3.1815101,3.9807197 L-3.1815101,3.6407197 A0.12,0.12 0 0,0 -3.4215101,3.6407197 L-3.4215101,3.9807197 A0.12,0.12 180 0,0 -3.1815101,3.9807197z"
     transform="matrix(1,0,0,-1,5.9278761,4.9957197)"
     fill="rgb(255,255,255)"
     stroke="rgb(0,0,0)"
     stroke-width="0.0010cm"
     stroke-linecap="round"
     stroke-linejoin="round"
     id="path56"
     style="fill:none;stroke:#000000;stroke-opacity:1;vector-effect:non-scaling-stroke;-inkscape-stroke:hairline;stroke-width:0.02645833;stroke-dasharray:none" /><path
     d="M-5.6760567,-3.6918255 A0.12,0.12 221.9999991 0,0 -5.497702,-3.5312342 L-5.2701976,-3.7839034 A0.12,0.12 42 1,0 -5.4485523,-3.9444948 L-5.6760567,-3.6918255z"
     transform="matrix(1,0,0,-1,5.9278761,4.9957197)"
     fill="rgb(255,255,255)"
     stroke="rgb(0,0,0)"
     stroke-width="0.0010cm"
     stroke-linecap="round"
     stroke-linejoin="round"
     id="path57"
     style="fill:none;stroke:#000000;stroke-opacity:1;vector-effect:non-scaling-stroke;-inkscape-stroke:hairline;stroke-width:0.02645833;stroke-dasharray:none" /><path
     d="M-1.6215101,2.5357197 A0.12,0.12 180 0,0 -1.3815101,2.5357197 L-1.3815101,2.1957197 A0.12,0.12 0 0,0 -1.6215101,2.1957197 L-1.6215101,2.5357197z"
     transform="matrix(1,0,0,-1,5.9278761,4.9957197)"
     fill="rgb(255,255,255)"
     stroke="rgb(0,0,0)"
     stroke-width="0.0010cm"
     stroke-linecap="round"
     stroke-linejoin="round"
     id="path58"
     style="fill:none;stroke:#000000;stroke-opacity:1;vector-effect:non-scaling-stroke;-inkscape-stroke:hairline;stroke-width:0.02645833;stroke-dasharray:none" /><path
     d="M0.1784899,1.2607197 A0.12,0.12 180 0,0 0.4184899,1.2607197 L0.4184899,0.9207197 A0.12,0.12 0 0,0 0.1784899,0.9207197 L0.1784899,1.2607197z"
     transform="matrix(1,0,0,-1,5.9278761,4.9957197)"
     fill="rgb(255,255,255)"
     stroke="rgb(0,0,0)"
     stroke-width="0.0010cm"
     stroke-linecap="round"
     stroke-linejoin="round"
     id="path59"
     style="fill:none;stroke:#000000;stroke-opacity:1;vector-effect:non-scaling-stroke;-inkscape-stroke:hairline;stroke-width:0.02645833;stroke-dasharray:none" /><path
     d="M3.7784899,2.7907197 A0.12,0.12 180 0,0 4.0184899,2.7907197 L4.0184899,2.4507197 A0.12,0.12 0 0,0 3.7784899,2.4507197 L3.7784899,2.7907197z"
     transform="matrix(1,0,0,-1,5.9278761,4.9957197)"
     fill="rgb(255,255,255)"
     stroke="rgb(0,0,0)"
     stroke-width="0.0010cm"
     stroke-linecap="round"
     stroke-linejoin="round"
     id="path60"
     style="fill:none;stroke:#000000;stroke-opacity:1;vector-effect:non-scaling-stroke;-inkscape-stroke:hairline;stroke-width:0.02645833;stroke-dasharray:none" /><path
     d="M-2.8265101,3.2907197 a0.175,0.175 0 1,1 0.35,0 a0.175,0.175 0 1,1 -0.35,0z"
     transform="matrix(1,0,0,-1,5.9278761,4.9957197)"
     fill="rgb(255,255,255)"
     stroke="rgb(0,0,0)"
     stroke-width="0.0010cm"
     stroke-linecap="round"
     stroke-linejoin="round"
     id="path61"
     style="fill:none;stroke:#000000;stroke-opacity:1;vector-effect:non-scaling-stroke;-inkscape-stroke:hairline;stroke-width:0.02645833;stroke-dasharray:none" /><path
     d="M-0.4395101,3.5457197 a0.11,0.11 0 1,1 0.22,0 a0.11,0.11 0 1,1 -0.22,0z"
     transform="matrix(1,0,0,-1,5.9278761,4.9957197)"
     fill="rgb(255,255,255)"
     stroke="rgb(0,0,0)"
     stroke-width="0.0010cm"
     stroke-linecap="round"
     stroke-linejoin="round"
     id="path62"
     style="fill:none;stroke:#000000;stroke-opacity:1;vector-effect:non-scaling-stroke;-inkscape-stroke:hairline;stroke-width:0.02645833;stroke-dasharray:none" /><path
     d="M2.5734899,3.5457197 a0.175,0.175 0 1,1 0.35,0 a0.175,0.175 0 1,1 -0.35,0z"
     transform="matrix(1,0,0,-1,5.9278761,4.9957197)"
     fill="rgb(255,255,255)"
     stroke="rgb(0,0,0)"
     stroke-width="0.0010cm"
     stroke-linecap="round"
     stroke-linejoin="round"
     id="path63"
     style="fill:none;stroke:#000000;stroke-opacity:1;vector-effect:non-scaling-stroke;-inkscape-stroke:hairline;stroke-width:0.02645833;stroke-dasharray:none" /><path
     d="M-2.8265101,1.5907197 a0.175,0.175 0 1,1 0.35,0 a0.175,0.175 0 1,1 -0.35,0z"
     transform="matrix(1,0,0,-1,5.9278761,4.9957197)"
     fill="rgb(255,255,255)"
     stroke="rgb(0,0,0)"
     stroke-width="0.0010cm"
     stroke-linecap="round"
     stroke-linejoin="round"
     id="path64"
     style="fill:none;stroke:#000000;stroke-opacity:1;vector-effect:non-scaling-stroke;-inkscape-stroke:hairline;stroke-width:0.02645833;stroke-dasharray:none" /><path
     d="M0.7734899,2.2707197 a0.175,0.175 0 1,1 0.35,0 a0.175,0.175 0 1,1 -0.35,0z"
     transform="matrix(1,0,0,-1,5.9278761,4.9957197)"
     fill="rgb(255,255,255)"
     stroke="rgb(0,0,0)"
     stroke-width="0.0010cm"
     stroke-linecap="round"
     stroke-linejoin="round"
     id="path65"
     style="fill:none;stroke:#000000;stroke-opacity:1;vector-effect:non-scaling-stroke;-inkscape-stroke:hairline;stroke-width:0.02645833;stroke-dasharray:none" /><path
     d="M2.5734899,1.8457197 a0.175,0.175 0 1,1 0.35,0 a0.175,0.175 0 1,1 -0.35,0z"
     transform="matrix(1,0,0,-1,5.9278761,4.9957197)"
     fill="rgb(255,255,255)"
     stroke="rgb(0,0,0)"
     stroke-width="0.0010cm"
     stroke-linecap="round"
     stroke-linejoin="round"
     id="path66"
     style="fill:none;stroke:#000000;stroke-opacity:1;vector-effect:non-scaling-stroke;-inkscape-stroke:hairline;stroke-width:0.02645833;stroke-dasharray:none" /><path
     d="M1.3604899,0.5707197 a0.11,0.11 0 1,1 0.22,0 a0.11,0.11 0 1,1 -0.22,0z"
     transform="matrix(1,0,0,-1,5.9278761,4.9957197)"
     fill="rgb(255,255,255)"
     stroke="rgb(0,0,0)"
     stroke-width="0.0010cm"
     stroke-linecap="round"
     stroke-linejoin="round"
     id="path67"
     style="fill:none;stroke:#000000;stroke-opacity:1;vector-effect:non-scaling-stroke;-inkscape-stroke:hairline;stroke-width:0.02645833;stroke-dasharray:none" /><path
     d="M-0.4395101,0.1457197 a0.11,0.11 0 1,1 0.22,0 a0.11,0.11 0 1,1 -0.22,0z"
     transform="matrix(1,0,0,-1,5.9278761,4.9957197)"
     fill="rgb(255,255,255)"
     stroke="rgb(0,0,0)"
     stroke-width="0.0010cm"
     stroke-linecap="round"
     stroke-linejoin="round"
     id="path68"
     style="fill:none;stroke:#000000;stroke-opacity:1;vector-effect:non-scaling-stroke;-inkscape-stroke:hairline;stroke-width:0.02645833;stroke-dasharray:none" /><path
     d="M-2.2395101,-0.1092803 a0.11,0.11 0 1,1 0.22,0 a0.11,0.11 0 1,1 -0.22,0z"
     transform="matrix(1,0,0,-1,5.9278761,4.9957197)"
     fill="rgb(255,255,255)"
     stroke="rgb(0,0,0)"
     stroke-width="0.0010cm"
     stroke-linecap="round"
     stroke-linejoin="round"
     id="path69"
     style="fill:none;stroke:#000000;stroke-opacity:1;vector-effect:non-scaling-stroke;-inkscape-stroke:hairline;stroke-width:0.02645833;stroke-dasharray:none" /><path
     d="M-3.0566646,-2.6105472 a0.175,0.175 0 1,1 0.35,0 a0.175,0.175 0 1,1 -0.35,0z"
     transform="matrix(1,0,0,-1,5.9278761,4.9957197)"
     fill="rgb(255,255,255)"
     stroke="rgb(0,0,0)"
     stroke-width="0.0010cm"
     stroke-linecap="round"
     stroke-linejoin="round"
     id="path70"
     style="fill:none;stroke:#000000;stroke-opacity:1;vector-effect:non-scaling-stroke;-inkscape-stroke:hairline;stroke-width:0.02645833;stroke-dasharray:none" /><path
     d="M-1.0265101,-2.2342803 a0.175,0.175 0 1,1 0.35,0 a0.175,0.175 0 1,1 -0.35,0z"
     transform="matrix(1,0,0,-1,5.9278761,4.9957197)"
     fill="rgb(255,255,255)"
     stroke="rgb(0,0,0)"
     stroke-width="0.0010cm"
     stroke-linecap="round"
     stroke-linejoin="round"
     id="path71"
     style="fill:none;stroke:#000000;stroke-opacity:1;vector-effect:non-scaling-stroke;-inkscape-stroke:hairline;stroke-width:0.02645833;stroke-dasharray:none" /><path
     d="M-0.4395101,-2.2342803 a0.11,0.11 0 1,1 0.22,0 a0.11,0.11 0 1,1 -0.22,0z"
     transform="matrix(1,0,0,-1,5.9278761,4.9957197)"
     fill="rgb(255,255,255)"
     stroke="rgb(0,0,0)"
     stroke-width="0.0010cm"
     stroke-linecap="round"
     stroke-linejoin="round"
     id="path72"
     style="fill:none;stroke:#000000;stroke-opacity:1;vector-effect:non-scaling-stroke;-inkscape-stroke:hairline;stroke-width:0.02645833;stroke-dasharray:none" /><path
     d="M-3.9665101,-1.1304869 a0.135,0.135 0 1,1 0.27,0 a0.135,0.135 0 1,1 -0.27,0z"
     transform="matrix(1,0,0,-1,5.9278761,4.9957197)"
     fill="rgb(255,255,255)"
     stroke="rgb(0,0,0)"
     stroke-width="0.0010cm"
     stroke-linecap="round"
     stroke-linejoin="round"
     id="path73"
     style="fill:none;stroke:#000000;stroke-opacity:1;vector-effect:non-scaling-stroke;-inkscape-stroke:hairline;stroke-width:0.02645833;stroke-dasharray:none" /><path
     d="M3.1884899,4.7457197 a0.135,0.135 0 1,1 0.27,0 a0.135,0.135 0 1,1 -0.27,0z"
     transform="matrix(1,0,0,-1,5.9278761,4.9957197)"
     fill="rgb(255,255,255)"
     stroke="rgb(0,0,0)"
     stroke-width="0.0010cm"
     stroke-linecap="round"
     stroke-linejoin="round"
     id="path74"
     style="fill:none;stroke:#000000;stroke-opacity:1;vector-effect:non-scaling-stroke;-inkscape-stroke:hairline;stroke-width:0.02645833;stroke-dasharray:none" /><path
     d="M-3.9365101,4.7457197 a0.135,0.135 0 1,1 0.27,0 a0.135,0.135 0 1,1 -0.27,0z"
     transform="matrix(1,0,0,-1,5.9278761,4.9957197)"
     fill="rgb(255,255,255)"
     stroke="rgb(0,0,0)"
     stroke-width="0.0010cm"
     stroke-linecap="round"
     stroke-linejoin="round"
     id="path75"
     style="fill:none;stroke:#000000;stroke-opacity:1;vector-effect:non-scaling-stroke;-inkscape-stroke:hairline;stroke-width:0.02645833;stroke-dasharray:none" /><path
     d="M5.5634899,-2.6792802 a0.135,0.135 0 1,1 0.27,0 a0.135,0.135 0 1,1 -0.27,0z"
     transform="matrix(1,0,0,-1,5.9278761,4.9957197)"
     fill="rgb(255,255,255)"
     stroke="rgb(0,0,0)"
     stroke-width="0.0010cm"
     stroke-linecap="round"
     stroke-linejoin="round"
     id="path76"
     style="fill:none;stroke:#000000;stroke-opacity:1;vector-effect:non-scaling-stroke;-inkscape-stroke:hairline;stroke-width:0.02645833;stroke-dasharray:none" /></svg>
