<?xml version="1.0" encoding="UTF-8" standalone="no"?>
<!-- Generator: Fusion 360, Shaper Origin Export Add-In, Version 1.8.0  -->

<svg
   shaper:fusionaddin="version:1.8.0"
   width="11.876366cm"
   height="9.9708256cm"
   version="1.1"
   x="0cm"
   y="0cm"
   viewBox="0 0 11.876366 9.9708256"
   enable-background="new 0 0 11.876366 9.9708256"
   xml:space="preserve"
   id="svg77"
   sodipodi:docname="Bottom Left.svg"
   inkscape:version="1.3.2 (091e20e, 2023-11-25)"
   xmlns:inkscape="http://www.inkscape.org/namespaces/inkscape"
   xmlns:sodipodi="http://sodipodi.sourceforge.net/DTD/sodipodi-0.dtd"
   xmlns="http://www.w3.org/2000/svg"
   xmlns:svg="http://www.w3.org/2000/svg"
   xmlns:shaper="http://www.shapertools.com/namespaces/shaper"><defs
     id="defs77" /><sodipodi:namedview
     id="namedview77"
     pagecolor="#ffffff"
     bordercolor="#000000"
     borderopacity="0.25"
     inkscape:showpageshadow="2"
     inkscape:pageopacity="0.0"
     inkscape:pagecheckerboard="0"
     inkscape:deskcolor="#d1d1d1"
     inkscape:document-units="cm"
     inkscape:zoom="0.6371548"
     inkscape:cx="224.43526"
     inkscape:cy="189.12202"
     inkscape:window-width="1392"
     inkscape:window-height="1212"
     inkscape:window-x="2240"
     inkscape:window-y="25"
     inkscape:window-maximized="0"
     inkscape:current-layer="svg77" /><path
     d="m 11.863523,8.6537791 a 0.05,0.05 0 0 0 -0.0037,-0.070614 L 10.016543,6.9234694 A 0.05,0.05 0 0 1 10,6.8863124 V 0.05000043 A 0.05,0.05 0 0 0 9.9500001,4.3386945e-7 H 0.05000004 A 0.05,0.05 0 0 0 4.324041e-8,0.05000043 V 7.8750004 A 0.05,0.05 0 0 0 0.05000004,7.9250004 H 5.5249996 a 0.35,0.35 0 0 1 0.3168177,0.20125 0.05,0.05 0 0 0 0.04526,0.02875 h 1.7265608 a 0.35,0.35 0 0 1 0.1254287,0.023247 l 1.5191939,0.5831638 a 0.35,0.35 0 0 1 0.1087669,0.066653 L 10.62193,9.9579833 a 0.05,0.05 0 0 0 0.07061,-0.0037 z"
     fill="#000000"
     stroke-linecap="round"
     stroke-linejoin="round"
     id="path1"
     style="fill:none;stroke:#000000;stroke-opacity:1;vector-effect:non-scaling-stroke;-inkscape-stroke:hairline;stroke-width:0.02645833;stroke-dasharray:none" /><path
     d="m 6.3879996,7.2300004 v 0.11 h 0.049574 a 0.055,0.055 0 0 1 0.038891,0.016109 l 0.067426,0.067426 a 0.055,0.055 0 0 1 0.016109,0.038891 v 0.016424 a 0.0954545,0.0954545 0 0 0 0.095,0.08615 h 0.29 a 0.105,0.105 0 0 1 0.105,0.105 v 0.04 h 0.165 v 0.22 h -0.165 v 0.04 a 0.105,0.105 0 0 1 -0.105,0.105 h -0.33 A 0.1251812,0.1251812 0 0 1 6.4956343,7.9875321 0.1859393,0.1859393 0 0 0 6.3480526,7.8600004 H 6.162426 A 0.055,0.055 0 0 1 6.123535,7.8438914 L 6.056109,7.7764654 A 0.055,0.055 0 0 1 6.04,7.7375744 V 7.7100004 H 5.875 v -0.22 H 6.04 v -0.027574 a 0.055,0.055 0 0 1 0.016109,-0.038891 l 0.067426,-0.067426 a 0.055,0.055 0 0 1 0.038891,-0.016109 h 0.00557 v -0.11 a 0.11,0.11 0 0 1 0.22,0 z"
     fill="#ffffff"
     stroke="#000000"
     stroke-width="0.001cm"
     stroke-linecap="round"
     stroke-linejoin="round"
     id="path2"
     style="fill:none;stroke:#000000;stroke-opacity:1;vector-effect:non-scaling-stroke;-inkscape-stroke:hairline;stroke-width:0.02645833;stroke-dasharray:none" /><path
     d="m 8.1879996,5.1050004 v 0.11 h 0.049574 a 0.055,0.055 0 0 1 0.038891,0.016109 l 0.067426,0.067426 a 0.055,0.055 0 0 1 0.016109,0.038891 v 0.016424 a 0.0954545,0.0954545 0 0 0 0.095,0.08615 h 0.29 a 0.105,0.105 0 0 1 0.105,0.105 v 0.04 h 0.165 v 0.22 h -0.165 v 0.04 a 0.105,0.105 0 0 1 -0.105,0.105 h -0.33 A 0.1251812,0.1251812 0 0 1 8.2956343,5.8625321 0.1859393,0.1859393 0 0 0 8.1480526,5.7350004 H 7.962426 A 0.055,0.055 0 0 1 7.923535,5.7188914 L 7.856109,5.6514654 A 0.055,0.055 0 0 1 7.84,5.6125744 V 5.5850004 H 7.675 v -0.22 H 7.84 v -0.027574 a 0.055,0.055 0 0 1 0.016109,-0.038891 l 0.067426,-0.067426 a 0.055,0.055 0 0 1 0.038891,-0.016109 h 0.00557 v -0.11 a 0.11,0.11 0 0 1 0.22,0 z"
     fill="#ffffff"
     stroke="#000000"
     stroke-width="0.001cm"
     stroke-linecap="round"
     stroke-linejoin="round"
     id="path3"
     style="fill:none;stroke:#000000;stroke-opacity:1;vector-effect:non-scaling-stroke;-inkscape-stroke:hairline;stroke-width:0.02645833;stroke-dasharray:none" /><path
     d="m 6.3879996,4.8500004 v 0.11 h 0.049574 a 0.055,0.055 0 0 1 0.038891,0.016109 l 0.067426,0.067426 a 0.055,0.055 0 0 1 0.016109,0.038891 v 0.016424 a 0.0954545,0.0954545 0 0 0 0.095,0.08615 h 0.29 a 0.105,0.105 0 0 1 0.105,0.105 v 0.04 h 0.165 v 0.22 h -0.165 v 0.04 a 0.105,0.105 0 0 1 -0.105,0.105 h -0.33 A 0.1251812,0.1251812 0 0 1 6.4956343,5.6075321 0.1859393,0.1859393 0 0 0 6.3480526,5.4800004 H 6.162426 A 0.055,0.055 0 0 1 6.123535,5.4638914 L 6.056109,5.3964654 A 0.055,0.055 0 0 1 6.04,5.3575744 V 5.3300004 H 5.875 v -0.22 H 6.04 v -0.027574 a 0.055,0.055 0 0 1 0.016109,-0.038891 l 0.067426,-0.067426 a 0.055,0.055 0 0 1 0.038891,-0.016109 h 0.00557 v -0.11 a 0.11,0.11 0 0 1 0.22,0 z"
     fill="#ffffff"
     stroke="#000000"
     stroke-width="0.001cm"
     stroke-linecap="round"
     stroke-linejoin="round"
     id="path4"
     style="fill:none;stroke:#000000;stroke-opacity:1;vector-effect:non-scaling-stroke;-inkscape-stroke:hairline;stroke-width:0.02645833;stroke-dasharray:none" /><path
     d="m 4.5879996,4.4250004 v 0.11 h 0.049574 a 0.055,0.055 0 0 1 0.038891,0.016109 l 0.067426,0.067426 a 0.055,0.055 0 0 1 0.016109,0.038891 v 0.016424 a 0.0954545,0.0954545 0 0 0 0.095,0.08615 h 0.29 a 0.105,0.105 0 0 1 0.105,0.105 v 0.04 h 0.165 v 0.22 h -0.165 v 0.04 a 0.105,0.105 0 0 1 -0.105,0.105 h -0.33 A 0.1251812,0.1251812 0 0 1 4.6956343,5.1825321 0.1859393,0.1859393 0 0 0 4.5480526,5.0550004 H 4.362426 A 0.055,0.055 0 0 1 4.323535,5.0388914 L 4.256109,4.9714654 A 0.055,0.055 0 0 1 4.24,4.9325744 V 4.9050004 H 4.075 v -0.22 H 4.24 v -0.027574 a 0.055,0.055 0 0 1 0.016109,-0.038891 l 0.067426,-0.067426 a 0.055,0.055 0 0 1 0.038891,-0.016109 h 0.00557 v -0.11 a 0.11,0.11 0 0 1 0.22,0 z"
     fill="#ffffff"
     stroke="#000000"
     stroke-width="0.001cm"
     stroke-linecap="round"
     stroke-linejoin="round"
     id="path5"
     style="fill:none;stroke:#000000;stroke-opacity:1;vector-effect:non-scaling-stroke;-inkscape-stroke:hairline;stroke-width:0.02645833;stroke-dasharray:none" /><path
     d="m 2.7879996,4.8500004 v 0.11 h 0.049574 a 0.055,0.055 0 0 1 0.038891,0.016109 l 0.067426,0.067426 a 0.055,0.055 0 0 1 0.016109,0.038891 v 0.016424 a 0.0954545,0.0954545 0 0 0 0.095,0.08615 h 0.29 a 0.105,0.105 0 0 1 0.105,0.105 v 0.04 h 0.165 v 0.22 h -0.165 v 0.04 a 0.105,0.105 0 0 1 -0.105,0.105 h -0.33 A 0.1251812,0.1251812 0 0 1 2.8956343,5.6075321 0.1859393,0.1859393 0 0 0 2.7480526,5.4800004 H 2.562426 A 0.055,0.055 0 0 1 2.523535,5.4638914 L 2.456109,5.3964654 A 0.055,0.055 0 0 1 2.44,5.3575744 V 5.3300004 H 2.275 v -0.22 H 2.44 v -0.027574 a 0.055,0.055 0 0 1 0.016109,-0.038891 l 0.067426,-0.067426 a 0.055,0.055 0 0 1 0.038891,-0.016109 h 0.00557 v -0.11 a 0.11,0.11 0 0 1 0.22,0 z"
     fill="#ffffff"
     stroke="#000000"
     stroke-width="0.001cm"
     stroke-linecap="round"
     stroke-linejoin="round"
     id="path6"
     style="fill:none;stroke:#000000;stroke-opacity:1;vector-effect:non-scaling-stroke;-inkscape-stroke:hairline;stroke-width:0.02645833;stroke-dasharray:none" /><path
     d="m 6.3879996,1.4500004 v 0.11 h 0.049574 a 0.055,0.055 0 0 1 0.038891,0.016109 l 0.067426,0.067426 a 0.055,0.055 0 0 1 0.016109,0.038891 v 0.016424 a 0.0954545,0.0954545 0 0 0 0.095,0.08615 h 0.29 a 0.105,0.105 0 0 1 0.105,0.105 v 0.04 h 0.165 v 0.22 h -0.165 v 0.04 a 0.105,0.105 0 0 1 -0.105,0.105 h -0.33 A 0.1251812,0.1251812 0 0 1 6.4956343,2.2075321 0.1859393,0.1859393 0 0 0 6.3480526,2.0800004 H 6.162426 A 0.055,0.055 0 0 1 6.123535,2.0638914 L 6.056109,1.9964654 A 0.055,0.055 0 0 1 6.04,1.9575744 V 1.9300004 H 5.875 v -0.22 H 6.04 v -0.027574 a 0.055,0.055 0 0 1 0.016109,-0.038891 l 0.067426,-0.067426 a 0.055,0.055 0 0 1 0.038891,-0.016109 h 0.00557 v -0.11 a 0.11,0.11 0 0 1 0.22,0 z"
     fill="#ffffff"
     stroke="#000000"
     stroke-width="0.001cm"
     stroke-linecap="round"
     stroke-linejoin="round"
     id="path7"
     style="fill:none;stroke:#000000;stroke-opacity:1;vector-effect:non-scaling-stroke;-inkscape-stroke:hairline;stroke-width:0.02645833;stroke-dasharray:none" /><path
     d="m 0.98799954,2.8950004 v 0.11 h 0.0495736 a 0.055,0.055 0 0 1 0.038891,0.016109 l 0.067426,0.067426 a 0.055,0.055 0 0 1 0.016109,0.038891 v 0.016424 a 0.0954545,0.0954545 0 0 0 0.095,0.08615 h 0.29 a 0.105,0.105 0 0 1 0.105,0.105 v 0.04 h 0.165 v 0.22 h -0.165 v 0.04 a 0.105,0.105 0 0 1 -0.105,0.105 h -0.33 A 0.1251812,0.1251812 0 0 1 1.0956342,3.6525322 0.1859393,0.1859393 0 0 0 0.94805254,3.5250005 h -0.1856266 a 0.055,0.055 0 0 1 -0.0388908,-0.016109 l -0.0674264,-0.067426 a 0.055,0.055 0 0 1 -0.0161092,-0.038891 v -0.027574 h -0.165 v -0.22 h 0.165 v -0.027574 a 0.055,0.055 0 0 1 0.0161092,-0.038891 l 0.0674264,-0.067426 a 0.055,0.055 0 0 1 0.0388908,-0.016109 h 0.005574 v -0.11 a 0.11,0.11 0 0 1 0.2199996,-1e-7 z"
     fill="#ffffff"
     stroke="#000000"
     stroke-width="0.001cm"
     stroke-linecap="round"
     stroke-linejoin="round"
     id="path8"
     style="fill:none;stroke:#000000;stroke-opacity:1;vector-effect:non-scaling-stroke;-inkscape-stroke:hairline;stroke-width:0.02645833;stroke-dasharray:none" /><path
     d="m 2.7879996,1.4500004 v 0.11 h 0.049574 a 0.055,0.055 0 0 1 0.038891,0.016109 l 0.067426,0.067426 a 0.055,0.055 0 0 1 0.016109,0.038891 v 0.016424 a 0.0954545,0.0954545 0 0 0 0.095,0.08615 h 0.29 a 0.105,0.105 0 0 1 0.105,0.105 v 0.04 h 0.165 v 0.22 h -0.165 v 0.04 a 0.105,0.105 0 0 1 -0.105,0.105 h -0.33 A 0.1251812,0.1251812 0 0 1 2.8956343,2.2075321 0.1859393,0.1859393 0 0 0 2.7480526,2.0800004 H 2.562426 A 0.055,0.055 0 0 1 2.523535,2.0638914 L 2.456109,1.9964654 A 0.055,0.055 0 0 1 2.44,1.9575744 V 1.9300004 H 2.275 v -0.22 H 2.44 v -0.027574 a 0.055,0.055 0 0 1 0.016109,-0.038891 l 0.067426,-0.067426 a 0.055,0.055 0 0 1 0.038891,-0.016109 h 0.00557 v -0.11 a 0.11,0.11 0 0 1 0.22,0 z"
     fill="#ffffff"
     stroke="#000000"
     stroke-width="0.001cm"
     stroke-linecap="round"
     stroke-linejoin="round"
     id="path9"
     style="fill:none;stroke:#000000;stroke-opacity:1;vector-effect:non-scaling-stroke;-inkscape-stroke:hairline;stroke-width:0.02645833;stroke-dasharray:none" /><path
     d="m 4.5879996,1.0250004 v 0.11 h 0.049574 a 0.055,0.055 0 0 1 0.038891,0.016109 l 0.067426,0.067426 a 0.055,0.055 0 0 1 0.016109,0.038891 v 0.016424 a 0.0954545,0.0954545 0 0 0 0.095,0.08615 h 0.29 a 0.105,0.105 0 0 1 0.105,0.105 v 0.04 h 0.165 v 0.22 h -0.165 v 0.04 a 0.105,0.105 0 0 1 -0.105,0.105 h -0.33 A 0.1251812,0.1251812 0 0 1 4.6956343,1.7825321 0.1859393,0.1859393 0 0 0 4.5480526,1.6550004 H 4.362426 A 0.055,0.055 0 0 1 4.323535,1.6388914 L 4.256109,1.5714654 A 0.055,0.055 0 0 1 4.24,1.5325744 V 1.5050004 H 4.075 v -0.22 H 4.24 v -0.027574 a 0.055,0.055 0 0 1 0.016109,-0.038891 l 0.067426,-0.067426 a 0.055,0.055 0 0 1 0.038891,-0.016109 h 0.00557 v -0.11 a 0.11,0.11 0 0 1 0.22,0 z"
     fill="#ffffff"
     stroke="#000000"
     stroke-width="0.001cm"
     stroke-linecap="round"
     stroke-linejoin="round"
     id="path10"
     style="fill:none;stroke:#000000;stroke-opacity:1;vector-effect:non-scaling-stroke;-inkscape-stroke:hairline;stroke-width:0.02645833;stroke-dasharray:none" /><path
     d="m 8.1879996,1.7050004 v 0.11 h 0.049574 a 0.055,0.055 0 0 1 0.038891,0.016109 l 0.067426,0.067426 a 0.055,0.055 0 0 1 0.016109,0.038891 v 0.016424 a 0.0954545,0.0954545 0 0 0 0.095,0.08615 h 0.29 a 0.105,0.105 0 0 1 0.105,0.105 v 0.04 h 0.165 v 0.22 h -0.165 v 0.04 a 0.105,0.105 0 0 1 -0.105,0.105 h -0.33 A 0.1251812,0.1251812 0 0 1 8.2956343,2.4625321 0.1859393,0.1859393 0 0 0 8.1480526,2.3350004 H 7.962426 A 0.055,0.055 0 0 1 7.923535,2.3188914 L 7.856109,2.2514654 A 0.055,0.055 0 0 1 7.84,2.2125744 V 2.1850004 H 7.675 v -0.22 H 7.84 v -0.027574 a 0.055,0.055 0 0 1 0.016109,-0.038891 l 0.067426,-0.067426 a 0.055,0.055 0 0 1 0.038891,-0.016109 h 0.00557 v -0.11 a 0.11,0.11 0 0 1 0.22,0 z"
     fill="#ffffff"
     stroke="#000000"
     stroke-width="0.001cm"
     stroke-linecap="round"
     stroke-linejoin="round"
     id="path11"
     style="fill:none;stroke:#000000;stroke-opacity:1;vector-effect:non-scaling-stroke;-inkscape-stroke:hairline;stroke-width:0.02645833;stroke-dasharray:none" /><path
     d="m 8.445519,7.4586197 -0.039421,0.1026939 0.046281,0.017765 a 0.055,0.055 0 0 1 0.030535,0.028977 l 0.038785,0.087111 a 0.055,0.055 0 0 1 0.0011,0.042081 l -0.00589,0.015333 a 0.0954545,0.0954545 0 0 0 0.057823,0.1144728 L 8.84547,7.9709801 a 0.105,0.105 0 0 1 0.060397,0.1356546 l -0.014335,0.037343 0.1540408,0.059131 -0.078841,0.2053877 -0.1540408,-0.059131 -0.014335,0.037343 A 0.105,0.105 0 0 1 8.6627024,8.4471061 L 8.3546208,8.3288447 A 0.1251812,0.1251812 0 0 1 8.2745298,8.2044093 0.1859393,0.1859393 0 0 0 8.1824538,8.0324596 L 8.0091565,7.9659366 a 0.055,0.055 0 0 1 -0.030535,-0.028976 l -0.038785,-0.087111 a 0.055,0.055 0 0 1 -0.0011,-0.042081 l 0.00988,-0.025742 -0.1540408,-0.059131 0.078841,-0.2053877 0.1540408,0.059131 0.00988,-0.025742 a 0.055,0.055 0 0 1 0.028976,-0.030535 l 0.087112,-0.038784 a 0.055,0.055 0 0 1 0.042081,-0.0011 l 0.0052,0.002 0.039421,-0.1026938 a 0.11000001,0.11000001 0 1 1 0.2053877,0.078841 z"
     fill="#ffffff"
     stroke="#000000"
     stroke-width="0.001cm"
     stroke-linecap="round"
     stroke-linejoin="round"
     id="path12"
     style="fill:none;stroke:#000000;stroke-opacity:1;vector-effect:non-scaling-stroke;-inkscape-stroke:hairline;stroke-width:0.02645833;stroke-dasharray:none" /><path
     d="m 0.98799954,6.2950004 v 0.11 h 0.0495736 a 0.055,0.055 0 0 1 0.038891,0.016109 l 0.067426,0.067427 a 0.055,0.055 0 0 1 0.016109,0.038891 v 0.016423 a 0.0954545,0.0954545 0 0 0 0.095,0.08615 h 0.29 a 0.105,0.105 0 0 1 0.105,0.105 v 0.04 h 0.165 v 0.22 h -0.165 v 0.04 a 0.105,0.105 0 0 1 -0.105,0.105 h -0.33 A 0.1251812,0.1251812 0 0 1 1.0956342,7.0525322 0.1859393,0.1859393 0 0 0 0.94805254,6.9250005 h -0.1856266 a 0.055,0.055 0 0 1 -0.0388908,-0.016109 l -0.0674264,-0.067426 a 0.055,0.055 0 0 1 -0.0161092,-0.038891 v -0.027574 h -0.165 v -0.22 h 0.165 v -0.027574 a 0.055,0.055 0 0 1 0.0161092,-0.038891 l 0.0674264,-0.067427 a 0.055,0.055 0 0 1 0.0388908,-0.016109 h 0.005574 v -0.11 a 0.11,0.11 0 0 1 0.2199996,9e-7 z"
     fill="#ffffff"
     stroke="#000000"
     stroke-width="0.001cm"
     stroke-linecap="round"
     stroke-linejoin="round"
     id="path13"
     style="fill:none;stroke:#000000;stroke-opacity:1;vector-effect:non-scaling-stroke;-inkscape-stroke:hairline;stroke-width:0.02645833;stroke-dasharray:none" /><path
     d="m 6.3879996,3.1500004 v 0.11 h 0.049574 a 0.055,0.055 0 0 1 0.038891,0.016109 l 0.067426,0.067426 a 0.055,0.055 0 0 1 0.016109,0.038891 v 0.016424 a 0.0954545,0.0954545 0 0 0 0.095,0.08615 h 0.29 a 0.105,0.105 0 0 1 0.105,0.105 v 0.04 h 0.165 v 0.22 h -0.165 v 0.04 a 0.105,0.105 0 0 1 -0.105,0.105 h -0.33 A 0.1251812,0.1251812 0 0 1 6.4956343,3.9075321 0.1859393,0.1859393 0 0 0 6.3480526,3.7800004 H 6.162426 A 0.055,0.055 0 0 1 6.123535,3.7638914 L 6.056109,3.6964654 A 0.055,0.055 0 0 1 6.04,3.6575744 V 3.6300004 H 5.875 v -0.22 H 6.04 v -0.027574 a 0.055,0.055 0 0 1 0.016109,-0.038891 l 0.067426,-0.067426 a 0.055,0.055 0 0 1 0.038891,-0.016109 h 0.00557 v -0.11 a 0.11,0.11 0 0 1 0.22,0 z"
     fill="#ffffff"
     stroke="#000000"
     stroke-width="0.001cm"
     stroke-linecap="round"
     stroke-linejoin="round"
     id="path14"
     style="fill:none;stroke:#000000;stroke-opacity:1;vector-effect:non-scaling-stroke;-inkscape-stroke:hairline;stroke-width:0.02645833;stroke-dasharray:none" /><path
     d="m 8.1879996,3.4050004 v 0.11 h 0.049574 a 0.055,0.055 0 0 1 0.038891,0.016109 l 0.067426,0.067426 a 0.055,0.055 0 0 1 0.016109,0.038891 v 0.016424 a 0.0954545,0.0954545 0 0 0 0.095,0.08615 h 0.29 a 0.105,0.105 0 0 1 0.105,0.105 v 0.04 h 0.165 v 0.22 h -0.165 v 0.04 a 0.105,0.105 0 0 1 -0.105,0.105 h -0.33 A 0.1251812,0.1251812 0 0 1 8.2956343,4.1625321 0.1859393,0.1859393 0 0 0 8.1480526,4.0350004 H 7.962426 A 0.055,0.055 0 0 1 7.923535,4.0188914 L 7.856109,3.9514654 A 0.055,0.055 0 0 1 7.84,3.9125744 V 3.8850004 H 7.675 v -0.22 H 7.84 v -0.027574 a 0.055,0.055 0 0 1 0.016109,-0.038891 l 0.067426,-0.067426 a 0.055,0.055 0 0 1 0.038891,-0.016109 h 0.00557 v -0.11 a 0.11,0.11 0 0 1 0.22,0 z"
     fill="#ffffff"
     stroke="#000000"
     stroke-width="0.001cm"
     stroke-linecap="round"
     stroke-linejoin="round"
     id="path15"
     style="fill:none;stroke:#000000;stroke-opacity:1;vector-effect:non-scaling-stroke;-inkscape-stroke:hairline;stroke-width:0.02645833;stroke-dasharray:none" /><path
     d="m 4.5879996,2.7250004 v 0.11 h 0.049574 a 0.055,0.055 0 0 1 0.038891,0.016109 l 0.067426,0.067426 a 0.055,0.055 0 0 1 0.016109,0.038891 v 0.016424 a 0.0954545,0.0954545 0 0 0 0.095,0.08615 h 0.29 a 0.105,0.105 0 0 1 0.105,0.105 v 0.04 h 0.165 v 0.22 h -0.165 v 0.04 a 0.105,0.105 0 0 1 -0.105,0.105 h -0.33 A 0.1251812,0.1251812 0 0 1 4.6956343,3.4825321 0.1859393,0.1859393 0 0 0 4.5480526,3.3550004 H 4.362426 A 0.055,0.055 0 0 1 4.323535,3.3388914 L 4.256109,3.2714654 A 0.055,0.055 0 0 1 4.24,3.2325744 V 3.2050004 H 4.075 v -0.22 H 4.24 v -0.027574 a 0.055,0.055 0 0 1 0.016109,-0.038891 l 0.067426,-0.067426 a 0.055,0.055 0 0 1 0.038891,-0.016109 h 0.00557 v -0.11 a 0.11,0.11 0 0 1 0.22,0 z"
     fill="#ffffff"
     stroke="#000000"
     stroke-width="0.001cm"
     stroke-linecap="round"
     stroke-linejoin="round"
     id="path16"
     style="fill:none;stroke:#000000;stroke-opacity:1;vector-effect:non-scaling-stroke;-inkscape-stroke:hairline;stroke-width:0.02645833;stroke-dasharray:none" /><path
     d="m 2.7879996,3.1500004 v 0.11 h 0.049574 a 0.055,0.055 0 0 1 0.038891,0.016109 l 0.067426,0.067426 a 0.055,0.055 0 0 1 0.016109,0.038891 v 0.016424 a 0.0954545,0.0954545 0 0 0 0.095,0.08615 h 0.29 a 0.105,0.105 0 0 1 0.105,0.105 v 0.04 h 0.165 v 0.22 h -0.165 v 0.04 a 0.105,0.105 0 0 1 -0.105,0.105 h -0.33 A 0.1251812,0.1251812 0 0 1 2.8956343,3.9075321 0.1859393,0.1859393 0 0 0 2.7480526,3.7800004 H 2.562426 A 0.055,0.055 0 0 1 2.523535,3.7638914 L 2.456109,3.6964654 A 0.055,0.055 0 0 1 2.44,3.6575744 V 3.6300004 H 2.275 v -0.22 H 2.44 v -0.027574 a 0.055,0.055 0 0 1 0.016109,-0.038891 l 0.067426,-0.067426 a 0.055,0.055 0 0 1 0.038891,-0.016109 h 0.00557 v -0.11 a 0.11,0.11 0 0 1 0.22,0 z"
     fill="#ffffff"
     stroke="#000000"
     stroke-width="0.001cm"
     stroke-linecap="round"
     stroke-linejoin="round"
     id="path17"
     style="fill:none;stroke:#000000;stroke-opacity:1;vector-effect:non-scaling-stroke;-inkscape-stroke:hairline;stroke-width:0.02645833;stroke-dasharray:none" /><path
     d="m 0.98799954,4.5950004 v 0.11 h 0.0495736 a 0.055,0.055 0 0 1 0.038891,0.016109 l 0.067426,0.067426 a 0.055,0.055 0 0 1 0.016109,0.038891 v 0.016424 a 0.0954545,0.0954545 0 0 0 0.095,0.08615 h 0.29 a 0.105,0.105 0 0 1 0.105,0.105 v 0.04 h 0.165 v 0.22 h -0.165 v 0.04 a 0.105,0.105 0 0 1 -0.105,0.105 h -0.33 A 0.1251812,0.1251812 0 0 1 1.0956342,5.3525322 0.1859393,0.1859393 0 0 0 0.94805254,5.2250005 h -0.1856266 a 0.055,0.055 0 0 1 -0.0388908,-0.016109 l -0.0674264,-0.067426 a 0.055,0.055 0 0 1 -0.0161092,-0.038891 v -0.027574 h -0.165 v -0.22 h 0.165 v -0.027574 a 0.055,0.055 0 0 1 0.0161092,-0.038891 l 0.0674264,-0.067426 a 0.055,0.055 0 0 1 0.0388908,-0.016109 h 0.005574 v -0.11 a 0.11,0.11 0 0 1 0.2199996,-1e-7 z"
     fill="#ffffff"
     stroke="#000000"
     stroke-width="0.001cm"
     stroke-linecap="round"
     stroke-linejoin="round"
     id="path18"
     style="fill:none;stroke:#000000;stroke-opacity:1;vector-effect:non-scaling-stroke;-inkscape-stroke:hairline;stroke-width:0.02645833;stroke-dasharray:none" /><path
     d="m 10.284449,8.4094032 -0.0736,0.081746 0.03684,0.033171 a 0.055,0.055 0 0 1 0.01812,0.037994 l 0.005,0.095225 a 0.055,0.055 0 0 1 -0.01405,0.039681 l -0.01099,0.012205 a 0.0954545,0.0954545 0 0 0 0.01295,0.1275895 l 0.215512,0.1940479 a 0.105,0.105 0 0 1 0.0078,0.1482889 l -0.02676,0.029726 0.122619,0.1104065 -0.147209,0.1634919 -0.122619,-0.1104066 -0.02676,0.029726 a 0.105,0.105 0 0 1 -0.148289,0.00777 L 9.8877274,9.1892532 A 0.1251812,0.1251812 0 0 1 9.8575495,9.0443806 0.1859393,0.1859393 0 0 0 9.8332102,8.8508547 L 9.6952628,8.7266462 a 0.055,0.055 0 0 1 -0.018123,-0.037994 l -0.00499,-0.095225 a 0.055,0.055 0 0 1 0.014052,-0.039681 l 0.01845,-0.020491 -0.1226189,-0.1104066 0.1472088,-0.1634918 0.1226189,0.1104065 0.01845,-0.020491 a 0.055,0.055 0 0 1 0.037994,-0.018122 l 0.095225,-0.00499 a 0.055,0.055 0 0 1 0.03968,0.014052 l 0.0041,0.00373 0.0736,-0.081746 a 0.11000029,0.11000029 0 0 1 0.163494,0.1472069 z"
     fill="#ffffff"
     stroke="#000000"
     stroke-width="0.001cm"
     stroke-linecap="round"
     stroke-linejoin="round"
     id="path19"
     style="fill:none;stroke:#000000;stroke-opacity:1;vector-effect:non-scaling-stroke;-inkscape-stroke:hairline;stroke-width:0.02645833;stroke-dasharray:none" /><path
     d="m 10.765625,8.685085 a 0.175,0.175 0 1 0 -0.35,0 0.175,0.175 0 1 0 0.35,0 z"
     fill="#ffffff"
     stroke="#000000"
     stroke-width="0.001cm"
     stroke-linecap="round"
     stroke-linejoin="round"
     id="path20"
     style="fill:none;stroke:#000000;stroke-opacity:1;vector-effect:non-scaling-stroke;-inkscape-stroke:hairline;stroke-width:0.02645833;stroke-dasharray:none" /><path
     d="m 1.5749995,6.2950004 a 0.175,0.175 0 1 0 -0.35,0 0.175,0.175 0 1 0 0.35,0 z"
     fill="#ffffff"
     stroke="#000000"
     stroke-width="0.001cm"
     stroke-linecap="round"
     stroke-linejoin="round"
     id="path21"
     style="fill:none;stroke:#000000;stroke-opacity:1;vector-effect:non-scaling-stroke;-inkscape-stroke:hairline;stroke-width:0.02645833;stroke-dasharray:none" /><path
     d="m 9.0051541,7.6062673 a 0.175,0.175 0 1 0 -0.35,0 0.175,0.175 0 1 0 0.35,0 z"
     fill="#ffffff"
     stroke="#000000"
     stroke-width="0.001cm"
     stroke-linecap="round"
     stroke-linejoin="round"
     id="path22"
     style="fill:none;stroke:#000000;stroke-opacity:1;vector-effect:non-scaling-stroke;-inkscape-stroke:hairline;stroke-width:0.02645833;stroke-dasharray:none" /><path
     d="m 2.0319996,4.5950004 a 0.11000001,0.11000001 0 1 0 -0.2200001,0 0.11000001,0.11000001 0 1 0 0.2200001,0 z"
     fill="#ffffff"
     stroke="#000000"
     stroke-width="0.001cm"
     stroke-linecap="round"
     stroke-linejoin="round"
     id="path23"
     style="fill:none;stroke:#000000;stroke-opacity:1;vector-effect:non-scaling-stroke;-inkscape-stroke:hairline;stroke-width:0.02645833;stroke-dasharray:none" /><path
     d="m 3.8319996,3.1500004 a 0.11,0.11 0 1 0 -0.22,0 0.11,0.11 0 1 0 0.22,0 z"
     fill="#ffffff"
     stroke="#000000"
     stroke-width="0.001cm"
     stroke-linecap="round"
     stroke-linejoin="round"
     id="path24"
     style="fill:none;stroke:#000000;stroke-opacity:1;vector-effect:non-scaling-stroke;-inkscape-stroke:hairline;stroke-width:0.02645833;stroke-dasharray:none" /><path
     d="m 5.6319996,2.7250004 a 0.11,0.11 0 1 0 -0.22,0 0.11,0.11 0 1 0 0.22,0 z"
     fill="#ffffff"
     stroke="#000000"
     stroke-width="0.001cm"
     stroke-linecap="round"
     stroke-linejoin="round"
     id="path25"
     style="fill:none;stroke:#000000;stroke-opacity:1;vector-effect:non-scaling-stroke;-inkscape-stroke:hairline;stroke-width:0.02645833;stroke-dasharray:none" /><path
     d="m 7.4319996,3.1500004 a 0.11,0.11 0 1 0 -0.22,0 0.11,0.11 0 1 0 0.22,0 z"
     fill="#ffffff"
     stroke="#000000"
     stroke-width="0.001cm"
     stroke-linecap="round"
     stroke-linejoin="round"
     id="path26"
     style="fill:none;stroke:#000000;stroke-opacity:1;vector-effect:non-scaling-stroke;-inkscape-stroke:hairline;stroke-width:0.02645833;stroke-dasharray:none" /><path
     d="m 8.7749996,3.4050004 a 0.175,0.175 0 1 0 -0.35,0 0.175,0.175 0 1 0 0.35,0 z"
     fill="#ffffff"
     stroke="#000000"
     stroke-width="0.001cm"
     stroke-linecap="round"
     stroke-linejoin="round"
     id="path27"
     style="fill:none;stroke:#000000;stroke-opacity:1;vector-effect:non-scaling-stroke;-inkscape-stroke:hairline;stroke-width:0.02645833;stroke-dasharray:none" /><path
     d="m 6.2699996,1.1000004 a 0.12,0.12 0 0 1 -0.24,0 V 0.76000023 a 0.12,0.12 0 0 1 0.24,0 z"
     fill="#ffffff"
     stroke="#000000"
     stroke-width="0.001cm"
     stroke-linecap="round"
     stroke-linejoin="round"
     id="path28"
     style="fill:none;stroke:#000000;stroke-opacity:1;vector-effect:non-scaling-stroke;-inkscape-stroke:hairline;stroke-width:0.02645833;stroke-dasharray:none" /><path
     d="m 4.2299996,0.67500023 v -0.34 a 0.12,0.12 0 0 1 0.24,0 v 0.34 a 0.12,0.12 0 0 1 -0.24,0 z"
     fill="#ffffff"
     stroke="#000000"
     stroke-width="0.001cm"
     stroke-linecap="round"
     stroke-linejoin="round"
     id="path29"
     style="fill:none;stroke:#000000;stroke-opacity:1;vector-effect:non-scaling-stroke;-inkscape-stroke:hairline;stroke-width:0.02645833;stroke-dasharray:none" /><path
     d="M 2.4299996,1.1000004 V 0.76000023 a 0.12,0.12 0 0 1 0.24,0 V 1.1000004 a 0.12,0.12 0 0 1 -0.24,0 z"
     fill="#ffffff"
     stroke="#000000"
     stroke-width="0.001cm"
     stroke-linecap="round"
     stroke-linejoin="round"
     id="path30"
     style="fill:none;stroke:#000000;stroke-opacity:1;vector-effect:non-scaling-stroke;-inkscape-stroke:hairline;stroke-width:0.02645833;stroke-dasharray:none" /><path
     d="m 1.5749995,2.8950004 a 0.175,0.175 0 1 0 -0.35,0 0.175,0.175 0 1 0 0.35,0 z"
     fill="#ffffff"
     stroke="#000000"
     stroke-width="0.001cm"
     stroke-linecap="round"
     stroke-linejoin="round"
     id="path31"
     style="fill:none;stroke:#000000;stroke-opacity:1;vector-effect:non-scaling-stroke;-inkscape-stroke:hairline;stroke-width:0.02645833;stroke-dasharray:none" /><path
     d="m 6.9749996,1.4500004 a 0.175,0.175 0 1 0 -0.35,0 0.175,0.175 0 1 0 0.35,0 z"
     fill="#ffffff"
     stroke="#000000"
     stroke-width="0.001cm"
     stroke-linecap="round"
     stroke-linejoin="round"
     id="path32"
     style="fill:none;stroke:#000000;stroke-opacity:1;vector-effect:non-scaling-stroke;-inkscape-stroke:hairline;stroke-width:0.02645833;stroke-dasharray:none" /><path
     d="m 9.2319996,3.4050004 a 0.11,0.11 0 1 0 -0.22,0 0.11,0.11 0 1 0 0.22,0 z"
     fill="#ffffff"
     stroke="#000000"
     stroke-width="0.001cm"
     stroke-linecap="round"
     stroke-linejoin="round"
     id="path33"
     style="fill:none;stroke:#000000;stroke-opacity:1;vector-effect:non-scaling-stroke;-inkscape-stroke:hairline;stroke-width:0.02645833;stroke-dasharray:none" /><path
     d="m 6.9749996,3.1500004 a 0.175,0.175 0 1 0 -0.35,0 0.175,0.175 0 1 0 0.35,0 z"
     fill="#ffffff"
     stroke="#000000"
     stroke-width="0.001cm"
     stroke-linecap="round"
     stroke-linejoin="round"
     id="path34"
     style="fill:none;stroke:#000000;stroke-opacity:1;vector-effect:non-scaling-stroke;-inkscape-stroke:hairline;stroke-width:0.02645833;stroke-dasharray:none" /><path
     d="m 5.1749996,2.7250004 a 0.175,0.175 0 1 0 -0.35,0 0.175,0.175 0 1 0 0.35,0 z"
     fill="#ffffff"
     stroke="#000000"
     stroke-width="0.001cm"
     stroke-linecap="round"
     stroke-linejoin="round"
     id="path35"
     style="fill:none;stroke:#000000;stroke-opacity:1;vector-effect:non-scaling-stroke;-inkscape-stroke:hairline;stroke-width:0.02645833;stroke-dasharray:none" /><path
     d="m 3.3749996,3.1500004 a 0.175,0.175 0 1 0 -0.35,0 0.175,0.175 0 1 0 0.35,0 z"
     fill="#ffffff"
     stroke="#000000"
     stroke-width="0.001cm"
     stroke-linecap="round"
     stroke-linejoin="round"
     id="path36"
     style="fill:none;stroke:#000000;stroke-opacity:1;vector-effect:non-scaling-stroke;-inkscape-stroke:hairline;stroke-width:0.02645833;stroke-dasharray:none" /><path
     d="m 1.5749995,4.5950004 a 0.175,0.175 0 1 0 -0.35,0 0.175,0.175 0 1 0 0.35,0 z"
     fill="#ffffff"
     stroke="#000000"
     stroke-width="0.001cm"
     stroke-linecap="round"
     stroke-linejoin="round"
     id="path37"
     style="fill:none;stroke:#000000;stroke-opacity:1;vector-effect:non-scaling-stroke;-inkscape-stroke:hairline;stroke-width:0.02645833;stroke-dasharray:none" /><path
     d="m 3.3749996,4.8500004 a 0.175,0.175 0 1 0 -0.35,0 0.175,0.175 0 1 0 0.35,0 z"
     fill="#ffffff"
     stroke="#000000"
     stroke-width="0.001cm"
     stroke-linecap="round"
     stroke-linejoin="round"
     id="path38"
     style="fill:none;stroke:#000000;stroke-opacity:1;vector-effect:non-scaling-stroke;-inkscape-stroke:hairline;stroke-width:0.02645833;stroke-dasharray:none" /><path
     d="m 5.1749996,4.4250004 a 0.175,0.175 0 1 0 -0.35,0 0.175,0.175 0 1 0 0.35,0 z"
     fill="#ffffff"
     stroke="#000000"
     stroke-width="0.001cm"
     stroke-linecap="round"
     stroke-linejoin="round"
     id="path39"
     style="fill:none;stroke:#000000;stroke-opacity:1;vector-effect:non-scaling-stroke;-inkscape-stroke:hairline;stroke-width:0.02645833;stroke-dasharray:none" /><path
     d="m 6.9749996,4.8500004 a 0.175,0.175 0 1 0 -0.35,0 0.175,0.175 0 1 0 0.35,0 z"
     fill="#ffffff"
     stroke="#000000"
     stroke-width="0.001cm"
     stroke-linecap="round"
     stroke-linejoin="round"
     id="path40"
     style="fill:none;stroke:#000000;stroke-opacity:1;vector-effect:non-scaling-stroke;-inkscape-stroke:hairline;stroke-width:0.02645833;stroke-dasharray:none" /><path
     d="m 8.7749996,5.1050004 a 0.175,0.175 0 1 0 -0.35,0 0.175,0.175 0 1 0 0.35,0 z"
     fill="#ffffff"
     stroke="#000000"
     stroke-width="0.001cm"
     stroke-linecap="round"
     stroke-linejoin="round"
     id="path41"
     style="fill:none;stroke:#000000;stroke-opacity:1;vector-effect:non-scaling-stroke;-inkscape-stroke:hairline;stroke-width:0.02645833;stroke-dasharray:none" /><path
     d="m 6.9749996,7.2300004 a 0.175,0.175 0 1 0 -0.35,0 0.175,0.175 0 1 0 0.35,0 z"
     fill="#ffffff"
     stroke="#000000"
     stroke-width="0.001cm"
     stroke-linecap="round"
     stroke-linejoin="round"
     id="path42"
     style="fill:none;stroke:#000000;stroke-opacity:1;vector-effect:non-scaling-stroke;-inkscape-stroke:hairline;stroke-width:0.02645833;stroke-dasharray:none" /><path
     d="m 2.0319996,6.2950004 a 0.11000001,0.11000001 0 1 0 -0.2200001,0 0.11000001,0.11000001 0 1 0 0.2200001,0 z"
     fill="#ffffff"
     stroke="#000000"
     stroke-width="0.001cm"
     stroke-linecap="round"
     stroke-linejoin="round"
     id="path43"
     style="fill:none;stroke:#000000;stroke-opacity:1;vector-effect:non-scaling-stroke;-inkscape-stroke:hairline;stroke-width:0.02645833;stroke-dasharray:none" /><path
     d="m 11.088546,9.0343712 a 0.11,0.11 0 1 0 -0.22,0 0.11,0.11 0 1 0 0.22,0 z"
     fill="#ffffff"
     stroke="#000000"
     stroke-width="0.001cm"
     stroke-linecap="round"
     stroke-linejoin="round"
     id="path44"
     style="fill:none;stroke:#000000;stroke-opacity:1;vector-effect:non-scaling-stroke;-inkscape-stroke:hairline;stroke-width:0.02645833;stroke-dasharray:none" /><path
     d="m 10.480103,7.6570845 a 0.12,0.12 0 0 1 0.178355,0.1605914 L 10.430953,8.0703451 A 0.12,0.12 0 1 1 10.252599,7.9097538 Z"
     fill="#ffffff"
     stroke="#000000"
     stroke-width="0.001cm"
     stroke-linecap="round"
     stroke-linejoin="round"
     id="path45"
     style="fill:none;stroke:#000000;stroke-opacity:1;vector-effect:non-scaling-stroke;-inkscape-stroke:hairline;stroke-width:0.02645833;stroke-dasharray:none" /><path
     d="m 6.2699996,6.5400004 v 0.34 a 0.12,0.12 0 0 1 -0.24,0 v -0.34 a 0.12,0.12 0 0 1 0.24,0 z"
     fill="#ffffff"
     stroke="#000000"
     stroke-width="0.001cm"
     stroke-linecap="round"
     stroke-linejoin="round"
     id="path46"
     style="fill:none;stroke:#000000;stroke-opacity:1;vector-effect:non-scaling-stroke;-inkscape-stroke:hairline;stroke-width:0.02645833;stroke-dasharray:none" /><path
     d="m 9.4274831,7.7933354 a 0.11,0.11 0 1 0 -0.22,0 0.11,0.11 0 1 0 0.22,0 z"
     fill="#ffffff"
     stroke="#000000"
     stroke-width="0.001cm"
     stroke-linecap="round"
     stroke-linejoin="round"
     id="path47"
     style="fill:none;stroke:#000000;stroke-opacity:1;vector-effect:non-scaling-stroke;-inkscape-stroke:hairline;stroke-width:0.02645833;stroke-dasharray:none" /><path
     d="m 7.8299996,4.7550004 v -0.34 a 0.12,0.12 0 0 1 0.24,0 v 0.34 a 0.12,0.12 0 0 1 -0.24,0 z"
     fill="#ffffff"
     stroke="#000000"
     stroke-width="0.001cm"
     stroke-linecap="round"
     stroke-linejoin="round"
     id="path48"
     style="fill:none;stroke:#000000;stroke-opacity:1;vector-effect:non-scaling-stroke;-inkscape-stroke:hairline;stroke-width:0.02645833;stroke-dasharray:none" /><path
     d="m 6.2699996,4.5000004 a 0.12,0.12 0 0 1 -0.24,0 v -0.34 a 0.12,0.12 0 0 1 0.24,0 z"
     fill="#ffffff"
     stroke="#000000"
     stroke-width="0.001cm"
     stroke-linecap="round"
     stroke-linejoin="round"
     id="path49"
     style="fill:none;stroke:#000000;stroke-opacity:1;vector-effect:non-scaling-stroke;-inkscape-stroke:hairline;stroke-width:0.02645833;stroke-dasharray:none" /><path
     d="m 4.2299996,4.0750004 v -0.34 a 0.12,0.12 0 0 1 0.24,0 v 0.34 a 0.12,0.12 0 0 1 -0.24,0 z"
     fill="#ffffff"
     stroke="#000000"
     stroke-width="0.001cm"
     stroke-linecap="round"
     stroke-linejoin="round"
     id="path50"
     style="fill:none;stroke:#000000;stroke-opacity:1;vector-effect:non-scaling-stroke;-inkscape-stroke:hairline;stroke-width:0.02645833;stroke-dasharray:none" /><path
     d="m 0.62999954,4.2450004 v -0.34 a 0.12,0.12 0 0 1 0.24,0 v 0.34 a 0.12,0.12 0 0 1 -0.24,0 z"
     fill="#ffffff"
     stroke="#000000"
     stroke-width="0.001cm"
     stroke-linecap="round"
     stroke-linejoin="round"
     id="path51"
     style="fill:none;stroke:#000000;stroke-opacity:1;vector-effect:non-scaling-stroke;-inkscape-stroke:hairline;stroke-width:0.02645833;stroke-dasharray:none" /><path
     d="m 2.4299996,4.5000004 v -0.34 a 0.12,0.12 0 0 1 0.24,0 v 0.34 a 0.12,0.12 0 0 1 -0.24,0 z"
     fill="#ffffff"
     stroke="#000000"
     stroke-width="0.001cm"
     stroke-linecap="round"
     stroke-linejoin="round"
     id="path52"
     style="fill:none;stroke:#000000;stroke-opacity:1;vector-effect:non-scaling-stroke;-inkscape-stroke:hairline;stroke-width:0.02645833;stroke-dasharray:none" /><path
     d="m 4.2299996,2.3750004 v -0.34 a 0.12,0.12 0 0 1 0.24,0 v 0.34 a 0.12,0.12 0 0 1 -0.24,0 z"
     fill="#ffffff"
     stroke="#000000"
     stroke-width="0.001cm"
     stroke-linecap="round"
     stroke-linejoin="round"
     id="path53"
     style="fill:none;stroke:#000000;stroke-opacity:1;vector-effect:non-scaling-stroke;-inkscape-stroke:hairline;stroke-width:0.02645833;stroke-dasharray:none" /><path
     d="m 9.2319996,1.7050004 a 0.11,0.11 0 1 0 -0.22,0 0.11,0.11 0 1 0 0.22,0 z"
     fill="#ffffff"
     stroke="#000000"
     stroke-width="0.001cm"
     stroke-linecap="round"
     stroke-linejoin="round"
     id="path54"
     style="fill:none;stroke:#000000;stroke-opacity:1;vector-effect:non-scaling-stroke;-inkscape-stroke:hairline;stroke-width:0.02645833;stroke-dasharray:none" /><path
     d="m 7.4319996,1.4500004 a 0.11,0.11 0 1 0 -0.22,0 0.11,0.11 0 1 0 0.22,0 z"
     fill="#ffffff"
     stroke="#000000"
     stroke-width="0.001cm"
     stroke-linecap="round"
     stroke-linejoin="round"
     id="path55"
     style="fill:none;stroke:#000000;stroke-opacity:1;vector-effect:non-scaling-stroke;-inkscape-stroke:hairline;stroke-width:0.02645833;stroke-dasharray:none" /><path
     d="m 5.6319996,1.0250004 a 0.11,0.11 0 1 0 -0.22,0 0.11,0.11 0 1 0 0.22,0 z"
     fill="#ffffff"
     stroke="#000000"
     stroke-width="0.001cm"
     stroke-linecap="round"
     stroke-linejoin="round"
     id="path56"
     style="fill:none;stroke:#000000;stroke-opacity:1;vector-effect:non-scaling-stroke;-inkscape-stroke:hairline;stroke-width:0.02645833;stroke-dasharray:none" /><path
     d="m 3.8319996,1.4500004 a 0.11,0.11 0 1 0 -0.22,0 0.11,0.11 0 1 0 0.22,0 z"
     fill="#ffffff"
     stroke="#000000"
     stroke-width="0.001cm"
     stroke-linecap="round"
     stroke-linejoin="round"
     id="path57"
     style="fill:none;stroke:#000000;stroke-opacity:1;vector-effect:non-scaling-stroke;-inkscape-stroke:hairline;stroke-width:0.02645833;stroke-dasharray:none" /><path
     d="m 2.4299996,2.8000004 v -0.34 a 0.12,0.12 0 0 1 0.24,0 v 0.34 a 0.12,0.12 0 0 1 -0.24,0 z"
     fill="#ffffff"
     stroke="#000000"
     stroke-width="0.001cm"
     stroke-linecap="round"
     stroke-linejoin="round"
     id="path58"
     style="fill:none;stroke:#000000;stroke-opacity:1;vector-effect:non-scaling-stroke;-inkscape-stroke:hairline;stroke-width:0.02645833;stroke-dasharray:none" /><path
     d="m 0.62999954,2.5450004 v -0.34 a 0.12,0.12 0 0 1 0.24,0 v 0.34 a 0.12,0.12 0 0 1 -0.24,0 z"
     fill="#ffffff"
     stroke="#000000"
     stroke-width="0.001cm"
     stroke-linecap="round"
     stroke-linejoin="round"
     id="path59"
     style="fill:none;stroke:#000000;stroke-opacity:1;vector-effect:non-scaling-stroke;-inkscape-stroke:hairline;stroke-width:0.02645833;stroke-dasharray:none" /><path
     d="m 2.0319996,2.8950004 a 0.11000001,0.11000001 0 1 0 -0.2200001,0 0.11000001,0.11000001 0 1 0 0.2200001,0 z"
     fill="#ffffff"
     stroke="#000000"
     stroke-width="0.001cm"
     stroke-linecap="round"
     stroke-linejoin="round"
     id="path60"
     style="fill:none;stroke:#000000;stroke-opacity:1;vector-effect:non-scaling-stroke;-inkscape-stroke:hairline;stroke-width:0.02645833;stroke-dasharray:none" /><path
     d="m 3.3749996,1.4500004 a 0.175,0.175 0 1 0 -0.35,0 0.175,0.175 0 1 0 0.35,0 z"
     fill="#ffffff"
     stroke="#000000"
     stroke-width="0.001cm"
     stroke-linecap="round"
     stroke-linejoin="round"
     id="path61"
     style="fill:none;stroke:#000000;stroke-opacity:1;vector-effect:non-scaling-stroke;-inkscape-stroke:hairline;stroke-width:0.02645833;stroke-dasharray:none" /><path
     d="m 5.1749996,1.0250004 a 0.175,0.175 0 1 0 -0.35,0 0.175,0.175 0 1 0 0.35,0 z"
     fill="#ffffff"
     stroke="#000000"
     stroke-width="0.001cm"
     stroke-linecap="round"
     stroke-linejoin="round"
     id="path62"
     style="fill:none;stroke:#000000;stroke-opacity:1;vector-effect:non-scaling-stroke;-inkscape-stroke:hairline;stroke-width:0.02645833;stroke-dasharray:none" /><path
     d="m 7.8299996,1.3550004 v -0.34 a 0.12,0.12 0 0 1 0.24,0 v 0.34 a 0.12,0.12 0 0 1 -0.24,0 z"
     fill="#ffffff"
     stroke="#000000"
     stroke-width="0.001cm"
     stroke-linecap="round"
     stroke-linejoin="round"
     id="path63"
     style="fill:none;stroke:#000000;stroke-opacity:1;vector-effect:non-scaling-stroke;-inkscape-stroke:hairline;stroke-width:0.02645833;stroke-dasharray:none" /><path
     d="m 8.7749996,1.7050004 a 0.175,0.175 0 1 0 -0.35,0 0.175,0.175 0 1 0 0.35,0 z"
     fill="#ffffff"
     stroke="#000000"
     stroke-width="0.001cm"
     stroke-linecap="round"
     stroke-linejoin="round"
     id="path64"
     style="fill:none;stroke:#000000;stroke-opacity:1;vector-effect:non-scaling-stroke;-inkscape-stroke:hairline;stroke-width:0.02645833;stroke-dasharray:none" /><path
     d="m 7.8299996,3.0550004 v -0.34 a 0.12,0.12 0 0 1 0.24,0 v 0.34 a 0.12,0.12 0 0 1 -0.24,0 z"
     fill="#ffffff"
     stroke="#000000"
     stroke-width="0.001cm"
     stroke-linecap="round"
     stroke-linejoin="round"
     id="path65"
     style="fill:none;stroke:#000000;stroke-opacity:1;vector-effect:non-scaling-stroke;-inkscape-stroke:hairline;stroke-width:0.02645833;stroke-dasharray:none" /><path
     d="m 6.0299996,2.8000004 v -0.34 a 0.12,0.12 0 0 1 0.24,0 v 0.34 a 0.12,0.12 0 0 1 -0.24,0 z"
     fill="#ffffff"
     stroke="#000000"
     stroke-width="0.001cm"
     stroke-linecap="round"
     stroke-linejoin="round"
     id="path66"
     style="fill:none;stroke:#000000;stroke-opacity:1;vector-effect:non-scaling-stroke;-inkscape-stroke:hairline;stroke-width:0.02645833;stroke-dasharray:none" /><path
     d="m 3.8319996,4.8500004 a 0.11,0.11 0 1 0 -0.22,0 0.11,0.11 0 1 0 0.22,0 z"
     fill="#ffffff"
     stroke="#000000"
     stroke-width="0.001cm"
     stroke-linecap="round"
     stroke-linejoin="round"
     id="path67"
     style="fill:none;stroke:#000000;stroke-opacity:1;vector-effect:non-scaling-stroke;-inkscape-stroke:hairline;stroke-width:0.02645833;stroke-dasharray:none" /><path
     d="m 5.6319996,4.4250004 a 0.11,0.11 0 1 0 -0.22,0 0.11,0.11 0 1 0 0.22,0 z"
     fill="#ffffff"
     stroke="#000000"
     stroke-width="0.001cm"
     stroke-linecap="round"
     stroke-linejoin="round"
     id="path68"
     style="fill:none;stroke:#000000;stroke-opacity:1;vector-effect:non-scaling-stroke;-inkscape-stroke:hairline;stroke-width:0.02645833;stroke-dasharray:none" /><path
     d="m 7.4319996,4.8500004 a 0.11,0.11 0 1 0 -0.22,0 0.11,0.11 0 1 0 0.22,0 z"
     fill="#ffffff"
     stroke="#000000"
     stroke-width="0.001cm"
     stroke-linecap="round"
     stroke-linejoin="round"
     id="path69"
     style="fill:none;stroke:#000000;stroke-opacity:1;vector-effect:non-scaling-stroke;-inkscape-stroke:hairline;stroke-width:0.02645833;stroke-dasharray:none" /><path
     d="m 9.2319996,5.1050004 a 0.11,0.11 0 1 0 -0.22,0 0.11,0.11 0 1 0 0.22,0 z"
     fill="#ffffff"
     stroke="#000000"
     stroke-width="0.001cm"
     stroke-linecap="round"
     stroke-linejoin="round"
     id="path70"
     style="fill:none;stroke:#000000;stroke-opacity:1;vector-effect:non-scaling-stroke;-inkscape-stroke:hairline;stroke-width:0.02645833;stroke-dasharray:none" /><path
     d="M 8.236726,7.0035708 8.3585711,6.6861535 a 0.12,0.12 0 1 1 0.2240593,0.086008 L 8.4607853,7.0895791 A 0.12,0.12 0 0 1 8.236726,7.0035708 Z"
     fill="#ffffff"
     stroke="#000000"
     stroke-width="0.001cm"
     stroke-linecap="round"
     stroke-linejoin="round"
     id="path71"
     style="fill:none;stroke:#000000;stroke-opacity:1;vector-effect:non-scaling-stroke;-inkscape-stroke:hairline;stroke-width:0.02645833;stroke-dasharray:none" /><path
     d="m 7.4319996,7.2300004 a 0.11,0.11 0 1 0 -0.22,0 0.11,0.11 0 1 0 0.22,0 z"
     fill="#ffffff"
     stroke="#000000"
     stroke-width="0.001cm"
     stroke-linecap="round"
     stroke-linejoin="round"
     id="path72"
     style="fill:none;stroke:#000000;stroke-opacity:1;vector-effect:non-scaling-stroke;-inkscape-stroke:hairline;stroke-width:0.02645833;stroke-dasharray:none" /><path
     d="m 0.62999954,5.9450004 v -0.34 a 0.12,0.12 0 0 1 0.24,0 v 0.34 a 0.12,0.12 0 0 1 -0.24,0 z"
     fill="#ffffff"
     stroke="#000000"
     stroke-width="0.001cm"
     stroke-linecap="round"
     stroke-linejoin="round"
     id="path73"
     style="fill:none;stroke:#000000;stroke-opacity:1;vector-effect:non-scaling-stroke;-inkscape-stroke:hairline;stroke-width:0.02645833;stroke-dasharray:none" /><path
     d="m 9.9149996,6.126207 a 0.135,0.135 0 1 0 -0.27,0 0.135,0.135 0 1 0 0.27,0 z"
     fill="#ffffff"
     stroke="#000000"
     stroke-width="0.001cm"
     stroke-linecap="round"
     stroke-linejoin="round"
     id="path74"
     style="fill:none;stroke:#000000;stroke-opacity:1;vector-effect:non-scaling-stroke;-inkscape-stroke:hairline;stroke-width:0.02645833;stroke-dasharray:none" /><path
     d="m 2.7599996,0.25000023 a 0.135,0.135 0 1 0 -0.27,0 0.135,0.135 0 1 0 0.27,0 z"
     fill="#ffffff"
     stroke="#000000"
     stroke-width="0.001cm"
     stroke-linecap="round"
     stroke-linejoin="round"
     id="path75"
     style="fill:none;stroke:#000000;stroke-opacity:1;vector-effect:non-scaling-stroke;-inkscape-stroke:hairline;stroke-width:0.02645833;stroke-dasharray:none" /><path
     d="m 9.8849996,0.25000023 a 0.135,0.135 0 1 0 -0.27,0 0.135,0.135 0 1 0 0.27,0 z"
     fill="#ffffff"
     stroke="#000000"
     stroke-width="0.001cm"
     stroke-linecap="round"
     stroke-linejoin="round"
     id="path76"
     style="fill:none;stroke:#000000;stroke-opacity:1;vector-effect:non-scaling-stroke;-inkscape-stroke:hairline;stroke-width:0.02645833;stroke-dasharray:none" /><path
     d="m 0.38499954,7.6750003 a 0.135,0.135 0 1 0 -0.27,0 0.135,0.135 0 1 0 0.27,0 z"
     fill="#ffffff"
     stroke="#000000"
     stroke-width="0.001cm"
     stroke-linecap="round"
     stroke-linejoin="round"
     id="path77"
     style="fill:none;stroke:#000000;stroke-opacity:1;vector-effect:non-scaling-stroke;-inkscape-stroke:hairline;stroke-width:0.02645833;stroke-dasharray:none" /></svg>
