<?xml version="1.0" encoding="UTF-8" standalone="no"?>
<!-- Generator: Fusion 360, Shaper Origin Export Add-In, Version 1.8.0  -->

<svg
   shaper:fusionaddin="version:1.8.0"
   width="12.0382073cm"
   height="10.1326669cm"
   version="1.1"
   x="0cm"
   y="0cm"
   viewBox="0 0 12.0382073 10.1326669"
   enable-background="new 0 0 12.0382073 10.1326669"
   xml:space="preserve"
   id="svg5"
   sodipodi:docname="edge_cuts.svg"
   inkscape:version="1.3.2 (091e20e, 2023-11-25)"
   xmlns:inkscape="http://www.inkscape.org/namespaces/inkscape"
   xmlns:sodipodi="http://sodipodi.sourceforge.net/DTD/sodipodi-0.dtd"
   xmlns="http://www.w3.org/2000/svg"
   xmlns:svg="http://www.w3.org/2000/svg"
   xmlns:shaper="http://www.shapertools.com/namespaces/shaper"><defs
     id="defs5" /><sodipodi:namedview
     id="namedview5"
     pagecolor="#ffffff"
     bordercolor="#000000"
     borderopacity="0.25"
     inkscape:showpageshadow="2"
     inkscape:pageopacity="0.0"
     inkscape:pagecheckerboard="0"
     inkscape:deskcolor="#d1d1d1"
     inkscape:document-units="cm"
     inkscape:zoom="1.237397"
     inkscape:cx="227.49368"
     inkscape:cy="191.12701"
     inkscape:window-width="1392"
     inkscape:window-height="1212"
     inkscape:window-x="2240"
     inkscape:window-y="25"
     inkscape:window-maximized="0"
     inkscape:current-layer="svg5" /><path
     d="m 0,0 v 7.695 h 5.4749999 a 0.3,0.3 0 0 1 0.3,0.3 v 0.26 h 1.8293714 a 0.3,0.3 0 0 1 0.1075104,0.019926 l 1.5018909,0.5765219 a 0.3,0.3 0 0 1 0.093229,0.057131 L 10.666489,10.132667 12.038207,8.6092201 10.099261,6.8633848 A 0.3,0.3 0 0 1 9.9999999,6.6404414 V 0 Z"
     fill="#000000"
     stroke-linecap="round"
     stroke-linejoin="round"
     id="path1"
     style="fill:none;stroke:#000000;stroke-opacity:1;vector-effect:non-scaling-stroke;-inkscape-stroke:hairline;stroke-width:0.02645833;stroke-dasharray:none" /><path
     d="m 2.4967406,0.1544134 a 0.11,0.11 0 1 0 -0.22,0 0.11,0.11 0 1 0 0.22,0 z"
     fill="#ffffff"
     stroke="#000000"
     stroke-width="0.001cm"
     stroke-linecap="round"
     stroke-linejoin="round"
     id="path2"
     style="fill:none;stroke:#000000;stroke-opacity:1;vector-effect:non-scaling-stroke;-inkscape-stroke:hairline;stroke-width:0.02645833;stroke-dasharray:none" /><path
     d="m 9.9555865,0.1544134 a 0.11,0.11 0 1 0 -0.22,0 0.11,0.11 0 1 0 0.22,0 z"
     fill="#ffffff"
     stroke="#000000"
     stroke-width="0.001cm"
     stroke-linecap="round"
     stroke-linejoin="round"
     id="path3"
     style="fill:none;stroke:#000000;stroke-opacity:1;vector-effect:non-scaling-stroke;-inkscape-stroke:hairline;stroke-width:0.02645833;stroke-dasharray:none" /><path
     d="m 9.9555865,6.1272386 a 0.11,0.11 0 1 0 -0.22,0 0.11,0.11 0 1 0 0.22,0 z"
     fill="#ffffff"
     stroke="#000000"
     stroke-width="0.001cm"
     stroke-linecap="round"
     stroke-linejoin="round"
     id="path4"
     style="fill:none;stroke:#000000;stroke-opacity:1;vector-effect:non-scaling-stroke;-inkscape-stroke:hairline;stroke-width:0.02645833;stroke-dasharray:none" /><path
     d="m 0.264413,7.5405867 a 0.11,0.11 0 1 0 -0.22,0 0.11,0.11 0 1 0 0.22,0 z"
     fill="#ffffff"
     stroke="#000000"
     stroke-width="0.001cm"
     stroke-linecap="round"
     stroke-linejoin="round"
     id="path5"
     style="fill:none;stroke:#000000;stroke-opacity:1;vector-effect:non-scaling-stroke;-inkscape-stroke:hairline;stroke-width:0.02645833;stroke-dasharray:none" /></svg>
