<?xml version="1.0" encoding="UTF-8" standalone="no"?>
<!-- Generator: Fusion 360, Shaper Origin Export Add-In, Version 1.8.0  -->

<svg
   shaper:fusionaddin="version:1.8.0"
   width="11.876366cm"
   height="9.9708256cm"
   version="1.1"
   x="0cm"
   y="0cm"
   viewBox="0 0 11.876366 9.9708256"
   enable-background="new 0 0 11.876366 9.9708256"
   xml:space="preserve"
   id="svg5"
   sodipodi:docname="PCB Cuts Right.svg"
   inkscape:version="1.3.2 (091e20e, 2023-11-25)"
   xmlns:inkscape="http://www.inkscape.org/namespaces/inkscape"
   xmlns:sodipodi="http://sodipodi.sourceforge.net/DTD/sodipodi-0.dtd"
   xmlns="http://www.w3.org/2000/svg"
   xmlns:svg="http://www.w3.org/2000/svg"
   xmlns:shaper="http://www.shapertools.com/namespaces/shaper"><defs
     id="defs5" /><sodipodi:namedview
     id="namedview5"
     pagecolor="#ffffff"
     bordercolor="#000000"
     borderopacity="0.25"
     inkscape:showpageshadow="2"
     inkscape:pageopacity="0.0"
     inkscape:pagecheckerboard="0"
     inkscape:deskcolor="#d1d1d1"
     inkscape:document-units="cm"
     inkscape:zoom="0.6371548"
     inkscape:cx="224.43525"
     inkscape:cy="189.12202"
     inkscape:window-width="1392"
     inkscape:window-height="1212"
     inkscape:window-x="2240"
     inkscape:window-y="25"
     inkscape:window-maximized="0"
     inkscape:current-layer="svg5" /><path
     d="m 6.0345449,8.1262504 a 0.05,0.05 0 0 1 -0.04526,0.02875 H 4.2627241 A 0.35,0.35 0 0 0 4.1372954,8.1782474 L 2.6181015,8.7614112 A 0.35,0.35 0 0 0 2.5093346,8.8280642 L 1.2544322,9.9579833 a 0.05,0.05 0 0 1 -0.07061,-0.0037 L 0.01284323,8.6537801 a 0.05,0.05 0 0 1 0.0037,-0.070614 L 1.8598192,6.9234694 a 0.05,0.05 0 0 0 0.016543,-0.037157 V 0.05000043 a 0.05,0.05 0 0 1 0.05,-0.0499999961305 H 11.826362 A 0.05,0.05 0 0 1 11.876362,0.05000043 V 7.8750004 a 0.05,0.05 0 0 1 -0.05,0.05 H 6.3513626 a 0.35,0.35 0 0 0 -0.3168177,0.20125 z"
     fill="#000000"
     stroke-linecap="round"
     stroke-linejoin="round"
     id="path1"
     style="vector-effect:non-scaling-stroke;fill:none;stroke:#000000;stroke-width:0.0264583;stroke-dasharray:none;stroke-opacity:1;-inkscape-stroke:hairline" /><path
     d="m 1.9613626,6.126207 a 0.135,0.135 0 1 1 0.27,0 0.135,0.135 0 1 1 -0.27,0 z"
     fill="#ffffff"
     stroke="#000000"
     stroke-width="0.001cm"
     stroke-linecap="round"
     stroke-linejoin="round"
     id="path2"
     style="vector-effect:non-scaling-stroke;fill:none;stroke:#000000;stroke-width:0.0264583;stroke-dasharray:none;stroke-opacity:1;-inkscape-stroke:hairline" /><path
     d="m 9.1163626,0.25000023 a 0.135,0.135 0 1 1 0.27,0 0.135,0.135 0 1 1 -0.27,0 z"
     fill="#ffffff"
     stroke="#000000"
     stroke-width="0.001cm"
     stroke-linecap="round"
     stroke-linejoin="round"
     id="path3"
     style="vector-effect:non-scaling-stroke;fill:none;stroke:#000000;stroke-width:0.0264583;stroke-dasharray:none;stroke-opacity:1;-inkscape-stroke:hairline" /><path
     d="m 1.9913626,0.25000023 a 0.135,0.135 0 1 1 0.27,0 0.135,0.135 0 1 1 -0.27,0 z"
     fill="#ffffff"
     stroke="#000000"
     stroke-width="0.001cm"
     stroke-linecap="round"
     stroke-linejoin="round"
     id="path4"
     style="vector-effect:non-scaling-stroke;fill:none;stroke:#000000;stroke-width:0.0264583;stroke-dasharray:none;stroke-opacity:1;-inkscape-stroke:hairline" /><path
     d="m 11.491363,7.6750003 a 0.135,0.135 0 1 1 0.27,0 0.135,0.135 0 1 1 -0.27,0 z"
     fill="#ffffff"
     stroke="#000000"
     stroke-width="0.001cm"
     stroke-linecap="round"
     stroke-linejoin="round"
     id="path5"
     style="vector-effect:non-scaling-stroke;fill:none;stroke:#000000;stroke-width:0.0264583;stroke-dasharray:none;stroke-opacity:1;-inkscape-stroke:hairline" /></svg>
