<?xml version="1.0" encoding="UTF-8" standalone="no"?>
<!-- Generator: Fusion 360, Shaper Origin Export Add-In, Version 1.8.0  -->

<svg
   shaper:fusionaddin="version:1.8.0"
   width="11.876366cm"
   height="9.9708256cm"
   version="1.1"
   x="0cm"
   y="0cm"
   viewBox="0 0 11.876366 9.9708256"
   enable-background="new 0 0 11.876366 9.9708256"
   xml:space="preserve"
   id="svg5"
   sodipodi:docname="PCB Cuts.svg"
   inkscape:version="1.3.2 (091e20e, 2023-11-25)"
   xmlns:inkscape="http://www.inkscape.org/namespaces/inkscape"
   xmlns:sodipodi="http://sodipodi.sourceforge.net/DTD/sodipodi-0.dtd"
   xmlns="http://www.w3.org/2000/svg"
   xmlns:svg="http://www.w3.org/2000/svg"
   xmlns:shaper="http://www.shapertools.com/namespaces/shaper"><defs
     id="defs5" /><sodipodi:namedview
     id="namedview5"
     pagecolor="#ffffff"
     bordercolor="#000000"
     borderopacity="0.25"
     inkscape:showpageshadow="2"
     inkscape:pageopacity="0.0"
     inkscape:pagecheckerboard="0"
     inkscape:deskcolor="#d1d1d1"
     inkscape:document-units="cm"
     inkscape:zoom="0.6371548"
     inkscape:cx="224.43526"
     inkscape:cy="189.12202"
     inkscape:window-width="3008"
     inkscape:window-height="1562"
     inkscape:window-x="1512"
     inkscape:window-y="25"
     inkscape:window-maximized="1"
     inkscape:current-layer="svg5" /><path
     d="m 5.8418173,8.1262504 a 0.05,0.05 0 0 0 0.04526,0.02875 h 1.7265608 a 0.35,0.35 0 0 1 0.1254287,0.023247 l 1.5191939,0.5831638 a 0.35,0.35 0 0 1 0.1087669,0.066653 L 10.62193,9.9579833 a 0.05,0.05 0 0 0 0.07061,-0.0037 l 1.170979,-1.3005032 a 0.05,0.05 0 0 0 -0.0037,-0.070614 L 10.016543,6.9234694 A 0.05,0.05 0 0 1 10,6.8863124 V 0.05000043 A 0.05,0.05 0 0 0 9.9500001,4.3386945e-7 H 0.05000004 A 0.05,0.05 0 0 0 4.324041e-8,0.05000043 V 7.8750004 A 0.05,0.05 0 0 0 0.05000004,7.9250004 H 5.5249996 a 0.35,0.35 0 0 1 0.3168177,0.20125 z"
     fill="#000000"
     stroke-linecap="round"
     stroke-linejoin="round"
     id="path1"
     style="stroke:#000000;stroke-opacity:1;fill:none;vector-effect:non-scaling-stroke;-inkscape-stroke:hairline;stroke-width:0.02645833;stroke-dasharray:none" /><path
     d="m 9.9149996,6.126207 a 0.135,0.135 0 1 0 -0.27,0 0.135,0.135 0 1 0 0.27,0 z"
     fill="#ffffff"
     stroke="#000000"
     stroke-width="0.001cm"
     stroke-linecap="round"
     stroke-linejoin="round"
     id="path2"
     style="stroke:#000000;stroke-opacity:1;fill:none;vector-effect:non-scaling-stroke;-inkscape-stroke:hairline;stroke-width:0.02645833;stroke-dasharray:none" /><path
     d="m 2.7599996,0.25000023 a 0.135,0.135 0 1 0 -0.27,0 0.135,0.135 0 1 0 0.27,0 z"
     fill="#ffffff"
     stroke="#000000"
     stroke-width="0.001cm"
     stroke-linecap="round"
     stroke-linejoin="round"
     id="path3"
     style="stroke:#000000;stroke-opacity:1;fill:none;vector-effect:non-scaling-stroke;-inkscape-stroke:hairline;stroke-width:0.02645833;stroke-dasharray:none" /><path
     d="m 9.8849996,0.25000023 a 0.135,0.135 0 1 0 -0.27,0 0.135,0.135 0 1 0 0.27,0 z"
     fill="#ffffff"
     stroke="#000000"
     stroke-width="0.001cm"
     stroke-linecap="round"
     stroke-linejoin="round"
     id="path4"
     style="stroke:#000000;stroke-opacity:1;fill:none;vector-effect:non-scaling-stroke;-inkscape-stroke:hairline;stroke-width:0.02645833;stroke-dasharray:none" /><path
     d="m 0.38499954,7.6750003 a 0.135,0.135 0 1 0 -0.27,0 0.135,0.135 0 1 0 0.27,0 z"
     fill="#ffffff"
     stroke="#000000"
     stroke-width="0.001cm"
     stroke-linecap="round"
     stroke-linejoin="round"
     id="path5"
     style="stroke:#000000;stroke-opacity:1;fill:none;vector-effect:non-scaling-stroke;-inkscape-stroke:hairline;stroke-width:0.02645833;stroke-dasharray:none" /></svg>
